<svg width="488" height="488" viewBox="0 0 488 488" fill="none" xmlns="http://www.w3.org/2000/svg">
<path d="M0.344727 244.089C0.344727 61.2817 61.2842 0.346191 244.1 0.346191C426.917 0.346191 487.855 61.2817 487.855 244.089C487.855 426.897 426.917 487.834 244.1 487.834C61.2842 487.834 0.344727 426.897 0.344727 244.089Z" fill="#F0BD66"/>
<path d="M242.791 268.51H165.031C162.741 268.511 160.641 267.239 159.59 265.21C158.546 263.188 158.739 260.751 160.09 258.918L257.909 125.998C261.859 120.616 270.402 124.575 268.791 131.01L246.213 220.169H323.972C326.268 220.169 328.372 221.449 329.414 223.468C330.458 225.49 330.264 227.927 328.913 229.76L231.094 362.688C227.144 368.07 218.601 364.109 220.213 357.675L242.791 268.516V268.51Z" fill="white"/>
</svg>
