<svg width="515" height="290" viewBox="0 0 515 290" fill="none" xmlns="http://www.w3.org/2000/svg">
<g clip-path="url(#clip0_1511_24192)">
<rect width="515" height="290" fill="#B23386"/>
<path d="M102.371 33.85C100.09 33.85 97.8592 35.9143 97.6029 38.8969V34.0959H94.3262V48.5721H97.6429V41.565C97.6429 39.6022 99.0353 36.8334 102.371 36.8334V33.85Z" fill="black"/>
<path d="M136.212 46.2546V36.3368H138.133C140.695 36.3368 142.777 37.9364 142.777 41.2157C142.777 44.495 140.695 46.2546 138.133 46.2546H136.212ZM132.93 48.5741H138.534C141.976 48.5741 146.219 46.3346 146.219 41.2157C146.219 36.1768 141.976 34.0972 138.534 34.0972H132.93V48.5741Z" fill="black"/>
<path d="M121.001 41.3757C121.001 38.7363 122.362 36.5767 124.604 36.5767C126.765 36.5767 127.966 38.7363 127.966 41.3757C127.966 44.0151 126.765 46.1747 124.604 46.1747C122.362 46.1747 121.001 44.0151 121.001 41.3757ZM117.639 41.5357C117.639 45.8547 119.88 48.8941 123.403 48.8941C125.964 48.8941 127.486 47.2145 128.286 44.495V48.5742H131.568V34.0972H128.286V37.9364C127.566 35.377 126.045 33.8573 123.643 33.8573C120.04 33.8573 117.639 37.1366 117.639 41.5357Z" fill="black"/>
<path d="M45.1701 48.894C41.0872 48.894 38.6855 45.6147 38.6855 41.5355C38.6855 37.2964 41.3274 33.8572 46.3709 33.8572C51.5745 33.8572 53.3357 37.3764 53.4158 39.376H49.6532C49.5731 38.2562 48.6125 36.5766 46.2908 36.5766C43.8091 36.5766 42.208 38.7361 42.208 41.3756C42.208 44.015 43.8091 46.1746 46.2908 46.1746C48.5324 46.1746 49.4931 44.4149 49.8933 42.6553H46.2908V41.2156H53.8501V48.574H50.5338V43.935C50.2936 45.6147 49.2529 48.894 45.1701 48.894Z" fill="black"/>
<path d="M59.8775 48.8941C56.7553 48.8941 54.834 46.8145 54.834 42.6554V34.0972H58.1963V42.6554C58.1963 44.8149 59.237 45.8547 60.9982 45.8547C64.4406 45.8547 65.7215 41.6156 65.7215 38.6563V34.0972H69.0838V48.5741H65.8016V43.2153C65.1611 46.1746 63.3999 48.8941 59.8775 48.8941Z" fill="black"/>
<path d="M88.5455 33.8498C85.677 33.8498 83.8674 36.6184 83.2766 39.1783C83.1756 35.7477 81.4871 33.8498 78.7853 33.8498C76.4511 33.8498 74.2855 35.9295 73.723 39.2197V34.0961H70.4453V48.5733H73.765V43.3833C73.765 42.0966 74.3019 36.8164 77.6438 36.8164C79.8087 36.8164 80.0344 38.7673 80.0344 41.4342V48.5733H83.3525V43.3833C83.3525 42.0966 83.9116 36.8164 87.2535 36.8164C89.4165 36.8164 89.64 38.7673 89.64 41.4342V48.5733H92.9628V40.0101C92.978 35.902 91.5262 33.8498 88.5455 33.8498Z" fill="black"/>
<path d="M109.397 33.8498C105.099 33.8498 102.188 37.2165 102.188 41.372C102.188 45.9507 104.957 48.8941 109.397 48.8941C113.695 48.8941 116.659 45.5275 116.659 41.372C116.659 36.7933 113.835 33.8498 109.397 33.8498ZM109.397 46.3316C106.895 46.3316 105.275 44.2154 105.275 41.372C105.275 38.5286 106.901 36.4123 109.397 36.4123C111.893 36.4123 113.454 38.5286 113.454 41.372C113.454 44.2154 111.892 46.3316 109.397 46.3316Z" fill="black"/>
<path d="M466.62 140.787H467.829V139.578V126.204L499.663 126.204V281.01H369.153L369.152 204.037L369.153 193.822H394.712H395.921V192.613V179.249H423.857H425.066V178.04V159.66H447.031H448.24V158.451V140.787H466.62Z" fill="#90A8ED" stroke="black" stroke-width="2.41784"/>
<path d="M382.491 212.277C382.491 213.174 382.669 214.484 382.949 216.037C383.234 217.614 383.638 219.519 384.119 221.641C384.899 225.082 385.889 229.13 386.916 233.328C387.156 234.308 387.398 235.297 387.64 236.289C388.919 241.532 390.194 246.848 391.148 251.417C392.11 256.024 392.721 259.755 392.721 261.887C392.721 265.294 391.658 267.687 389.996 269.236C388.32 270.799 385.887 271.641 382.897 271.641C380.548 271.641 378.185 271.188 376.057 270.446L377.77 264.798C378.942 265.412 380.133 265.697 381.192 265.697C382.362 265.697 383.5 265.304 384.355 264.496C385.221 263.677 385.711 262.512 385.711 261.144C385.711 258.884 385.06 255.097 384.133 250.689C383.198 246.24 381.953 241.029 380.713 235.859C380.664 235.655 380.614 235.45 380.565 235.246C379.373 230.276 378.196 225.373 377.306 221.214C376.369 216.839 375.781 213.426 375.781 211.627C375.781 208.806 376.75 206.608 378.346 205.111C379.95 203.605 382.292 202.709 385.204 202.709C387.82 202.709 390.055 203.294 391.804 204.029L389.304 209.175C388.299 208.691 387.143 208.374 386.107 208.374C385.066 208.374 384.114 208.737 383.436 209.499C382.774 210.243 382.491 211.232 382.491 212.277Z" fill="#90A8ED" stroke="black" stroke-width="2.41784"/>
<path d="M413.808 203.967L413.807 203.959L413.807 203.952C413.575 201.187 413.314 199.208 412.972 197.9C412.804 197.256 412.59 196.669 412.282 196.22C411.954 195.743 411.419 195.292 410.655 195.292C410.131 195.292 409.727 195.539 409.462 195.779C409.201 196.016 408.999 196.31 408.84 196.594C408.52 197.165 408.242 197.932 407.994 198.813C407.492 200.594 407.037 203.11 406.652 206.141C405.88 212.218 405.368 220.526 405.368 229.527C405.368 242.119 405.901 250.691 406.654 256.138C407.029 258.853 407.465 260.845 407.94 262.186C408.175 262.85 408.443 263.425 408.765 263.857C409.065 264.259 409.594 264.776 410.377 264.776C411.238 264.776 411.765 264.145 412.031 263.719C412.331 263.239 412.574 262.597 412.785 261.836C413.211 260.297 413.584 257.964 413.876 254.685C414.446 248.279 414.723 238.062 414.394 222.62H421.061C421.466 241.068 420.731 253.47 418.82 261.264C417.844 265.243 416.591 267.896 415.133 269.54C413.72 271.132 412.076 271.826 410.099 271.826C408.406 271.826 406.853 271.046 405.419 269.317C403.961 267.558 402.676 264.865 401.62 261.216C399.512 253.926 398.424 243.183 398.424 229.527C398.424 215.985 399.559 205.392 401.765 198.223C402.869 194.638 404.214 191.998 405.744 190.275C407.248 188.581 408.905 187.791 410.748 187.791C413.177 187.791 415.039 188.822 416.529 191.08C418.071 193.418 419.198 197.063 419.932 202.189C420.344 205.298 420.534 209.072 420.565 213.101H414.019C414.069 209.516 413.977 206.335 413.808 203.967Z" fill="#90A8ED" stroke="black" stroke-width="2.41784"/>
<path d="M435.726 225.801H434.57L434.519 226.956C433.801 243.211 433.256 259.075 432.886 270.899H426.55C428.55 242.822 430.974 203.168 432.794 169.244H442.64C443.712 190.45 447.053 243.749 448.981 270.899H442.563C442.355 261.825 441.815 245.153 441.105 226.963L441.06 225.801H439.897H439.89H439.882H439.875H439.867H439.859H439.852H439.844H439.836H439.829H439.821H439.813H439.806H439.798H439.79H439.783H439.775H439.767H439.76H439.752H439.744H439.736H439.729H439.721H439.713H439.705H439.698H439.69H439.682H439.674H439.667H439.659H439.651H439.643H439.635H439.628H439.62H439.612H439.604H439.596H439.588H439.581H439.573H439.565H439.557H439.549H439.541H439.533H439.526H439.518H439.51H439.502H439.494H439.486H439.478H439.47H439.462H439.454H439.447H439.439H439.431H439.423H439.415H439.407H439.399H439.391H439.383H439.375H439.367H439.359H439.351H439.343H439.335H439.327H439.319H439.311H439.303H439.295H439.287H439.279H439.271H439.263H439.255H439.247H439.239H439.231H439.223H439.215H439.206H439.198H439.19H439.182H439.174H439.166H439.158H439.15H439.142H439.134H439.126H439.117H439.109H439.101H439.093H439.085H439.077H439.069H439.061H439.052H439.044H439.036H439.028H439.02H439.012H439.004H438.995H438.987H438.979H438.971H438.963H438.955H438.946H438.938H438.93H438.922H438.914H438.905H438.897H438.889H438.881H438.872H438.864H438.856H438.848H438.84H438.831H438.823H438.815H438.807H438.798H438.79H438.782H438.774H438.765H438.757H438.749H438.741H438.732H438.724H438.716H438.708H438.699H438.691H438.683H438.674H438.666H438.658H438.65H438.641H438.633H438.625H438.616H438.608H438.6H438.591H438.583H438.575H438.566H438.558H438.55H438.542H438.533H438.525H438.517H438.508H438.5H438.492H438.483H438.475H438.467H438.458H438.45H438.441H438.433H438.425H438.416H438.408H438.4H438.391H438.383H438.375H438.366H438.358H438.35H438.341H438.333H438.324H438.316H438.308H438.299H438.291H438.283H438.274H438.266H438.257H438.249H438.241H438.232H438.224H438.215H438.207H438.199H438.19H438.182H438.173H438.165H438.157H438.148H438.14H438.132H438.123H438.115H438.106H438.098H438.089H438.081H438.073H438.064H438.056H438.047H438.039H438.031H438.022H438.014H438.005H437.997H437.989H437.98H437.972H437.963H437.955H437.947H437.938H437.93H437.921H437.913H437.904H437.896H437.888H437.879H437.871H437.862H437.854H437.846H437.837H437.829H437.82H437.812H437.803H437.795H437.787H437.778H437.77H437.761H437.753H437.744H437.736H437.728H437.719H437.711H437.702H437.694H437.686H437.677H437.669H437.66H437.652H437.644H437.635H437.627H437.618H437.61H437.601H437.593H437.585H437.576H437.568H437.559H437.551H437.543H437.534H437.526H437.517H437.509H437.501H437.492H437.484H437.475H437.467H437.459H437.45H437.442H437.433H437.425H437.417H437.408H437.4H437.391H437.383H437.375H437.366H437.358H437.35H437.341H437.333H437.324H437.316H437.308H437.299H437.291H437.283H437.274H437.266H437.257H437.249H437.241H437.232H437.224H437.216H437.207H437.199H437.191H437.182H437.174H437.166H437.157H437.149H437.14H437.132H437.124H437.115H437.107H437.099H437.09H437.082H437.074H437.066H437.057H437.049H437.041H437.032H437.024H437.016H437.007H436.999H436.991H436.982H436.974H436.966H436.958H436.949H436.941H436.933H436.924H436.916H436.908H436.9H436.891H436.883H436.875H436.867H436.858H436.85H436.842H436.834H436.825H436.817H436.809H436.801H436.792H436.784H436.776H436.768H436.759H436.751H436.743H436.735H436.727H436.718H436.71H436.702H436.694H436.686H436.677H436.669H436.661H436.653H436.645H436.636H436.628H436.62H436.612H436.604H436.596H436.587H436.579H436.571H436.563H436.555H436.547H436.539H436.531H436.522H436.514H436.506H436.498H436.49H436.482H436.474H436.466H436.458H436.449H436.441H436.433H436.425H436.417H436.409H436.401H436.393H436.385H436.377H436.369H436.361H436.353H436.345H436.337H436.329H436.321H436.313H436.305H436.297H436.289H436.281H436.273H436.265H436.257H436.249H436.241H436.233H436.225H436.217H436.209H436.201H436.193H436.185H436.177H436.169H436.161H436.153H436.145H436.138H436.13H436.122H436.114H436.106H436.098H436.09H436.082H436.074H436.067H436.059H436.051H436.043H436.035H436.027H436.02H436.012H436.004H435.996H435.988H435.98H435.973H435.965H435.957H435.949H435.942H435.934H435.926H435.918H435.911H435.903H435.895H435.887H435.88H435.872H435.864H435.856H435.849H435.841H435.833H435.826H435.818H435.81H435.803H435.795H435.787H435.78H435.772H435.764H435.757H435.749H435.741H435.734H435.726ZM434.797 214.329L434.741 215.591H436.004H436.011H436.017H436.024H436.03H436.037H436.043H436.05H436.057H436.063H436.07H436.076H436.083H436.089H436.096H436.102H436.109H436.115H436.122H436.129H436.135H436.142H436.148H436.155H436.161H436.168H436.174H436.181H436.188H436.194H436.201H436.207H436.214H436.221H436.227H436.234H436.24H436.247H436.253H436.26H436.267H436.273H436.28H436.286H436.293H436.3H436.306H436.313H436.319H436.326H436.333H436.339H436.346H436.353H436.359H436.366H436.372H436.379H436.386H436.392H436.399H436.406H436.412H436.419H436.425H436.432H436.439H436.445H436.452H436.459H436.465H436.472H436.479H436.485H436.492H436.499H436.505H436.512H436.518H436.525H436.532H436.538H436.545H436.552H436.558H436.565H436.572H436.578H436.585H436.592H436.598H436.605H436.612H436.619H436.625H436.632H436.639H436.645H436.652H436.659H436.665H436.672H436.679H436.685H436.692H436.699H436.705H436.712H436.719H436.726H436.732H436.739H436.746H436.752H436.759H436.766H436.772H436.779H436.786H436.793H436.799H436.806H436.813H436.819H436.826H436.833H436.84H436.846H436.853H436.86H436.866H436.873H436.88H436.887H436.893H436.9H436.907H436.914H436.92H436.927H436.934H436.941H436.947H436.954H436.961H436.967H436.974H436.981H436.988H436.994H437.001H437.008H437.015H437.021H437.028H437.035H437.042H437.048H437.055H437.062H437.069H437.075H437.082H437.089H437.096H437.102H437.109H437.116H437.123H437.129H437.136H437.143H437.15H437.156H437.163H437.17H437.177H437.183H437.19H437.197H437.204H437.211H437.217H437.224H437.231H437.238H437.244H437.251H437.258H437.265H437.271H437.278H437.285H437.292H437.299H437.305H437.312H437.319H437.326H437.332H437.339H437.346H437.353H437.36H437.366H437.373H437.38H437.387H437.393H437.4H437.407H437.414H437.421H437.427H437.434H437.441H437.448H437.454H437.461H437.468H437.475H437.482H437.488H437.495H437.502H437.509H437.516H437.522H437.529H437.536H437.543H437.549H437.556H437.563H437.57H437.577H437.583H437.59H437.597H437.604H437.611H437.617H437.624H437.631H437.638H437.644H437.651H437.658H437.665H437.672H437.678H437.685H437.692H437.699H437.706H437.712H437.719H437.726H437.733H437.74H437.746H437.753H437.76H437.767H437.773H437.78H437.787H437.794H437.801H437.807H437.814H437.821H437.828H437.835H437.841H437.848H437.855H437.862H437.868H437.875H437.882H437.889H437.896H437.902H437.909H437.916H437.923H437.93H437.936H437.943H437.95H437.957H437.963H437.97H437.977H437.984H437.991H437.997H438.004H438.011H438.018H438.025H438.031H438.038H438.045H438.052H438.058H438.065H438.072H438.079H438.086H438.092H438.099H438.106H438.113H438.119H438.126H438.133H438.14H438.147H438.153H438.16H438.167H438.174H438.18H438.187H438.194H438.201H438.207H438.214H438.221H438.228H438.235H438.241H438.248H438.255H438.262H438.268H438.275H438.282H438.289H438.295H438.302H438.309H438.316H438.322H438.329H438.336H438.343H438.349H438.356H438.363H438.37H438.376H438.383H438.39H438.397H438.403H438.41H438.417H438.424H438.43H438.437H438.444H438.451H438.457H438.464H438.471H438.478H438.484H438.491H438.498H438.505H438.511H438.518H438.525H438.531H438.538H438.545H438.552H438.558H438.565H438.572H438.579H438.585H438.592H438.599H438.605H438.612H438.619H438.626H438.632H438.639H438.646H438.652H438.659H438.666H438.673H438.679H438.686H438.693H438.699H438.706H438.713H438.719H438.726H438.733H438.74H438.746H438.753H438.76H438.766H438.773H438.78H438.786H438.793H438.8H438.806H438.813H438.82H438.826H438.833H438.84H438.846H438.853H438.86H438.866H438.873H438.88H438.886H438.893H438.9H438.906H438.913H438.92H438.926H438.933H438.94H438.946H438.953H438.96H438.966H438.973H438.98H438.986H438.993H439H439.006H439.013H439.019H439.026H439.033H439.039H439.046H439.053H439.059H439.066H439.073H439.079H439.086H439.092H439.099H439.106H439.112H439.119H439.125H439.132H439.139H439.145H439.152H439.158H439.165H439.172H439.178H439.185H439.191H439.198H439.205H439.211H439.218H439.224H439.231H439.238H439.244H439.251H439.257H439.264H439.27H439.277H439.284H439.29H439.297H439.303H439.31H439.316H439.323H439.329H439.336H439.343H439.349H439.356H439.362H439.369H439.375H439.382H439.388H439.395H439.401H439.408H439.414H439.421H439.427H439.434H440.688L440.642 214.338C440.178 201.566 439.622 189.072 439.158 179.632L439.102 178.482H437.951H437.673H436.53L436.466 179.623C435.909 189.484 435.353 201.702 434.797 214.329Z" fill="#90A8ED" stroke="black" stroke-width="2.41784"/>
<path d="M462.803 149.652C462.544 171.117 462.635 219.771 462.726 258.095L462.729 259.301H463.935C465.655 259.301 467.556 259.188 469.585 258.962V270.854C465.757 270.719 461.118 270.616 456.169 270.836C456.511 243.281 456.341 172.778 456.162 149.652H462.803Z" fill="#90A8ED" stroke="black" stroke-width="2.41784"/>
<path d="M474.884 270.899C475.061 239.92 475.06 177.209 474.882 135.109H490.071V148.436C488.526 148.325 487.249 148.259 486.158 148.208C485.955 148.198 485.759 148.189 485.57 148.18C484.458 148.128 483.571 148.087 482.767 148.015L481.45 147.898V149.219C481.45 152.703 481.428 158.051 481.406 163.528L481.404 163.917C481.381 169.527 481.358 175.227 481.358 179.147V180.422L482.631 180.354C484.013 180.28 485.463 180.238 486.777 180.2C486.988 180.193 487.196 180.187 487.399 180.181C488.129 180.159 488.825 180.137 489.422 180.107V193.834C487.652 193.705 484.941 193.606 482.474 193.606H481.27L481.265 194.809C481.172 215.181 481.172 236.771 481.265 256.62L481.271 257.823H482.474C484.846 257.823 487.574 257.69 490.534 257.309V270.899H474.884Z" fill="#90A8ED" stroke="black" stroke-width="2.41784"/>
<path d="M156.173 210.817L118.357 216.964C115.719 217.393 113.234 215.601 112.807 212.962L101.111 140.583C100.685 137.948 102.474 135.467 105.109 135.039L196.834 120.137L191.996 90.1824C191.571 87.5477 193.36 85.0665 195.994 84.6384L295.448 68.4758C298.086 68.0472 300.571 69.8389 300.998 72.4767L305.841 102.423L397.558 87.5148C400.196 87.0861 402.681 88.8782 403.108 91.5164L414.805 163.896C415.23 166.531 413.441 169.012 410.807 169.441L372.982 175.589L378.133 207.447C378.559 210.082 376.769 212.564 374.135 212.992L166.872 246.678C164.235 247.106 161.749 245.314 161.323 242.676L156.173 210.817Z" fill="#E2442F" stroke="black" stroke-width="2.41784" stroke-miterlimit="10"/>
<path d="M243.103 105.901L233.597 107.442L237.247 129.992L233.869 130.538L230.243 107.988L220.737 109.537L220.225 106.332L242.599 102.696L243.103 105.901Z" fill="black"/>
<path d="M250.157 127.888L246.027 102.142L249.182 101.628L251.123 113.619C251.41 112.317 252.089 111.135 253.069 110.233C254.048 109.33 255.281 108.752 256.599 108.576C260.415 107.963 263.207 110.108 263.851 114.083L265.676 125.379L262.48 125.892L260.779 115.334C260.291 112.361 258.54 111.061 255.897 111.483C253.114 111.938 251.305 114.795 251.892 118.365L253.345 127.375L250.157 127.888Z" fill="black"/>
<path d="M284.972 116.833C284.782 118.596 283.998 120.241 282.748 121.496C281.498 122.75 279.858 123.539 278.1 123.731C273.004 124.559 268.759 121.586 267.85 115.955C267.024 110.986 269.733 106.44 274.689 105.636C276.737 105.202 278.873 105.601 280.627 106.746C281.46 107.324 282.16 108.076 282.679 108.948C283.197 109.821 283.523 110.796 283.634 111.806C283.751 112.523 283.792 113.25 283.758 113.976L271.17 116.021C271.823 119.806 274.565 121.437 277.654 120.932C280.33 120.501 281.784 118.828 282.048 116.22L284.972 116.833ZM280.454 112.17L280.404 111.649C280 109.164 277.745 108.005 275.102 108.435C273.843 108.599 272.695 109.241 271.894 110.229C271.093 111.217 270.701 112.475 270.799 113.744L280.454 112.17Z" fill="black"/>
<path d="M140.29 161.403C139.929 162.713 139.188 163.887 138.159 164.773C137.17 165.692 135.97 166.352 134.666 166.694L133.518 163.523C137.226 162.504 139.53 159.978 139.836 156.31L142.661 155.846L146.79 181.593L143.602 182.114L140.29 161.403Z" fill="black"/>
<path d="M161.245 172.5L149.682 174.371L149.137 171.059C152.994 165.792 153.349 162.637 152.35 156.003L152.085 154.347L155.273 153.834L155.546 155.49C156.038 158.25 156.086 161.071 155.686 163.846C155.235 166.428 154.18 168.866 152.606 170.959L160.791 169.626L159.436 161.279L162.633 160.757L163.979 169.113L168.348 168.4L168.811 171.266L164.441 171.978L165.499 178.553L162.31 179.075L161.245 172.5Z" fill="black"/>
<path d="M177.773 150.14L187.297 148.591C195.44 147.266 200.858 151.904 202.089 159.515C203.278 166.868 199.496 173.038 191.459 174.338L181.92 175.895L177.773 150.14ZM184.81 172.251L190.98 171.249C196.96 170.28 199.636 165.651 198.736 160.061C197.753 154.032 193.78 150.711 187.817 151.68L181.647 152.682L184.81 172.251Z" fill="black"/>
<path d="M211.958 160.334C213.215 160.128 214.496 160.111 215.757 160.285L217.409 160.467L217.112 158.678C216.699 156.136 214.717 155.026 212.107 155.448C209.497 155.871 208.142 157.486 208.068 159.804L205.078 159.457C205.235 155.995 207.605 153.42 211.686 152.765C216.418 151.995 219.507 154.132 220.209 158.438L221.985 169.386L218.946 169.883L218.5 167.125C217.921 169.146 215.815 170.769 213.024 171.266C211.53 171.543 209.987 171.27 208.679 170.496C208.058 170.095 207.531 169.563 207.137 168.936C206.743 168.309 206.492 167.603 206.4 166.868C205.797 163.258 208.184 160.98 211.958 160.334ZM217.806 162.968L216.113 162.753C215.017 162.592 213.904 162.592 212.809 162.753C210.571 163.117 209.332 164.301 209.621 166.065C209.877 167.721 211.273 168.591 213.618 168.21C216.517 167.738 218.285 165.866 217.872 163.332L217.806 162.968Z" fill="black"/>
<path d="M237.86 148.906L230.699 175.407L227.321 175.953L230.079 165.734L220.994 151.656L224.447 151.093L231.178 161.775L234.482 149.461L237.86 148.906Z" fill="black"/>
<path d="M255.939 163.871L252.561 164.417L248.432 138.662L259.772 136.824C265.091 135.996 268.642 138.853 269.32 143.051C269.997 147.25 267.395 151.134 262.217 151.979L254.197 153.27L255.939 163.871ZM261.374 148.823C264.422 148.335 266.181 146.422 265.727 143.623C265.273 140.824 263.001 139.573 259.945 140.07L252.289 141.287L253.709 150.041L261.374 148.823Z" fill="black"/>
<path d="M276.273 142.67L276.677 145.205C276.877 144.259 277.368 143.4 278.081 142.749C278.794 142.098 279.692 141.688 280.65 141.577C281.276 141.455 281.92 141.463 282.542 141.599C283.165 141.735 283.753 141.997 284.271 142.369C284.789 142.742 285.226 143.216 285.555 143.763C285.884 144.31 286.098 144.919 286.184 145.552C286.297 146.206 286.331 146.87 286.283 147.532L283.194 148.037C283.192 147.599 283.161 147.162 283.103 146.728C282.839 145.113 281.617 144.294 279.89 144.575C277.941 144.89 276.909 146.637 277.289 148.997L279.089 160.103L275.934 160.616L273.109 143.184L276.273 142.67Z" fill="black"/>
<path d="M296.425 139.018C301.702 138.19 305.898 141.503 306.732 146.662C307.566 151.821 304.568 156.343 299.357 157.187C294.145 158.032 289.916 154.703 289.082 149.535C288.248 144.368 291.18 139.871 296.425 139.018ZM301.174 143.002C300.588 142.506 299.898 142.149 299.157 141.956C298.415 141.762 297.64 141.738 296.887 141.884C293.658 142.414 291.725 145.37 292.311 149.005C292.898 152.641 295.665 154.844 298.919 154.314C302.173 153.784 304.089 150.877 303.495 147.192C303.291 145.546 302.459 144.044 301.174 143.002V143.002Z" fill="black"/>
<path d="M315.902 135.847C317.119 135.619 318.375 135.74 319.527 136.194C320.68 136.647 321.681 137.417 322.419 138.414L320.569 126.936L323.757 126.422L327.886 152.169L324.839 152.666L324.401 149.569C323.977 150.736 323.247 151.768 322.288 152.555C321.328 153.342 320.175 153.855 318.95 154.041C314.143 154.827 310.22 151.722 309.352 146.389C308.485 141.056 311.186 136.617 315.902 135.847ZM316.959 138.621C314.135 139.085 311.838 141.933 312.474 145.809C313.11 149.685 316.109 151.556 318.975 151.092C321.684 150.654 324.104 147.921 323.476 144.02C322.848 140.12 319.668 138.182 316.968 138.621H316.959Z" fill="black"/>
<path d="M344.91 131.515L347.726 148.948L344.538 149.469L344.067 146.529C343.669 147.635 342.979 148.613 342.072 149.358C341.165 150.103 340.073 150.588 338.913 150.761C335.097 151.382 332.306 149.453 331.604 145.155L329.795 133.967L332.95 133.453L334.602 143.904C335.089 146.96 336.733 148.235 339.26 147.83C342.011 147.382 343.745 144.799 343.175 141.304L341.746 132.029L344.91 131.515Z" fill="black"/>
<path d="M364.947 138.298L367.945 138.911C367.664 143.482 364.922 146.538 360.561 147.242C355.093 148.128 350.823 145.047 349.931 139.532C349.713 138.368 349.73 137.173 349.98 136.016C350.23 134.859 350.709 133.763 351.388 132.795C352.067 131.826 352.932 131.004 353.933 130.376C354.934 129.748 356.05 129.327 357.216 129.139C361.437 128.451 364.815 130.281 366.301 134.107L363.551 135.49C363.19 134.262 362.379 133.215 361.281 132.561C360.182 131.907 358.878 131.693 357.629 131.963C354.953 132.401 352.368 135.043 353.02 139.06C353.116 139.882 353.374 140.676 353.781 141.396C354.187 142.117 354.733 142.748 355.386 143.253C356.04 143.759 356.787 144.128 357.585 144.34C358.383 144.551 359.215 144.6 360.032 144.484C363.402 143.912 364.782 141.685 364.947 138.298Z" fill="black"/>
<path d="M371.48 129.959L368.035 130.513L367.598 127.83L371.05 127.267L370.175 121.859L373.371 121.346L374.238 126.754L380.474 125.735L380.912 128.426L374.676 129.437L376.245 139.151C376.264 139.489 376.355 139.82 376.511 140.12C376.667 140.421 376.885 140.685 377.151 140.895C377.416 141.105 377.723 141.255 378.051 141.337C378.379 141.419 378.721 141.431 379.053 141.37C380.515 141.13 381.234 140.186 381.217 138.223L384.257 138.414C384.257 141.619 382.605 143.664 379.615 144.153C375.948 144.749 373.594 143.01 373.008 139.515L371.48 129.959Z" fill="black"/>
<path d="M199.95 207.083C202.775 206.627 204.856 205.534 206.194 203.77C207.568 201.869 208.341 199.599 208.416 197.253L211.579 197.981C211.207 204.043 207.383 209.045 200.454 210.172C192.756 211.497 186.57 206.536 185.471 199.017C184.166 191.638 188.924 184.715 196.208 183.688C199.33 183.183 201.99 183.58 204.129 184.897C206.275 186.186 207.967 188.114 208.969 190.412L206.111 192.309C204.567 188.334 201.222 186.048 196.712 186.777C191.467 187.605 188.032 192.267 189.031 198.445C190.03 204.847 194.523 207.969 199.95 207.083Z" fill="black"/>
<path d="M216.682 207.157L212.553 181.41L215.708 180.897L217.649 192.888C217.933 191.586 218.61 190.403 219.588 189.501C220.567 188.598 221.799 188.02 223.116 187.845C226.932 187.224 229.724 189.377 230.368 193.352L232.193 204.639L229.005 205.161L227.296 194.603C226.817 191.621 225.066 190.321 222.423 190.752C219.631 191.207 217.83 194.064 218.409 197.633L219.871 206.644L216.682 207.157Z" fill="black"/>
<path d="M240.758 192.632C242.012 192.425 243.29 192.408 244.549 192.582L246.201 192.764L245.936 190.975C245.523 188.433 243.541 187.323 240.931 187.746C238.321 188.168 236.967 189.791 236.892 192.102L233.902 191.762C234.059 188.3 236.43 185.725 240.51 185.062C245.242 184.292 248.331 186.429 249.034 190.735L250.793 201.658L247.753 202.155L247.307 199.397C246.729 201.418 244.615 203.041 241.831 203.497C240.338 203.782 238.792 203.508 237.487 202.726C236.865 202.326 236.339 201.794 235.945 201.167C235.551 200.54 235.299 199.834 235.207 199.099C234.596 195.489 236.975 193.211 240.758 192.632ZM246.605 195.265L244.912 195.05C243.816 194.894 242.704 194.894 241.608 195.05C239.37 195.414 238.123 196.598 238.42 198.404C238.676 200.019 240.072 200.888 242.418 200.54C245.317 200.076 247.084 198.197 246.671 195.663L246.605 195.265Z" fill="black"/>
<path d="M251.33 175.1L254.493 174.587L258.623 200.342L255.468 200.855L251.33 175.1Z" fill="black"/>
<path d="M259.217 173.816L262.372 173.311L266.502 199.058L263.346 199.571L259.217 173.816Z" fill="black"/>
<path d="M285.903 190.512C285.715 192.274 284.931 193.919 283.68 195.173C282.43 196.426 280.79 197.213 279.032 197.402C273.935 198.23 269.69 195.257 268.782 189.634C267.956 184.665 270.665 180.11 275.62 179.307C277.668 178.877 279.803 179.276 281.559 180.417C282.393 180.996 283.093 181.749 283.611 182.623C284.13 183.498 284.455 184.473 284.565 185.485C284.686 186.201 284.728 186.929 284.689 187.655L272.102 189.7C272.754 193.476 275.496 195.108 278.585 194.611C281.262 194.172 282.715 192.507 282.979 189.89L285.903 190.512ZM281.385 185.849L281.336 185.327C280.931 182.843 278.676 181.684 276.033 182.114C274.772 182.268 273.62 182.907 272.819 183.895C272.018 184.884 271.631 186.145 271.738 187.414L281.385 185.849Z" fill="black"/>
<path d="M290.24 195.207L287.424 177.767L290.579 177.253L291.033 180.085C291.459 178.996 292.164 178.039 293.078 177.312C293.992 176.585 295.082 176.113 296.237 175.945C299.945 175.34 302.753 177.336 303.414 181.419L305.248 192.748L302.051 193.269L300.399 182.893C299.904 179.845 298.186 178.495 295.691 178.901C293.048 179.332 291.331 181.767 291.876 185.112L293.42 194.677L290.24 195.207Z" fill="black"/>
<path d="M312.935 192.632C314.042 195.05 315.967 196.027 318.717 195.58C322.095 195.033 323.458 192.507 322.847 188.574L322.525 186.628C321.814 188.739 319.898 190.412 317.007 190.884C312.605 191.596 308.418 188.764 307.575 183.547C306.691 178.098 309.723 173.792 314.306 173.046C315.45 172.79 316.64 172.842 317.756 173.199C318.872 173.555 319.874 174.203 320.658 175.075L320.237 172.458L323.433 171.945L326.002 187.837C326.499 190.227 326.112 192.718 324.912 194.843C324.288 195.827 323.449 196.657 322.459 197.269C321.469 197.882 320.353 198.261 319.196 198.379C314.975 199.066 312.043 197.691 310.325 194.304L312.935 192.632ZM315.215 175.763C311.986 176.284 310.036 179.075 310.672 183.067C311.251 186.636 313.976 188.499 317.189 187.969C320.402 187.439 322.285 184.574 321.715 181.013C321.145 177.452 318.37 175.241 315.215 175.746V175.763Z" fill="black"/>
<path d="M345.551 180.814C345.365 182.577 344.583 184.223 343.334 185.478C342.086 186.733 340.446 187.522 338.688 187.713C333.592 188.541 329.338 185.568 328.43 179.936C327.604 174.968 330.321 170.421 335.277 169.618C337.325 169.184 339.461 169.583 341.215 170.728C342.048 171.305 342.748 172.056 343.265 172.93C343.782 173.803 344.106 174.778 344.213 175.787C344.335 176.504 344.376 177.232 344.337 177.957L331.758 180.003C332.403 183.787 335.153 185.419 338.234 184.913C339.411 184.796 340.506 184.253 341.314 183.386C342.123 182.519 342.589 181.387 342.628 180.201L345.551 180.814ZM341.034 176.152L340.992 175.63C340.588 173.146 338.333 171.986 335.69 172.417C334.431 172.581 333.283 173.223 332.482 174.21C331.681 175.198 331.289 176.456 331.387 177.725L341.034 176.152Z" fill="black"/>
<path d="M125.631 286.762L123.17 280.686L123.976 277.962C126.017 277.575 127.916 276.647 129.473 275.275C131.03 273.903 132.188 272.138 132.825 270.164C133.489 268.1 133.558 265.89 133.023 263.787C132.489 261.684 131.372 259.773 129.802 258.271L140.086 223.508C140.815 221.048 140.703 218.415 139.768 216.023C138.832 213.631 137.126 211.617 134.918 210.298L135.078 209.758C135.091 209.714 135.103 209.673 135.115 209.633C135.145 209.533 135.174 209.433 135.204 209.333C135.233 209.234 135.256 209.156 135.282 209.067C135.309 208.979 135.334 208.894 135.36 208.805C135.386 208.716 135.401 208.6 135.418 208.501C135.435 208.401 135.443 208.347 135.454 208.27C135.465 208.193 135.49 208.04 135.503 207.927C135.516 207.814 135.539 207.805 135.527 207.737C135.541 207.609 135.553 207.484 135.566 207.347C135.581 207.295 135.571 207.236 135.576 207.177C135.582 207.046 135.592 206.917 135.596 206.781L135.598 206.613C135.599 206.485 135.602 206.353 135.6 206.212C135.597 206.07 135.595 206.078 135.594 206.013L135.578 205.659L135.555 205.411C135.544 205.311 135.538 205.209 135.523 205.108C135.509 205.007 135.495 204.903 135.481 204.802C135.466 204.701 135.459 204.643 135.446 204.567C135.432 204.49 135.404 204.325 135.379 204.206L135.341 204.021C135.315 203.893 135.284 203.764 135.25 203.637L135.211 203.481L135.1 203.094C135.082 203.045 135.069 202.993 135.053 202.94L134.927 202.577L134.862 202.401L134.733 202.073C134.701 202.004 134.673 201.935 134.646 201.863L134.513 201.578C134.477 201.495 134.436 201.415 134.397 201.331L134.268 201.084L134.12 200.811L134.057 200.696L133.99 200.584L133.824 200.314L133.68 200.09L133.514 199.848L133.346 199.614C133.295 199.542 133.243 199.471 133.187 199.402L132.994 199.156L132.842 198.974L132.623 198.721L132.47 198.559L132.234 198.308L132.073 198.156C131.992 198.076 131.911 197.996 131.828 197.923C131.745 197.85 131.707 197.815 131.646 197.761C131.586 197.707 131.49 197.622 131.408 197.558L131.191 197.381L130.971 197.211L130.715 197.027L130.515 196.887L130.231 196.703L130.045 196.584L129.745 196.411L129.556 196.302L129.255 196.149L129.045 196.043L128.761 195.911L128.515 195.805L128.248 195.698C128.156 195.671 128.065 195.624 127.973 195.593C127.882 195.562 127.803 195.543 127.718 195.517L127.414 195.427L43.614 170.636C40.6668 169.764 37.4947 170.095 34.7957 171.558C32.0967 173.02 30.0917 175.493 29.222 178.433L10.6905 241.071C10.039 243.275 10.0608 245.624 10.753 247.817C11.4453 250.01 12.7765 251.948 14.5768 253.385L14.5648 253.425C13.695 256.365 14.0316 259.531 15.5006 262.226C16.9696 264.922 19.4506 266.926 22.3978 267.798L68.3631 281.397C68.1797 283.547 68.6031 285.706 69.5851 287.63C70.5672 289.554 72.0689 291.166 73.9202 292.283C75.901 293.48 78.1946 294.057 80.5055 293.942C82.8163 293.826 85.0387 293.022 86.8862 291.635L88.539 290.392L92.0654 299.673C93.1536 302.542 95.3387 304.864 98.1401 306.127C98.6198 306.343 99.1132 306.526 99.6171 306.677C102.044 307.394 104.639 307.3 107.004 306.407L118.997 301.886C120.44 301.342 121.759 300.516 122.877 299.457C123.995 298.397 124.89 297.125 125.508 295.715C126.124 294.306 126.452 292.789 126.473 291.252C126.494 289.715 126.208 288.188 125.631 286.762V286.762Z" fill="#81A4F6" stroke="black" stroke-width="2.41784" stroke-miterlimit="10"/>
<path d="M115.076 267.192L111.038 280.842L110.742 280.959L105.429 267.83C105.423 267.815 105.421 267.8 105.422 267.784C105.423 267.768 105.428 267.753 105.436 267.739C105.444 267.726 105.455 267.715 105.469 267.707C105.483 267.699 105.498 267.695 105.513 267.694L115.072 267.098L115.076 267.192Z" fill="black"/>
<path d="M128.952 220.287L116.639 261.904L116.35 262.257L109.108 256.345L109.266 256.151L120.606 217.818L128.952 220.287Z" fill="black"/>
<path d="M93.922 272.085L95.9457 277.417L95.7009 277.51L89.1148 275.561L93.7779 272.054C93.7901 272.046 93.804 272.04 93.8187 272.037C93.8334 272.034 93.8485 272.035 93.8629 272.039V272.039C93.8877 272.046 93.9089 272.063 93.922 272.085V272.085Z" fill="black"/>
<path d="M83.1291 262.551L81.385 273.266L81.331 273.258L25.6533 256.786L28.7022 246.481L82.8833 262.51L83.1291 262.551Z" fill="black"/>
<path d="M82.8853 262.51L28.7042 246.481L21.7811 244.433L36.975 193.075L40.3125 181.794L113.174 203.35L123.946 206.537L120.608 217.818L109.268 256.15" stroke="black" stroke-width="2.41784" stroke-linecap="round" stroke-linejoin="round"/>
<path d="M37.1973 193.141L109.836 214.631L120.527 217.794" stroke="black" stroke-width="2.41784" stroke-linecap="round" stroke-linejoin="round"/>
<path d="M109.836 214.631L112.988 203.975" stroke="black" stroke-width="2.41784" stroke-linecap="round" stroke-linejoin="round"/>
<path d="M109.836 214.631L116.664 210.712L123.946 206.537" stroke="black" stroke-width="2.41784" stroke-linecap="round" stroke-linejoin="round"/>
<path d="M81.3339 273.259L25.6563 256.787L28.7051 246.481L28.7598 246.296" stroke="black" stroke-width="2.41784" stroke-linecap="round" stroke-linejoin="round"/>
<path d="M95.7013 277.509L89.1152 275.561" stroke="black" stroke-width="2.41784" stroke-linecap="round" stroke-linejoin="round"/>
<path d="M115.076 267.192L111.038 280.842" stroke="black" stroke-width="2.41784" stroke-linecap="round" stroke-linejoin="round"/>
<path d="M112.988 203.975L116.663 210.712L120.526 217.794L120.607 217.818L128.953 220.287L116.64 261.904" stroke="black" stroke-width="2.41784" stroke-linecap="round" stroke-linejoin="round"/>
<path d="M44.4392 189.919C44.9179 190.061 45.4205 189.788 45.5617 189.311C45.703 188.833 45.4295 188.331 44.9508 188.19C44.4721 188.048 43.9695 188.32 43.8282 188.798C43.6869 189.275 43.9605 189.777 44.4392 189.919Z" stroke="black" stroke-width="2.41784" stroke-linecap="round" stroke-linejoin="round"/>
<path d="M50.2517 191.638C50.7304 191.78 51.233 191.508 51.3742 191.03C51.5155 190.552 51.242 190.051 50.7633 189.909C50.2846 189.767 49.782 190.04 49.6407 190.517C49.4994 190.995 49.773 191.497 50.2517 191.638Z" stroke="black" stroke-width="2.41784" stroke-linecap="round" stroke-linejoin="round"/>
<path d="M56.0622 193.358C56.5409 193.499 57.0435 193.227 57.1848 192.749C57.3261 192.272 57.0525 191.77 56.5738 191.628C56.0951 191.487 55.5925 191.759 55.4512 192.237C55.31 192.714 55.5835 193.216 56.0622 193.358Z" stroke="black" stroke-width="2.41784" stroke-linecap="round" stroke-linejoin="round"/>
<path d="M94.8454 244.699L109.124 256.349L116.366 262.261L121.787 266.678L115.086 267.106L105.527 267.702C105.512 267.703 105.496 267.707 105.483 267.715C105.469 267.723 105.458 267.734 105.449 267.748C105.441 267.761 105.437 267.776 105.436 267.792C105.434 267.808 105.437 267.823 105.443 267.838L110.755 280.967L114.879 291.156L102.873 295.669L95.9458 277.417L93.922 272.085C93.9165 272.071 93.908 272.058 93.897 272.048C93.8861 272.038 93.8731 272.03 93.8588 272.026V272.026C93.8444 272.022 93.8293 272.021 93.8146 272.024C93.7999 272.026 93.786 272.032 93.7738 272.041L89.1107 275.548L79.8937 282.465L81.406 273.268L83.1556 262.534L85.3787 248.906" stroke="black" stroke-width="2.41784" stroke-linecap="round" stroke-linejoin="round"/>
<path d="M85.3547 248.923L87.0784 238.358L94.8465 244.699C102.703 239.669 102.721 233.824 98.4184 230.188C93.1191 225.715 83.399 228.123 83.399 228.123C83.399 228.123 90.2641 212.98 69.3388 212.073C49.706 211.224 38.0376 222.451 39.9413 230.858C42.695 243.037 61.9919 238.704 61.9919 238.704C56.7867 249.653 73.3435 252.281 85.3547 248.923Z" stroke="black" stroke-width="2.41784" stroke-linecap="round" stroke-linejoin="round"/>
</g>
<defs>
<clipPath id="clip0_1511_24192">
<rect width="515" height="290" fill="white"/>
</clipPath>
</defs>
</svg>
