<svg xmlns:xlink="http://www.w3.org/1999/xlink" width="30" height="25" viewBox="0 0 30 25" fill="none" xmlns="http://www.w3.org/2000/svg">
<path d="M29.4254 0.298606C28.1446 1.20207 26.7264 1.89307 25.2256 2.34501C24.4201 1.41879 23.3495 0.762313 22.1587 0.464359C20.9679 0.166406 19.7143 0.241354 18.5675 0.679067C17.4207 1.11678 16.436 1.89614 15.7466 2.91174C15.0571 3.92734 14.6962 5.13017 14.7127 6.35756V7.69508C12.3622 7.75603 10.0331 7.23472 7.93283 6.17759C5.83257 5.12046 4.02635 3.56033 2.67504 1.63612C2.67504 1.63612 -2.67504 13.6738 9.36263 19.0239C6.60805 20.8937 3.32662 21.8312 0 21.6989C12.0377 28.3865 26.7504 21.6989 26.7504 6.31744C26.7491 5.94488 26.7133 5.57324 26.6434 5.2073C28.0084 3.86108 28.9718 2.16138 29.4254 0.298606Z" fill="#FFFFFF"></path>
</svg>