<svg xmlns:xlink="http://www.w3.org/1999/xlink" width="25" height="25" viewBox="0 0 25 25" fill="none" xmlns="http://www.w3.org/2000/svg">
<path d="M12.468 0.285156C5.83975 0.285156 0.465332 5.65717 0.465332 12.2825C0.465332 17.1939 3.42313 21.4144 7.65086 23.2729C7.61871 22.4374 7.64551 21.4304 7.85984 20.5199C8.09025 19.5451 9.40304 13.9803 9.40304 13.9803C9.40304 13.9803 9.01724 13.2144 9.01724 12.0843C9.01724 10.3061 10.046 8.97786 11.332 8.97786C12.4251 8.97786 12.9503 9.79732 12.9503 10.7775C12.9503 11.8754 12.2483 13.5143 11.8893 15.0354C11.5892 16.3102 12.527 17.3438 13.7862 17.3438C16.0581 17.3438 17.5906 14.4249 17.5906 10.9649C17.5906 8.33514 15.817 6.36951 12.5966 6.36951C8.9583 6.36951 6.68636 9.08498 6.68636 12.1164C6.68636 13.1609 6.99715 13.9 7.4794 14.4677C7.69909 14.7301 7.73124 14.8373 7.65086 15.1372C7.59192 15.3568 7.46332 15.887 7.40438 16.1013C7.32401 16.4066 7.07752 16.5137 6.80425 16.4012C5.12709 15.7156 4.34477 13.8839 4.34477 11.8165C4.34477 8.41013 7.2222 4.32354 12.9235 4.32354C17.5048 4.32354 20.5216 7.63887 20.5216 11.1952C20.5216 15.9031 17.9014 19.4166 14.0434 19.4166C12.7466 19.4166 11.5303 18.715 11.1124 17.9223C11.1124 17.9223 10.4158 20.686 10.2657 21.2216C10.0139 22.1481 9.51557 23.0694 9.06011 23.7924C10.1649 24.1182 11.3108 24.2841 12.4627 24.2852C19.0909 24.2852 24.4653 18.9131 24.4653 12.2878C24.4653 5.66253 19.0963 0.285156 12.468 0.285156Z" fill="#FFFFFF"></path>
</svg>