<svg xmlns:xlink="http://www.w3.org/1999/xlink" width="33" height="25" viewBox="0 0 33 25" fill="none" xmlns="http://www.w3.org/2000/svg">
<path d="M32.2197 5.58439C32.2197 2.77196 30.1507 0.509525 27.5941 0.509525C24.1312 0.347654 20.5995 0.285156 16.9903 0.285156H15.8651C12.2647 0.285156 8.72672 0.347654 5.26378 0.51015C2.71346 0.51015 0.644451 2.78509 0.644451 5.59751C0.488181 7.82183 0.421923 10.0468 0.425673 12.2717C0.419422 14.4966 0.490265 16.7237 0.6382 18.9528C0.6382 21.7652 2.70721 24.0464 5.25753 24.0464C8.89549 24.2151 12.6272 24.2901 16.4214 24.2839C20.2219 24.2964 23.9432 24.2172 27.5853 24.0464C30.1419 24.0464 32.2109 21.7652 32.2109 18.9528C32.361 16.7216 32.4297 14.4966 32.4235 12.2655C32.4376 10.0405 32.3697 7.81349 32.2197 5.58439ZM13.3648 18.4028V6.12187L22.4284 12.2592L13.3648 18.4028Z" fill="#FFFFFF"></path>
</svg>