<svg width="2170" height="296" viewBox="0 0 2170 296" fill="none" xmlns="http://www.w3.org/2000/svg">
<path d="M1289.45 0.00634766C1244.64 0.00634766 1200.82 40.5925 1195.78 99.2358V4.84084H1131.42V289.466H1196.57V151.696C1196.57 113.103 1223.92 58.6639 1289.45 58.6639V0.00634766Z" fill="white"/>
<path d="M1972.86 243.901V48.8989H2010.61C2060.93 48.8989 2101.82 80.3508 2101.82 144.827C2101.82 209.304 2060.93 243.901 2010.61 243.901H1972.86ZM1908.39 289.506H2018.47C2086.09 289.506 2169.44 245.473 2169.44 144.827C2169.44 45.7537 2086.09 4.86621 2018.47 4.86621H1908.39V289.506Z" fill="white"/>
<path d="M1661.68 147.972C1661.68 96.0763 1688.41 53.6162 1732.44 53.6162C1774.9 53.6162 1798.49 96.0763 1798.49 147.972C1798.49 199.868 1774.9 242.328 1732.44 242.328C1688.41 242.328 1661.68 199.868 1661.68 147.972ZM1595.63 151.117C1595.63 236.037 1639.66 295.796 1708.86 295.796C1759.18 295.796 1789.06 262.772 1804.78 209.303V289.506H1869.25V4.86574H1804.78V80.3504C1790.63 30.0273 1760.75 0.147949 1713.57 0.147949C1642.81 0.147949 1595.63 64.6244 1595.63 151.117Z" fill="white"/>
<path d="M127.38 295.796C47.1779 295.796 0 231.32 0 151.117C0 67.7696 51.8957 0.147949 150.969 0.147949C253.188 0.147949 287.785 69.3422 289.358 108.657H215.446C213.873 86.6407 195.002 53.6162 149.397 53.6162C100.646 53.6162 69.1942 96.0763 69.1942 147.972C69.1942 199.868 100.646 242.328 149.397 242.328C193.429 242.328 212.3 207.731 220.163 173.134H149.397V144.827H297.89V289.506H232.744V198.295C228.026 231.32 207.583 295.796 127.38 295.796Z" fill="white"/>
<path d="M429.968 295.797C368.637 295.797 330.895 254.909 330.895 173.134V4.86621H396.944V173.134C396.944 215.594 417.387 236.038 451.984 236.038C519.606 236.038 544.768 152.69 544.768 94.5042V4.86621H610.817V289.506H546.34V184.142C533.759 242.328 499.162 295.797 429.968 295.797Z" fill="white"/>
<path d="M1005.51 0C949.161 0 913.613 54.4352 902.009 104.767C900.025 37.3162 866.855 0 813.782 0C767.929 0 725.388 40.8913 714.339 105.581V4.84202H649.953V289.489H715.165V187.444C715.165 162.146 725.712 58.3278 791.359 58.3278C833.884 58.3278 838.318 96.6872 838.318 149.122V289.489H903.499V187.444C903.499 162.146 914.483 58.3278 980.129 58.3278C1022.62 58.3278 1027.01 96.6872 1027.01 149.122V289.489H1092.28V121.122C1092.58 40.349 1064.06 0 1005.51 0Z" fill="white"/>
<path d="M1429.36 0C1344.94 0 1287.73 66.1952 1287.73 147.899C1287.73 237.924 1342.14 295.795 1429.36 295.795C1513.78 295.795 1572 229.602 1572 147.899C1572 57.8736 1516.54 0 1429.36 0ZM1429.36 245.412C1380.21 245.412 1348.38 203.805 1348.38 147.899C1348.38 91.9923 1380.32 50.3831 1429.36 50.3831C1478.39 50.3831 1509.06 91.9923 1509.06 147.899C1509.06 203.805 1478.36 245.412 1429.36 245.412Z" fill="white"/>
</svg>
