<svg xmlns="http://www.w3.org/2000/svg" width="18" height="22"><path d="M 15.007 21.12 C 13.848 22.277 12.57 22.097 11.352 21.551 C 10.056 20.995 8.872 20.959 7.504 21.551 C 5.8 22.308 4.895 22.088 3.869 21.12 C -1.924 14.982 -1.069 5.632 5.515 5.28 C 7.112 5.368 8.23 6.189 9.171 6.257 C 10.569 5.964 11.907 5.126 13.404 5.236 C 15.202 5.386 16.546 6.116 17.444 7.429 C 13.746 9.717 14.622 14.733 18.019 16.141 C 17.339 17.978 16.467 19.793 15.005 21.135 Z M 9.043 5.214 C 8.87 2.486 11.018 0.242 13.489 0.022 C 13.829 3.168 10.71 5.522 9.043 5.214 Z" fill="rgb(0,0,0)"></path></svg>