<svg id="Layer_1" data-name="Layer 1" xmlns="http://www.w3.org/2000/svg" viewBox="0 0 256.1 273.04"><defs><style>.cls-1{fill:#ac8564;}.cls-2{fill:#fefcf8;}</style></defs><g id="_7fVBAB" data-name="7fVBAB"><path class="cls-1" d="M960.79,675.65c-38.3.72-76.61.64-114.92.45-14.44-.07-14.89-.67-14.3-15,.17-4.08,1.56-6.87,6.06-6.86,3.19,0,4-1.76,3.88-4.49-.07-2,0-4,0-6-.12-3.9,1.34-6.4,5.52-6.86,3.64-.39,5.19-2.56,5-6.16-.39-6.06,1.43-10.44,8.25-11.45,3.15-.47,2.84-3.28,2.85-5.58q0-22.74,0-45.47c0-22-.14-44,0-66,.36-47.59,29.88-85.64,74.61-96.39,58.82-14.15,117.11,29.49,118.77,89.9,1,38.45.29,77,.29,115.42,0,4.43-.74,8.86,6.15,8.68,2.9-.08,3.77,2.88,3.94,5.54.13,2,0,4,.21,6,.3,3.14,1.69,5.41,5.24,5.53,4.46.15,6.1,2.76,6.07,6.87,0,1.83,0,3.67,0,5.5-.07,2.84.68,4.79,4,5.06,3.68.28,5,2.78,5,6.23,0,16,1.4,14.66-13.77,15-36.47.87-73,.73-109.42,0C963.12,675.63,962,675.65,960.79,675.65Z" transform="translate(-831.42 -403.19)"/><path class="cls-2" d="M1034.69,559.73c0-17-.08-33.94.08-50.92,0-2.37-1.83-6.61,2.73-6.58,4.31,0,4.1,4,4.09,7.2v61.9c0,14.31,0,28.62,0,42.92,0,2.21.69,5.07-3,5.07-3.48,0-3.87-2.49-3.87-5.18Z" transform="translate(-831.42 -403.19)"/><path class="cls-2" d="M889.5,553.72c0-17.83-.07-35.65,0-53.48.18-35.64,26.93-66.27,61-70,37.76-4.11,70.36,18.79,78.44,55.11a70.2,70.2,0,0,1,1.6,15.37q-.09,54.74-.12,109.46c0,8.2-8.13,12.66-15.41,8.5-2.8-1.61-2.68-4.34-2.68-7q0-35.49,0-71c0-1.34,0-2.67-.05-4s-.6-2.73-2.31-2.66c-1.5.05-1.73,1.34-1.78,2.54-.07,1.5-.06,3-.06,4.5q0,35.49,0,71c0,1.5,0,3-.14,4.5-.19,2.38-1.78,2.89-3.86,2.86s-2.9-1.28-2.95-3.19c-.05-1.49-.07-3-.07-4.49q0-30.5,0-61a39.41,39.41,0,0,0-.21-4.48,1.88,1.88,0,0,0-1.92-1.9,2,2,0,0,0-1.93,1.93,39.3,39.3,0,0,0-.2,4.48q0,30.24,0,60.48c0,1.49,0,3-.08,4.49-.1,2.11-1.08,3.47-3.34,3.57s-3.28-1.3-3.42-3.39c-.1-1.33-.08-2.67-.08-4V563.44c0-1.33.05-2.67,0-4-.1-1.59.22-3.82-2.16-3.68s-1.94,2.31-2,3.94c0,1.17,0,2.33,0,3.5q0,24,0,48a28,28,0,0,1-.19,4.49c-.37,2.23-1.77,3.63-4.1,3.54-2.54-.1-2.67-2.12-2.68-4,0-12.16.06-24.32-.1-36.48,0-2.18,1.49-6.09-1.86-6.2-3.66-.13-2.09,3.85-2.12,6-.17,11.83-.08,23.66-.08,35.49,0,2.53.29,5.28-3.47,5.36s-3.47-2.76-3.48-5.24c0-10.16,0-20.33,0-30.49,0-1.66.66-4.27-2.1-4.18s-1.92,2.68-1.93,4.34c-.07,10.16,0,20.33-.06,30.49,0,2.05.59,4.84-2.68,4.89s-4.25-2.23-4.26-5c0-9.49,0-19,0-28.49,0-1.33,0-2.66-.07-4s-.62-2.31-2.09-2.28-1.82,1.22-1.89,2.43-.08,2.33-.08,3.5c0,8.49,0,17,0,25.49a18.85,18.85,0,0,1-.48,4.93c-.55,2-1.72,3.82-4.2,3.43s-2.22-2.57-2.22-4.37q0-18,0-36c0-1.34,0-2.67-.08-4-.09-1.49-.72-2.67-2.41-2.51s-1.55,1.53-1.63,2.68-.06,2.33-.06,3.49c0,11.33.08,22.66-.07,34,0,2.63,1.55,6.72-3.34,6.86s-3.53-4-3.55-6.62c-.12-16.82-.06-33.65-.07-50.48,0-1.33,0-2.66-.08-4s-.51-2.49-1.89-2.57c-1.74-.1-2.1,1.36-2.22,2.74s-.08,2.66-.08,4q0,25,0,50a29.05,29.05,0,0,1-.24,4.48c-.33,2-1.85,2.58-3.71,2.5a2.69,2.69,0,0,1-2.83-2.83c-.1-1.49-.12-3-.12-4.49q0-30,0-60c0-1.33.09-2.67,0-4-.16-1.69.49-4.3-2.15-4.22s-2,2.63-2,4.37q0,31.72,0,63.47c0,1.5,0,3-.06,4.5s-.65,3-2.53,3.11a3.54,3.54,0,0,1-3.71-2c-1-1.88-.69-3.91-.69-5.9q0-35.73,0-71.47c0-1.33,0-2.66-.07-4a1.73,1.73,0,0,0-1.82-1.9,2,2,0,0,0-2.09,1.77,35.18,35.18,0,0,0-.16,4.48q0,34.49,0,69c0,6.11-2.46,9.31-7.47,10.06-8.32,1.24-10.55-.68-10.55-9.1V553.72ZM960.05,659c-38.45,0-76.9-.68-115.35-.68-7.07,0-8.35,1.69-7.6,8.67.66,6.11,5.13,4.63,8.64,4.62,75.24-.29,150.48-1,225.72,0,2.16,0,4.32-.11,6.48-.26,2.72-.2,4.1-1.66,4.4-4.45.67-6.33-.43-7.69-6.93-7.69m-114.35-5.25c23.3,0,46.27-.4,69.57-.3,12.48.06,25,.27,37.44.71,4.84.18,6.17-2.14,6-6.32-.23-5.14-2.3-7-8.13-6.83-50.59,1.2-101.19,1-151.79.76-20.31-.12-40.61-.54-60.91-.77-1.9,0-4.11-.68-5.38,1.57-3.1,5.48.37,11.66,6.52,11.66m8.71-30.71c-2.92-.07-5.65-.19-5.74,4.17-.14,6.43.74,8.46,5.25,8.91a70.94,70.94,0,0,0,8,.12c47.43-.39,94.87-.71,142.31-.19,14.31.16,28.63.11,42.94.21,3.94,0,6.87-.89,7.2-5.59.45-6.23-.72-7.64-7.21-7.64q-47.94,0-95.87,0C927.65,624.61,895.36,624.48,863.08,623.71Zm8.22-126c3.53.41,3.05-2.76,3.22-5,3.05-38.8,33.9-72,72-77.36,41.3-5.87,79.88,16.69,94,54.95a84.37,84.37,0,0,1,5,22.83c.17,2.3.48,4.74,3.33,4.61s3.72-2.42,3.57-5.06c0-.66-.09-1.33-.16-2A92.7,92.7,0,0,0,941,409.45c-39.44,8.08-69.45,41.36-73.32,82.56C867.31,494.59,868.06,497.33,871.3,497.69Zm163.09-5c.34,2.92.72,5.56,4.39,5.28s2.71-3.2,2.52-5.38c-3.31-37-32.69-68.1-69.08-73.17-38.76-5.41-75.34,16.16-88.71,52.27A81.28,81.28,0,0,0,878.62,494c-.11,1.46-.44,3.25,1.53,3.72,1.56.37,2.92-.49,4-1.62,1.37-1.43,1.35-3.31,1.62-5.13,5.77-38.43,36.64-65.69,74.33-65.65C998.34,425.39,1029.87,453.93,1034.39,492.68ZM878.47,614.3c0,2.23-.61,5,3.06,5.05s3.8-2.54,3.81-5.17q0-53.7,0-107.41c0-2.78-.49-5-4-5-3.86.08-2.86,3-2.87,5.09-.06,17.82,0,35.64,0,53.45Q878.45,587.34,878.47,614.3Zm167.27-1.62c0,1.33,0,2.67.12,4a2.67,2.67,0,0,0,3,2.69c1.63,0,3.07-.49,3.5-2.18a15.86,15.86,0,0,0,.3-4q0-52.19,0-104.37a19.4,19.4,0,0,0-.25-4,3.38,3.38,0,0,0-3.58-2.85c-2.11,0-2.84,1.47-3,3.29-.1,1.32-.07,2.66-.07,4V612.68ZM874.24,506.59c0-1.82.69-4.48-2.45-4.47-2.48,0-3.91,1.72-4.25,4.13a33.58,33.58,0,0,0-.14,4.49q0,51,0,101.9c0,1.17,0,2.34.05,3.5,0,1.67.68,3,2.52,3.15s3.41-.46,3.86-2.36a21.48,21.48,0,0,0,.44-4.94q0-26,0-52C874.27,542.22,874.3,524.4,874.24,506.59Z" transform="translate(-831.42 -403.19)"/><path class="cls-1" d="M992.77,501.07c.12,4.7-1.93,8.25-6.35,9.69-2.44.79-3.17,2-3,4.19a.93.93,0,0,1-.06.5c-3.44,6.68-4.94,13.9-5.92,21.27a3.5,3.5,0,0,1-.82,1.8c-5.27,5.79-10.29,11.85-16,17.16-3,2.76-7.17,2.39-10.63-.25a8.67,8.67,0,0,1-2.91-10.74c1.21-3,1-4.86-1.72-6.46a2.81,2.81,0,0,1-.67-.74c-2.72-3.24-3-7.11-3.59-11.12-.57-3.63-6.45-3-7.67-7.31-1.09-3.82-.42-7.11.94-10.63a19.44,19.44,0,0,0-1.26-17.28,10.4,10.4,0,0,1,5.87-15,19.6,19.6,0,0,0,7.18-4.11,9.57,9.57,0,0,1,9.75-2.3c2.43.79,3.21,0,3.72-2.28a33,33,0,0,1,6.64-13.28c.94-1.19,2.12-2.65,3.69-1.49s.6,2.68-.31,3.95a37,37,0,0,0-6.85,16.94c-.18,1.44-.77,3.26.51,4.25s2.35-.65,3.48-1.2c5.17-2.56,11.79,0,14.38,6a11.53,11.53,0,0,0,5,5.86C990.81,491.2,992.69,495.73,992.77,501.07Zm-21.84,21.76c-2.91-1.08-5.08.79-6.92,2.73a13.46,13.46,0,0,0-3.79,8.42c-.23,3.17.4,6,3.78,7.28,3.56,1.34,6.12-.3,8.06-3.1a13.05,13.05,0,0,0,2.53-8C974.59,526.81,974,524,970.93,522.83Zm-14.71-27.46c-.08-3.09-3.63-5.86-7.51-5.85-4.8,0-9.69,4.24-9.6,8.31.07,3.58,3.56,7.12,7,7.12C950.29,504.94,956.31,499.23,956.22,495.37Zm-5.86,19.07c0,1.32-.1,2.65,0,4,.39,3.94,3.55,7.16,6.69,6.48,3.92-.86,5.84-3.5,5.46-7.61a13.77,13.77,0,0,0-5.27-9.73c-2.86-2.3-6.39-.72-6.79,2.94a37.35,37.35,0,0,0,0,4Zm16-20.18c-3.4,0-6.28,3.32-6.53,7.5-.22,3.7,2.91,5.41,4.87,7.68,3,3.5,6.24,2.66,7.56-1.76a19.82,19.82,0,0,0,.5-3.72C972.73,497.83,970.17,494.23,966.34,494.26Zm15.48-2.93c-4.4.29-5,3.81-5.11,7.21-.21,4.65,3.3,9,7,8.62s4.95-2.85,4.94-6.25C988.68,496,985.35,491.09,981.82,491.33Zm-28.75-17.94c-3.3.06-7.14,3.47-7.27,6.45-.14,3.2,4.52,6.66,8.8,6.47,4-.18,4.63-3.09,5-5.63C959.56,476.27,956.7,473.32,953.07,473.39Zm-2.47,74.78c-.09,3.15,1.8,4.92,4.95,5s6.74-3.75,6.8-6.87c0-1.72-5-6.69-7.06-6.61A10,10,0,0,0,950.6,548.17Zm16.12-66.53c-.84,1.51.42,2.37,1.24,3.4a23.81,23.81,0,0,1,2.41,3.71c.79,1.51.3,4.26,2.56,4.28,2.52,0,3.84-2.35,4.8-4.48,1.53-3.4-2.6-8.8-7-9C969.26,479.66,967.62,480,966.72,481.64ZM942.1,508.56c-3.88.19-5.3,3.08-5.28,6.49,0,2.86,1.3,5.38,4.67,5.12,4.07-.32,4.4-3.78,4.94-6.3C946.55,510.29,945.05,508.41,942.1,508.56Zm3.6,16.65c-1.32,2.69.62,9.12,3.24,10.74s6.79-.22,7-2.89c.11-1.44-7.42-9.12-9.19-9C946.28,524,946,524.6,945.7,525.21Zm19.63-7.71c3.53.76,5.63.79,7.31,1.64,4.38,2.22,5.69-.44,6.51-3.8.62-2.51,0-4.83-2.6-7.09C975.19,513.52,970.91,515.5,965.33,517.5Zm-25.19-37c-2.94-.09-3.85,2.71-4.28,5.21-.25,1.48,0,3.41,1.87,3.45,2.43.06,4.2-1.45,5.18-4.09C941.94,483.57,942.58,480.57,940.14,480.49Zm22.73,6.14c-2,.14-2.88,2-3.27,3.73-.21,1,.58,1.5,1.55,1,1.51-.74,3.44-.69,4.62-2.09C965.2,487.68,964.1,486.55,962.87,486.63Z" transform="translate(-831.42 -403.19)"/></g></svg>