<svg xmlns="http://www.w3.org/2000/svg" width="40" height="40"><g transform="translate(4 6)"><path d="M 14 20.222 C 17.436 20.222 20.222 17.436 20.222 14 C 20.222 10.564 17.436 7.778 14 7.778 C 10.564 7.778 7.778 10.564 7.778 14 C 7.778 17.436 10.564 20.222 14 20.222 Z" fill="transparent" stroke-width="2.5" stroke="rgb(240, 189, 102)" stroke-linecap="round" stroke-linejoin="round" stroke-dasharray=""></path><path d="M 24.889 0 L 3.111 0 C 1.393 0 0 1.393 0 3.111 L 0 24.889 C 0 26.607 1.393 28 3.111 28 L 24.889 28 C 26.607 28 28 26.607 28 24.889 L 28 3.111 C 28 1.393 26.607 0 24.889 0 Z" fill="transparent" stroke-width="2.5" stroke="rgb(240, 189, 102)" stroke-linecap="round" stroke-linejoin="round" stroke-dasharray=""></path></g></svg>