<svg xmlns="http://www.w3.org/2000/svg" width="40" height="40"><path d="M 5.608 21.891 C 5.506 21.891 5.506 21.891 5.402 21.88 C 4.27 21.755 3.444 20.632 3.557 19.373 L 4.647 6.062 C 4.757 4.894 5.642 4 6.7 4 L 14.68 4 C 14.909 4 15.134 4.043 15.35 4.125 C 16.427 4.536 16.999 5.838 16.629 7.034 L 13.965 14.374 L 18.878 14.374 C 19.241 14.374 19.597 14.481 19.912 14.683 C 20.895 15.32 21.231 16.722 20.659 17.812 C 19.919 19.271 12.47 31.787 10.063 35.826 C 9.872 36.148 9.382 35.991 9.402 35.617 L 10.21 21.88 L 5.609 21.891 Z" fill="transparent" stroke-width="2.5" stroke="rgb(240,189,102)" stroke-linecap="round" stroke-linejoin="round" stroke-dasharray=""></path></svg>