<?xml version="1.0" encoding="UTF-8"?>
<svg width="12px" height="20px" viewBox="0 0 12 20" version="1.1" xmlns="http://www.w3.org/2000/svg" xmlns:xlink="http://www.w3.org/1999/xlink">
    <title>Path</title>
    <g id="Page-1" stroke="none" stroke-width="1" fill="none" fill-rule="evenodd" stroke-linecap="round" stroke-linejoin="round">
        <g id="source_icons_flash" transform="translate(1.273435, 1.000000)" stroke="#F0BD66" stroke-width="1.5">
            <path d="M1.15252529,10.0064 C1.09509529,10.0053 1.09509529,10.0053 1.03785529,10 C0.404535293,9.9296 -0.0575247072,9.3021 0.00580529283,8.5983 L0.616105293,1.1532 C0.675015293,0.49854 1.17076529,0 1.76282529,0 L6.22566529,0 C6.35316529,0 6.47976529,0.0235 6.60026529,0.06956 C7.20216529,0.29947 7.52236529,1.02807 7.31546529,1.69693 L5.82646529,5.80233 L8.57306529,5.80235 C8.77626529,5.80235 8.97586529,5.86206 9.15166529,5.97543 C9.70206529,6.33051 9.88926529,7.1142 9.56976529,7.7259 C9.15526529,8.5409 4.98976529,15.5413 3.64366529,17.8004 C3.53656529,17.9802 3.26226529,17.8921 3.27446529,17.6831 L3.72516529,10 L1.15252529,10.0064 Z" id="Path"></path>
        </g>
    </g>
</svg>