<svg xmlns="http://www.w3.org/2000/svg" width="40" height="40"><path d="M 19.125 5.12 C 19.125 5.461 19.164 5.764 19.278 6.104 C 19.393 6.52 19.509 6.899 19.624 7.315 C 19.696 7.598 19.632 7.898 19.452 8.128 C 19.271 8.358 18.994 8.49 18.702 8.488 L 12.667 8.488 C 11.514 8.488 10.552 9.397 10.552 10.57 L 10.552 16.474 C 10.553 16.76 10.422 17.031 10.197 17.208 C 9.972 17.386 9.678 17.45 9.4 17.383 C 8.981 17.305 8.57 17.191 8.17 17.042 C 7.574 16.839 6.929 16.825 6.325 17.003 C 5.22 17.269 4.358 18.133 4.094 19.239 C 3.595 21.319 5.132 23.136 7.169 23.136 C 7.516 23.136 7.863 23.098 8.17 22.984 C 8.593 22.87 8.977 22.758 9.4 22.644 C 9.683 22.569 9.984 22.629 10.217 22.807 C 10.45 22.984 10.588 23.259 10.591 23.551 L 10.591 29.457 C 10.591 30.591 11.514 31.537 12.706 31.537 L 18.7 31.537 C 19.315 31.537 19.777 32.106 19.623 32.673 C 19.546 33.09 19.431 33.468 19.278 33.885 C 19.072 34.47 19.058 35.106 19.239 35.7 C 19.509 36.798 20.392 37.632 21.507 37.896 C 23.622 38.426 25.467 36.875 25.467 34.869 C 25.467 34.529 25.428 34.224 25.313 33.885 C 25.197 33.468 25.082 33.09 24.966 32.673 C 24.894 32.39 24.958 32.089 25.139 31.86 C 25.32 31.63 25.596 31.497 25.889 31.5 L 31.886 31.5 C 33.038 31.5 33.999 30.591 33.999 29.418 L 33.999 23.59 C 33.996 23.298 33.858 23.023 33.625 22.845 C 33.393 22.668 33.092 22.607 32.808 22.681 C 32.423 22.756 32.078 22.87 31.731 22.984 C 31.424 23.098 31.077 23.134 30.732 23.134 C 28.733 23.134 27.158 21.282 27.657 19.237 C 27.927 18.139 28.772 17.306 29.886 17.003 C 30.54 16.853 31.155 16.891 31.731 17.042 C 32.076 17.155 32.462 17.269 32.808 17.345 C 33.423 17.495 33.96 17.042 33.96 16.436 L 33.96 10.532 C 33.96 9.397 33.038 8.45 31.847 8.45 L 25.889 8.45 C 25.274 8.45 24.812 7.883 24.966 7.315 C 25.043 6.899 25.158 6.52 25.311 6.104 C 25.505 5.575 25.542 4.931 25.35 4.287 C 25.08 3.189 24.197 2.357 23.082 2.091 C 21.007 1.599 19.122 3.152 19.122 5.12 Z" fill="transparent" stroke-width="2.5" stroke="rgb(240,189,102)" stroke-miterlimit="10" stroke-dasharray=""></path></svg>