<?xml version="1.0" encoding="UTF-8"?>
<svg width="22px" height="26px" viewBox="0 0 22 26" version="1.1" xmlns="http://www.w3.org/2000/svg" xmlns:xlink="http://www.w3.org/1999/xlink">
    <title>Path</title>
    <g id="Page-1" stroke="none" stroke-width="1" fill="none" fill-rule="evenodd">
        <path d="M11.0829108,3.07977602 C11.0829108,3.30685834 11.1085364,3.50870928 11.185413,3.7357916 C11.2622897,4.01333665 11.3391664,4.26565033 11.416043,4.54319538 C11.5185452,4.94689728 11.2110386,5.3253678 10.8010297,5.3253678 L6.77781786,5.3253678 C6.00905126,5.3253678 5.36841242,5.93092064 5.36841242,6.71309306 L5.36841242,10.6491865 C5.36841242,11.0528884 4.98402912,11.3556648 4.59964582,11.2547393 C4.31776473,11.2042766 4.0615092,11.1285825 3.77962811,11.027657 C3.42087037,10.9015002 2.98523596,10.8762688 2.54960155,11.0024257 C1.8064605,11.1790452 1.24269833,11.7593667 1.06331945,12.4910764 C0.730187258,13.8788016 1.75520939,15.0899073 3.11336372,15.0899073 C3.34399371,15.0899073 3.57462369,15.064676 3.77962811,14.9889818 C4.0615092,14.9132877 4.31776473,14.8375936 4.59964582,14.7618995 C5.00965468,14.6609741 5.39403798,14.9637505 5.39403798,15.3674524 L5.39403798,19.3035458 C5.39403798,20.0604869 6.00905126,20.6912711 6.80344341,20.6912711 L10.8010297,20.6912711 C11.2110386,20.6912711 11.5185452,21.0697416 11.416043,21.4482121 C11.3647919,21.7257572 11.2879153,21.9780709 11.185413,22.2556159 C11.0572853,22.6088551 11.0316597,23.0377883 11.1597875,23.4667216 C11.3391664,24.1984313 11.9285541,24.7535214 12.6716951,24.9301409 C14.0811006,25.2833801 15.3111271,24.248894 15.3111271,22.9116315 C15.3111271,22.6845492 15.2855016,22.4826982 15.2086249,22.2556159 C15.1317483,21.9780709 15.0548716,21.7257572 14.977995,21.4482121 C14.8754927,21.0445102 15.1829994,20.6660397 15.5930082,20.6660397 L19.5905946,20.6660397 C20.3593612,20.6660397 21,20.0604869 21,19.2783145 L21,15.3926837 C21,14.9889818 20.6156167,14.6862054 20.2056078,14.7871309 C19.9493523,14.8375936 19.7187223,14.9132877 19.4880923,14.9889818 C19.2830879,15.064676 19.0524579,15.0899073 18.821828,15.0899073 C17.4892992,15.0899073 16.4386515,13.8535703 16.7717837,12.4910764 C16.9511626,11.7593667 17.5149247,11.2042766 18.2580658,11.0024257 C18.6937002,10.9015002 19.103709,10.9267316 19.4880923,11.027657 C19.7187223,11.1033511 19.9749779,11.1790452 20.2056078,11.229508 C20.6156167,11.3304334 20.9743744,11.027657 20.9743744,10.6239551 L20.9743744,6.68786169 C20.9743744,5.93092064 20.3593612,5.30013643 19.564969,5.30013643 L15.5930082,5.30013643 C15.1829994,5.30013643 14.8754927,4.92166591 14.977995,4.54319538 C15.0292461,4.26565033 15.1061227,4.01333665 15.2086249,3.7357916 C15.3367527,3.38255244 15.3623783,2.95361918 15.2342505,2.52468592 C15.0548716,1.79297624 14.4654839,1.23788614 13.7223428,1.06126656 C12.3385629,0.733258775 11.0829108,1.76774487 11.0829108,3.07977602 Z" id="Path" stroke="#F0BD66" stroke-width="1.5" fill-rule="nonzero"></path>
    </g>
</svg>