<svg xmlns="http://www.w3.org/2000/svg" width="40" height="37"><g transform="translate(5 4)"><path d="M 14.999 18.499 L 17.249 20.749 M 6.75 14.749 C 6.75 17.234 8.764 19.249 11.249 19.249 C 13.735 19.249 15.749 17.234 15.749 14.749 C 15.749 12.264 13.735 10.249 11.249 10.249 C 8.764 10.249 6.75 12.264 6.75 14.749 Z" fill="transparent" stroke-width="2.5" stroke="rgb(240, 189, 102)" stroke-linecap="round" stroke-linejoin="round" stroke-dasharray=""></path><path d="M 0 29.099 L 0 0.9 C 0 0.403 0.403 0 0.9 0 L 18.377 0 C 18.616 0 18.844 0.095 19.013 0.264 L 23.735 4.986 C 23.904 5.155 23.999 5.385 23.999 5.625 L 23.999 29.099 C 23.999 29.596 23.596 29.998 23.099 29.998 L 0.9 29.998 C 0.403 29.998 0 29.596 0 29.099 Z" fill="transparent" stroke-width="2.5" stroke="rgb(240, 189, 102)" stroke-linecap="round" stroke-linejoin="round" stroke-dasharray=""></path></g></svg>