<svg xmlns="http://www.w3.org/2000/svg" width="40" height="40"><path d="M 31.323 20.217 L 21.042 20.217 L 21.042 16.813 C 21.042 16.315 20.639 15.913 20.143 15.913 L 20.142 15.913 C 19.645 15.913 19.242 16.316 19.242 16.813 L 19.242 20.217 L 8.437 20.217 C 7.733 20.217 7.162 20.788 7.162 21.492 L 7.162 25.422 C 7.162 25.919 7.565 26.321 8.062 26.321 C 8.559 26.321 8.961 25.919 8.961 25.422 L 8.961 22.017 L 19.242 22.017 L 19.242 25.422 C 19.242 25.919 19.645 26.322 20.142 26.322 L 20.143 26.322 C 20.64 26.322 21.042 25.919 21.042 25.422 L 21.042 22.017 L 31.323 22.017 L 31.323 25.422 C 31.323 25.919 31.726 26.321 32.223 26.321 C 32.72 26.321 33.123 25.919 33.123 25.422 L 33.123 21.492 C 33.123 20.788 32.552 20.217 31.848 20.217 Z M 10.137 28.539 L 5.986 28.539 C 4.968 28.539 4.142 29.365 4.142 30.383 L 4.142 34.534 C 4.142 35.552 4.968 36.378 5.986 36.378 L 10.137 36.378 C 11.155 36.378 11.981 35.552 11.981 34.534 L 11.981 30.383 C 11.981 29.365 11.155 28.539 10.137 28.539 Z M 9.031 34.577 L 7.091 34.577 C 6.457 34.577 5.942 34.063 5.942 33.428 L 5.942 31.488 C 5.942 30.854 6.457 30.339 7.091 30.339 L 9.031 30.339 C 9.666 30.339 10.18 30.854 10.18 31.488 L 10.18 33.428 C 10.181 33.733 10.06 34.025 9.844 34.241 C 9.629 34.456 9.336 34.577 9.031 34.577 Z M 22.217 28.539 L 18.066 28.539 C 17.048 28.539 16.222 29.365 16.222 30.383 L 16.222 34.534 C 16.222 35.552 17.048 36.378 18.066 36.378 L 22.217 36.378 C 23.236 36.378 24.061 35.552 24.061 34.534 L 24.061 30.383 C 24.061 29.894 23.867 29.425 23.521 29.079 C 23.175 28.733 22.706 28.539 22.217 28.539 Z M 21.112 34.577 L 19.172 34.577 C 18.537 34.577 18.023 34.063 18.023 33.428 L 18.023 31.488 C 18.023 30.854 18.537 30.339 19.172 30.339 L 21.112 30.339 C 21.747 30.339 22.261 30.854 22.261 31.488 L 22.261 33.428 C 22.261 34.063 21.747 34.577 21.112 34.577 Z M 34.298 28.539 L 30.147 28.539 C 29.129 28.539 28.303 29.365 28.303 30.383 L 28.303 34.534 C 28.303 35.552 29.129 36.378 30.147 36.378 L 34.298 36.378 C 35.316 36.378 36.142 35.552 36.142 34.534 L 36.142 30.383 C 36.142 29.365 35.316 28.539 34.298 28.539 Z M 33.193 34.577 L 31.253 34.577 C 30.618 34.577 30.104 34.063 30.104 33.428 L 30.104 31.488 C 30.104 30.854 30.618 30.339 31.253 30.339 L 33.193 30.339 C 33.827 30.339 34.342 30.854 34.342 31.488 L 34.342 33.428 C 34.342 34.063 33.827 34.577 33.193 34.577 Z M 25.376 3.5 L 14.908 3.5 C 13.681 3.5 12.686 4.495 12.686 5.722 L 12.686 11.475 C 12.686 12.702 13.681 13.696 14.908 13.696 L 25.376 13.696 C 26.603 13.696 27.598 12.702 27.598 11.475 L 27.598 5.722 C 27.598 4.495 26.603 3.5 25.376 3.5 Z M 24.649 11.896 L 15.635 11.896 C 15.001 11.896 14.486 11.382 14.486 10.747 L 14.486 6.449 C 14.486 5.815 15.001 5.3 15.635 5.3 L 24.649 5.3 C 25.283 5.3 25.798 5.815 25.798 6.449 L 25.798 10.747 C 25.798 11.382 25.283 11.896 24.649 11.896 Z" fill="rgb(240, 189, 102)"></path></svg>