<svg xmlns="http://www.w3.org/2000/svg" width="40" height="40"><g transform="translate(4 6)"><path d="M 14.993 25.301 L 0.9 25.301 C 0.403 25.301 0 24.924 0 24.458 L 0 0.843 C 0 0.378 0.403 -0 0.9 -0 L 26.089 -0 C 26.585 -0 26.988 0.378 26.988 0.843 L 26.988 14.056" fill="transparent" stroke-width="2.5" stroke="rgb(240, 189, 102)" stroke-linecap="round" stroke-linejoin="round" stroke-dasharray=""></path><path d="M 0 18.273 L 10.495 14.056 L 18.742 17.57 M 19.491 9.839 C 17.835 9.839 16.493 8.581 16.493 7.028 C 16.493 5.476 17.835 4.217 19.491 4.217 C 21.148 4.217 22.49 5.476 22.49 7.028 C 22.49 8.581 21.148 9.839 19.491 9.839 Z" fill="transparent" stroke-width="2.5" stroke="rgb(240, 189, 102)" stroke-linecap="round" stroke-linejoin="round" stroke-dasharray=""></path><g transform="translate(17.803 19.426) rotate(-45 6.495 3.35)"><path d="M 7.794 3.393 C 7.742 1.774 6.185 0.097 4.35 0.038 L 3.237 0.002 C 1.392 -0.058 -0.056 1.348 0.002 3.141 C 0.052 4.686 1.204 6.015 2.701 6.391 C 2.947 6.452 3.196 6.487 3.446 6.495" fill="transparent" stroke-width="2" stroke="rgb(240, 189, 102)" stroke-linecap="round" stroke-linejoin="round" stroke-dasharray=""></path><path d="M 5.196 3.309 C 5.249 4.927 6.806 6.604 8.641 6.663 L 9.754 6.699 C 11.598 6.758 13.046 5.353 12.989 3.56 C 12.939 2.015 11.787 0.685 10.289 0.31 C 10.044 0.248 9.794 0.213 9.544 0.205" fill="transparent" stroke-width="2" stroke="rgb(240, 189, 102)" stroke-linecap="round" stroke-linejoin="round" stroke-dasharray=""></path></g></g></svg>