<svg xmlns="http://www.w3.org/2000/svg" width="40" height="40"><g transform="translate(4 6)"><path d="M 25.909 21.282 C 27.946 20.485 30 18.667 30 15 C 30 9.545 25.455 8.182 23.182 8.182 C 23.182 5.455 23.182 0 15 0 C 6.818 0 6.818 5.455 6.818 8.182 C 4.545 8.182 0 9.545 0 15 C 0 18.667 2.054 20.485 4.091 21.282 M 8.973 23.846 L 11.384 26.257 C 12.407 27.28 13.794 27.855 15.241 27.855 C 16.687 27.855 18.075 27.28 19.098 26.257 L 19.58 25.775" fill="transparent" stroke-width="2.5" stroke="rgb(240, 189, 102)" stroke-linecap="round" stroke-linejoin="round" stroke-dasharray=""></path><path d="M 9.455 27.221 L 8.974 23.846 L 12.348 24.329 L 9.457 27.221 Z M 20.861 20.321 L 18.45 17.91 C 17.427 16.887 16.04 16.312 14.593 16.312 C 13.146 16.312 11.759 16.887 10.736 17.91 L 10.255 18.391" fill="transparent" stroke-width="2.5" stroke="rgb(240, 189, 102)" stroke-linecap="round" stroke-linejoin="round" stroke-dasharray=""></path><path d="M 20.378 16.946 L 20.861 20.321 L 17.486 19.838 Z" fill="transparent" stroke-width="2.5" stroke="rgb(240, 189, 102)" stroke-linecap="round" stroke-linejoin="round" stroke-dasharray=""></path></g></svg>