<svg xmlns="http://www.w3.org/2000/svg" width="40" height="40"><g transform="translate(5 6)"><path d="M 15 18 C 19.971 18 24 13.971 24 9 C 24 4.029 19.971 0 15 0 C 10.029 0 6 4.029 6 9 C 6 13.971 10.029 18 15 18 Z" fill="transparent" stroke-width="2.5" stroke="rgb(240,189,102)" stroke-linecap="round" stroke-linejoin="round" stroke-dasharray=""></path><path d="M 21 28.5 C 25.971 28.5 30 24.471 30 19.5 C 30 14.529 25.971 10.5 21 10.5 C 16.029 10.5 12 14.529 12 19.5 C 12 24.471 16.029 28.5 21 28.5 Z" fill="transparent" stroke-width="2.5" stroke="rgb(240,189,102)" stroke-linecap="round" stroke-linejoin="round" stroke-dasharray=""></path><path d="M 9 28.5 C 13.971 28.5 18 24.471 18 19.5 C 18 14.529 13.971 10.5 9 10.5 C 4.029 10.5 0 14.529 0 19.5 C 0 24.471 4.029 28.5 9 28.5 Z" fill="transparent" stroke-width="2.5" stroke="rgb(240,189,102)" stroke-linecap="round" stroke-linejoin="round" stroke-dasharray=""></path></g></svg>