<svg xmlns="http://www.w3.org/2000/svg" width="40" height="40"><g transform="translate(4 6)"><path d="M 23.111 14.444 L 23.111 5.415 C 23.111 5.185 23.02 4.964 22.857 4.801 L 18.31 0.254 C 18.147 0.092 17.927 0 17.697 0 L 0.867 0 C 0.388 0 0 0.388 0 0.867 L 0 28.022 C 0 28.501 0.388 28.889 0.867 28.889 L 10.111 28.889 M 5.778 11.556 L 17.333 11.556 M 5.778 5.778 L 11.556 5.778 M 5.778 17.333 L 10.111 17.333 M 23.833 26.722 L 26 28.889" fill="transparent" stroke-width="2.5" stroke="rgb(240, 189, 102)" stroke-linecap="round" stroke-linejoin="round" stroke-dasharray=""></path><path d="M 15.889 23.111 C 15.889 25.504 17.829 27.444 20.222 27.444 C 22.615 27.444 24.556 25.504 24.556 23.111 C 24.556 20.718 22.615 18.778 20.222 18.778 C 17.829 18.778 15.889 20.718 15.889 23.111 Z" fill="transparent" stroke-width="2.5" stroke="rgb(240, 189, 102)" stroke-linecap="round" stroke-linejoin="round" stroke-dasharray=""></path></g></svg>