<svg xmlns="http://www.w3.org/2000/svg" width="40" height="40"><path d="M 35.211 18.526 L 35.211 14.947 C 35.211 10.006 31.205 6 26.263 6 L 11.947 6 C 7.006 6 3 10.006 3 14.947 L 3 14.947 C 3 19.889 7.006 23.895 11.947 23.895 L 19.105 23.895 M 33.643 31.264 C 35.016 29.91 35.556 27.923 35.06 26.06 C 34.564 24.197 33.106 22.743 31.241 22.251 C 29.377 21.76 27.392 22.306 26.041 23.682 C 23.976 25.786 23.994 29.161 26.081 31.243 C 28.169 33.325 31.544 33.334 33.643 31.264 Z M 33.643 31.264 L 37 34.632" fill="transparent" stroke-width="2.5" stroke="rgb(240,189,102)" stroke-linecap="round" stroke-linejoin="round" stroke-dasharray=""></path></svg>