<?xml version="1.0" encoding="UTF-8"?>
<svg width="21px" height="18px" viewBox="0 0 21 18" version="1.1" xmlns="http://www.w3.org/2000/svg" xmlns:xlink="http://www.w3.org/1999/xlink">
    <title>icon-password</title>
    <g id="Page-1" stroke="none" stroke-width="1" fill="none" fill-rule="evenodd">
        <g id="icon-password" transform="translate(1.000000, 1.000000)" stroke="#F0BD66" stroke-width="1.5">
            <path d="M18,7 L18,2 C18,0.89543 17.1046,0 16,0 L2,0 C0.89543,0 0,0.89543 0,2 L0,8 C0,9.1046 0.89543,10 2,10 L9,10" id="Path" stroke-linecap="round" stroke-linejoin="round"></path>
            <path d="M18.8789,11.9174 C19.3727,12.2211 19.3423,12.9604 18.8337,13.0181 L16.2671,13.309 L15.1159,15.6213 C14.8878,16.0795 14.1827,15.8552 14.0661,15.2873 L12.8108,9.1713 C12.7123,8.6913 13.1437,8.3892 13.561,8.646 L18.8789,11.9174 Z" id="Path"></path>
            <line x1="9" y1="5.01" x2="9.01" y2="4.9989" id="Path" stroke-linecap="round" stroke-linejoin="round"></line>
            <line x1="13" y1="5.01" x2="13.01" y2="4.9989" id="Path" stroke-linecap="round" stroke-linejoin="round"></line>
            <line x1="5" y1="5.01" x2="5.01" y2="4.9989" id="Path" stroke-linecap="round" stroke-linejoin="round"></line>
        </g>
    </g>
</svg>