<svg xmlns="http://www.w3.org/2000/svg" width="40" height="40"><g transform="translate(2 11)"><path d="M 21.6 8.996 C 21.6 4.511 17.429 0 12.343 0 L 9.257 0 C 4.145 0 0 4.028 0 8.996 C 0 13.277 3.078 16.859 7.2 17.768 C 7.876 17.917 8.566 17.991 9.257 17.991" fill="transparent" stroke-width="2.5" stroke="rgb(240,189,102)" stroke-linecap="round" stroke-linejoin="round" stroke-dasharray=""></path><path d="M 14.4 8.996 C 14.4 13.48 18.571 17.991 23.657 17.991 L 26.743 17.991 C 31.855 17.991 36 13.964 36 8.996 C 36 4.714 32.922 1.13 28.8 0.223 C 28.124 0.074 27.434 -0 26.743 0" fill="transparent" stroke-width="2.5" stroke="rgb(240,189,102)" stroke-linecap="round" stroke-linejoin="round" stroke-dasharray=""></path></g></svg>