<svg xmlns="http://www.w3.org/2000/svg" width="40" height="40"><g transform="translate(3 6)"><path d="M 31.821 12.375 L 31.821 3.536 C 31.821 1.583 30.238 0 28.285 0 L 3.536 0 C 1.583 0 0 1.583 0 3.536 L 0 14.143 C 0 16.095 1.583 17.678 3.536 17.678 L 15.91 17.678" fill="transparent" stroke-width="2.5" stroke="rgb(240,189,102)" stroke-linecap="round" stroke-linejoin="round" stroke-dasharray=""></path><path d="M 33.375 21.067 C 34.248 21.604 34.193 22.911 33.295 23.013 L 28.757 23.528 L 26.722 27.615 C 26.319 28.425 25.073 28.029 24.866 27.025 L 22.647 16.213 C 22.472 15.364 23.236 14.83 23.973 15.285 Z" fill="transparent" stroke-width="2.5" stroke="rgb(240,189,102)" stroke-miterlimit="10" stroke-dasharray=""></path><path d="M 15.91 8.857 L 15.928 8.837 M 22.982 8.857 L 22.999 8.837 M 8.839 8.857 L 8.857 8.837" fill="transparent" stroke-width="2.5" stroke="rgb(240,189,102)" stroke-linecap="round" stroke-linejoin="round" stroke-dasharray=""></path></g></svg>