<svg width="128" height="128" viewBox="0 0 128 128" fill="none" xmlns="http://www.w3.org/2000/svg">
<path d="M0 64.0002C0 15.9999 15.9998 0 64 0C112 0 128 15.9999 128 64.0002C128 112 112 128 64 128C15.9998 128 0 112 0 64.0002Z" fill="#111111"/>
<path fill-rule="evenodd" clip-rule="evenodd" d="M64.7197 32.5686L40.2317 70.0172C39.4549 71.2052 40.3072 72.7809 41.7266 72.7809H54.3396H60.8434H64.1768L60.0179 95.4841C59.6667 97.4015 62.2029 98.4149 63.2697 96.7835L87.7577 59.3349C88.5345 58.1469 87.6822 56.5712 86.2628 56.5712H71.1568H67.146H63.8126L67.9715 33.868C68.3227 31.9506 65.7865 30.9372 64.7197 32.5686Z" fill="white"/>
</svg>
