<svg xmlns="http://www.w3.org/2000/svg" width="15" height="15"><path d="M 1.969 2.163 L 11.594 2.163 C 11.603 2.163 11.612 2.162 11.622 2.161 C 11.953 2.644 12.547 2.848 13.09 2.667 C 13.632 2.486 14.001 1.961 14.001 1.367 C 14.002 0.774 13.634 0.248 13.092 0.066 C 12.549 -0.116 11.956 0.087 11.623 0.569 L 2 0.569 C 0.906 0.56 0.012 1.473 0 2.612 L 0 12.529 C 0.012 13.667 0.906 14.581 2 14.572 L 12 14.572 C 13.094 14.581 13.988 13.667 14 12.529 L 14 6.553 C 14 5.426 13.134 4.44 12.031 4.44 L 6.344 4.44 C 5.821 4.438 5.319 4.653 4.95 5.038 C 4.58 5.423 4.373 5.945 4.375 6.489 L 4.375 8.31 C 4.373 8.854 4.58 9.377 4.95 9.761 C 5.319 10.146 5.821 10.361 6.344 10.359 L 9.023 10.359 C 9.371 10.829 9.97 11.011 10.505 10.81 C 11.041 10.61 11.391 10.073 11.373 9.481 C 11.354 8.889 10.97 8.377 10.423 8.214 C 9.876 8.051 9.29 8.274 8.973 8.766 L 6.344 8.766 C 6.054 8.766 5.906 8.607 5.906 8.31 L 5.906 6.489 C 5.906 6.193 6.054 6.034 6.344 6.034 L 12.031 6.034 C 12.321 6.034 12.469 6.193 12.469 6.489 L 12.469 12.522 C 12.469 12.819 12.321 12.978 12.031 12.978 L 1.969 12.978 C 1.679 12.978 1.531 12.819 1.531 12.522 L 1.531 2.618 C 1.531 2.322 1.679 2.163 1.969 2.163 Z" fill="rgb(0,0,0)"></path></svg>