<svg xmlns="http://www.w3.org/2000/svg" width="399" height="399"><path d="M 0.329 199.664 C 0.329 50.163 50.163 0.329 199.664 0.329 C 349.166 0.329 399 50.163 399 199.664 C 399 349.166 349.166 399 199.664 399 C 50.163 399 0.329 349.166 0.329 199.664" fill="rgb(240,189,102)"></path><g transform="translate(96 96)"><path d="M 126.75 208 C 121.365 208 117 203.635 117 198.25 L 117 126.75 C 117 121.365 121.365 117 126.75 117 L 198.25 117 C 203.635 117 208 121.365 208 126.75 L 208 198.25 C 208 203.635 203.635 208 198.25 208 Z M 9.75 208 C 4.365 208 0 203.635 0 198.25 L 0 126.75 C 0 121.365 4.365 117 9.75 117 L 81.25 117 C 86.635 117 91 121.365 91 126.75 L 91 198.25 C 91 203.635 86.635 208 81.25 208 Z M 126.75 91 C 121.365 91 117 86.635 117 81.25 L 117 9.75 C 117 4.365 121.365 0 126.75 0 L 198.25 0 C 203.635 0 208 4.365 208 9.75 L 208 81.25 C 208 86.635 203.635 91 198.25 91 Z" fill="rgb(255,255,255)" opacity="0.44"></path><path d="M 9.75 91 C 4.365 91 0 86.635 0 81.25 L 0 9.75 C 0 4.365 4.365 0 9.75 0 L 81.25 0 C 86.635 0 91 4.365 91 9.75 L 91 81.25 C 91 86.635 86.635 91 81.25 91 Z" fill="rgb(255, 255, 255)"></path></g></svg>