<svg xmlns="http://www.w3.org/2000/svg" width="399" height="399"><path d="M 0.329 199.664 C 0.329 50.163 50.163 0.329 199.664 0.329 C 349.166 0.329 399 50.163 399 199.664 C 399 349.166 349.166 399 199.664 399 C 50.163 399 0.329 349.166 0.329 199.664" fill="rgb(240,189,102)"></path><g transform="translate(82.716 88.036)"><path d="M 12.488 142.247 C -4.163 125.557 -4.163 98.5 12.488 81.811 L 87.88 6.256 C 96.206 -2.085 109.702 -2.085 118.028 6.256 L 193.415 81.811 C 201.738 90.155 201.738 103.682 193.415 112.026 L 118.023 187.58 C 101.37 204.268 74.373 204.268 57.721 187.58 Z" fill="rgb(255,255,255)"></path><path d="M 202.018 222 C 219.681 222 234 207.649 234 189.947 C 234 172.243 202.018 136.525 202.018 136.525 C 202.018 136.525 170.036 172.243 170.036 189.947 C 170.036 207.649 184.355 222 202.018 222 Z" fill="rgb(255,255,255)" opacity="0.44"></path></g></svg>