<svg xmlns="http://www.w3.org/2000/svg" width="399" height="399"><path d="M 0.329 199.664 C 0.329 50.163 50.163 0.329 199.664 0.329 C 349.166 0.329 399 50.163 399 199.664 C 399 349.166 349.166 399 199.664 399 C 50.163 399 0.329 349.166 0.329 199.664" fill="rgb(240,189,102)"></path><g transform="translate(80.875 108.875)"><path d="M 80.162 181 C 74.387 181 69.706 176.325 69.706 170.558 L 69.706 149.673 C 69.706 143.906 74.387 139.231 80.162 139.231 L 226.544 139.231 C 232.319 139.231 237 143.906 237 149.673 L 237 170.558 C 237 176.325 232.319 181 226.544 181 Z M 80.162 111.385 C 74.387 111.385 69.706 106.709 69.706 100.942 L 69.706 80.058 C 69.706 74.291 74.387 69.615 80.162 69.615 L 226.544 69.615 C 232.319 69.615 237 74.291 237 80.058 L 237 100.942 C 237 106.709 232.319 111.385 226.544 111.385 Z M 80.162 41.769 C 74.387 41.769 69.706 37.094 69.706 31.327 L 69.706 10.442 C 69.706 4.675 74.387 0 80.162 0 L 226.544 0 C 232.319 0 237 4.675 237 10.442 L 237 31.327 C 237 37.094 232.319 41.769 226.544 41.769 Z" fill="rgb(255,255,255)"></path><path d="M 0 160.115 C 0 148.581 9.363 139.231 20.912 139.231 C 32.461 139.231 41.824 148.581 41.824 160.115 C 41.824 171.65 32.461 181 20.912 181 C 9.363 181 0 171.65 0 160.115 Z M 0 90.5 C 0 78.966 9.363 69.615 20.912 69.615 C 32.461 69.615 41.824 78.966 41.824 90.5 C 41.824 102.034 32.461 111.385 20.912 111.385 C 9.363 111.385 0 102.034 0 90.5 Z M 0 20.885 C 0 9.35 9.363 0 20.912 0 C 32.461 0 41.824 9.35 41.824 20.885 C 41.824 32.419 32.461 41.769 20.912 41.769 C 9.363 41.769 0 32.419 0 20.885 Z" fill="rgb(255,255,255)" opacity="0.44"></path></g></svg>