<svg xmlns="http://www.w3.org/2000/svg" width="399" height="399"><path d="M 0.329 199.664 C 0.329 50.163 50.163 0.329 199.664 0.329 C 349.166 0.329 399 50.163 399 199.664 C 399 349.166 349.166 399 199.664 399 C 50.163 399 0.329 349.166 0.329 199.664" fill="rgb(240,189,102)"></path><g transform="translate(85.167 99)"><path d="M 10.734 200.583 C 4.806 200.583 0 195.786 0 189.869 L 0 182.726 C 0 176.809 4.806 172.012 10.734 172.012 L 132.391 172.012 C 138.319 172.012 143.125 176.809 143.125 182.726 L 143.125 189.869 C 143.125 195.786 138.319 200.583 132.391 200.583 Z M 10.734 86.298 C 4.806 86.298 0 81.501 0 75.583 L 0 68.44 C 0 62.523 4.806 57.726 10.734 57.726 L 132.391 57.726 C 138.319 57.726 143.125 62.523 143.125 68.44 L 143.125 75.583 C 143.125 81.501 138.319 86.298 132.391 86.298 Z" fill="rgb(255,255,255)"></path><path d="M 10.734 143.012 C 4.806 143.012 0 138.215 0 132.298 L 0 125.155 C 0 119.237 4.806 114.44 10.734 114.44 L 216.333 114.5 C 222.262 114.5 227.333 119.083 227.333 125 L 227.333 132.5 C 227.333 138.417 222.262 143 216.333 143 Z M 10.734 28.726 C 4.806 28.726 0 23.929 0 18.012 L 0 10.869 C 0 4.952 4.806 0.155 10.734 0.155 L 216.333 -0 C 222.262 -0 227.333 5.083 227.333 11 L 227.333 18 C 227.333 23.917 222.262 28.5 216.333 28.5 Z" fill="rgb(255,255,255)" opacity="0.4"></path></g></svg>