<svg xmlns="http://www.w3.org/2000/svg" width="399" height="399"><path d="M 0.329 199.664 C 0.329 50.163 50.163 0.329 199.664 0.329 C 349.166 0.329 399 50.163 399 199.664 C 399 349.166 349.166 399 199.664 399 C 50.163 399 0.329 349.166 0.329 199.664" fill="rgb(240,189,102)"></path><g transform="translate(70.861 99.582)"><path d="M 168.517 189.981 C 168.518 193.955 171.122 197.461 174.929 198.612 C 178.736 199.764 182.849 198.29 185.056 194.983 L 255.484 89.476 C 257.331 86.708 257.503 83.15 255.932 80.217 C 254.361 77.285 251.302 75.454 247.973 75.453 L 192.603 75.453 L 192.603 9.032 C 192.608 5.047 189.995 1.531 186.176 0.383 C 182.357 -0.765 178.237 0.727 176.04 4.053 L 105.624 109.536 C 103.778 112.304 103.605 115.862 105.176 118.795 C 106.747 121.728 109.806 123.559 113.135 123.559 L 168.505 123.559 Z" fill="rgb(255,255,255)"></path><path d="M 33.102 195.717 C 28.116 195.717 24.074 191.679 24.074 186.697 L 24.074 168.658 C 24.074 163.676 28.116 159.638 33.102 159.638 L 111.342 159.638 C 116.328 159.638 120.369 163.676 120.369 168.658 L 120.369 186.697 C 120.369 191.679 116.328 195.717 111.342 195.717 Z M 9.028 123.559 C 4.042 123.559 0 119.521 0 114.539 L 0 96.5 C 0 91.518 4.042 87.48 9.028 87.48 L 75.231 87.48 C 80.217 87.48 84.259 91.518 84.259 96.5 L 84.259 114.539 C 84.259 119.521 80.217 123.559 75.231 123.559 Z M 33.102 51.401 C 28.116 51.401 24.074 47.362 24.074 42.381 L 24.074 24.341 C 24.074 19.36 28.116 15.322 33.102 15.322 L 111.342 15.322 C 116.328 15.322 120.369 19.36 120.369 24.341 L 120.369 42.381 C 120.369 47.362 116.328 51.401 111.342 51.401 Z" fill="rgb(255,255,255)" opacity="0.44"></path></g></svg>