<?xml version="1.0" standalone="no"?>
<!DOCTYPE svg PUBLIC "-//W3C//DTD SVG 1.1//EN" "http://www.w3.org/Graphics/SVG/1.1/DTD/svg11.dtd" >
<svg xmlns="http://www.w3.org/2000/svg" xmlns:xlink="http://www.w3.org/1999/xlink" version="1.1">
<metadata>
Created by FontForge 20200511 at Thu Jan 21 18:33:36 2021
 By convertio
Copyright 2016 Yassin Baggar, Fatype. All rights reserved.
</metadata>
<defs>
<font id="BeausiteClassic-Medium" horiz-adv-x="1425" >
  <font-face 
    font-family="Beausite Classic Medium"
    font-weight="500"
    font-stretch="normal"
    units-per-em="2048"
    panose-1="2 11 6 3 6 5 2 6 2 3"
    ascent="1556"
    descent="-492"
    x-height="1061"
    cap-height="1434"
    bbox="-75 -412 2009 1845"
    underline-thickness="0"
    underline-position="0"
    unicode-range="U+000D-FB04"
  />
<missing-glyph horiz-adv-x="748" 
d="M68 0v1365h544v-1365h-544zM136 68h408v1229h-408v-1229z" />
    <glyph glyph-name="uniFB01" unicode="fi" horiz-adv-x="1251" 
d="M31 883v178h186v119q0 178 85 238.5t237 60.5q43 0 79.5 -1t71.5 -3v-181q-25 2 -55.5 3t-59.5 1q-66 0 -103.5 -23.5t-37.5 -105.5v-108h256v-178h-256v-883h-217v883h-186zM874 1237v238h226v-238h-226zM876 0v1061h222v-1061h-222z" />
    <glyph glyph-name="uniFB02" unicode="fl" horiz-adv-x="1251" 
d="M31 883v178h186v119q0 178 85 238.5t237 60.5q43 0 79.5 -1t71.5 -3v-181q-25 2 -55.5 3t-59.5 1q-66 0 -103.5 -23.5t-37.5 -105.5v-108h256v-178h-256v-883h-217v883h-186zM876 0v1475h222v-1475h-222z" />
    <glyph glyph-name=".notdef" horiz-adv-x="748" 
d="M68 0v1365h544v-1365h-544zM136 68h408v1229h-408v-1229z" />
    <glyph glyph-name="glyph1" horiz-adv-x="1024" 
 />
    <glyph glyph-name="glyph1" horiz-adv-x="1024" 
 />
    <glyph glyph-name="glyph2" horiz-adv-x="682" 
 />
    <glyph glyph-name="uni000D" unicode="&#xd;" horiz-adv-x="681" 
 />
    <glyph glyph-name="space" unicode=" " horiz-adv-x="534" 
 />
    <glyph glyph-name="exclam" unicode="!" horiz-adv-x="585" 
d="M164 0v268h258v-268h-258zM174 989v445h238v-445l-54 -520v-4h-131v4z" />
    <glyph glyph-name="quotedbl" unicode="&#x22;" horiz-adv-x="776" 
d="M88 1434h242l-33 -476h-174zM446 1434h242l-33 -476h-174z" />
    <glyph glyph-name="numbersign" unicode="#" horiz-adv-x="1710" 
d="M61 367v194h345l122 311h-323v195h399l144 367h208l-143 -367h369l143 367h207l-143 -367h262v-195h-338l-123 -311h313v-194h-389l-143 -367h-209l143 367h-368l-144 -367h-207l144 367h-269zM614 561h369l121 311h-369z" />
    <glyph glyph-name="dollar" unicode="$" horiz-adv-x="1294" 
d="M74 453h229q14 -121 93 -188.5t190 -82.5v455l-49 10q-205 47 -304.5 140.5t-99.5 246.5q0 86 35 160t96.5 130t144.5 91t177 45v158h162v-158q186 -20 309 -131.5t137 -296.5h-225q-12 86 -70.5 144.5t-150.5 78.5v-426l26 -6q197 -45 316.5 -141t119.5 -268
q0 -96 -37.5 -172t-101 -128.5t-148.5 -85t-175 -42.5v-170h-162v166q-104 8 -194.5 40.5t-158 91t-109.5 143.5t-50 196zM367 1055q0 -76 55 -119t164 -68v392q-92 -18 -155.5 -73.5t-63.5 -131.5zM748 186q94 18 158.5 70.5t64.5 130.5q0 82 -58.5 130t-164.5 81v-412z
" />
    <glyph glyph-name="percent" unicode="%" horiz-adv-x="1794" 
d="M96 1104q0 84 29 150.5t76 110.5t110.5 67.5t130.5 23.5q68 0 131.5 -23.5t110.5 -67.5t75.5 -110.5t28.5 -150.5q0 -86 -28.5 -153.5t-76.5 -112.5t-110.5 -69.5t-130.5 -24.5t-131 24.5t-110 69.5t-76 112.5t-29 153.5zM276 0l1016 1434h223l-1015 -1434h-224z
M289 1104q0 -86 37.5 -144.5t115.5 -58.5t115 58.5t37 144.5q0 82 -37 138.5t-115 56.5t-115.5 -56.5t-37.5 -138.5zM1009 342q0 84 29 150.5t76 110.5t110.5 67.5t130.5 23.5q68 0 131.5 -23.5t110.5 -67.5t75.5 -110.5t28.5 -150.5q0 -86 -28.5 -153.5t-76.5 -112.5
t-110.5 -69.5t-130.5 -24.5t-131 24.5t-110 69.5t-76 112.5t-29 153.5zM1202 342q0 -86 37.5 -144.5t115.5 -58.5t115 58.5t37 144.5q0 82 -37 138.5t-115 56.5t-115.5 -56.5t-37.5 -138.5z" />
    <glyph glyph-name="ampersand" unicode="&#x26;" horiz-adv-x="1468" 
d="M86 391q0 141 77 236.5t206 163.5q-57 70 -94 141.5t-37 165.5q0 80 31.5 146.5t85 115.5t127 75.5t155.5 26.5t154.5 -25.5t126 -71.5t84 -113.5t30.5 -151.5q0 -131 -81 -216t-234 -149l264 -284q33 61 53.5 131.5t28.5 152.5h225q-8 -127 -46 -242.5t-107 -207.5
l262 -283v-2h-301l-115 123q-82 -70 -178 -109t-225 -39q-98 0 -188.5 29t-157 83t-106.5 131t-40 173zM315 403q0 -106 81 -168.5t186 -62.5q72 0 138 24.5t124 75.5l-346 375q-92 -45 -137.5 -106.5t-45.5 -137.5zM449 1098q0 -61 38.5 -112.5t96.5 -111.5
q123 43 180 99.5t57 126.5q0 78 -53 124t-131 46q-86 0 -137 -49t-51 -123z" />
    <glyph glyph-name="quotesingle" unicode="'" horiz-adv-x="417" 
d="M88 1434h242l-33 -476h-174z" />
    <glyph glyph-name="parenleft" unicode="(" horiz-adv-x="681" 
d="M106 621q0 150 35 280.5t91.5 238t127 192.5t142.5 143h233q-80 -74 -152.5 -167.5t-127 -200t-87 -229t-32.5 -257.5q0 -133 31.5 -258t86 -234t127 -203t154.5 -168h-233q-72 59 -142.5 144.5t-127 194t-91.5 240.5t-35 284z" />
    <glyph glyph-name="parenright" unicode=")" horiz-adv-x="681" 
d="M-39 -242q80 74 152.5 167t127 199.5t87 229.5t32.5 258q0 133 -31.5 258t-86 233.5t-127 203t-154.5 168.5h234q72 -59 142.5 -144.5t126.5 -194t91 -240.5t35 -284q0 -150 -35 -280.5t-91 -238t-127 -192.5t-142 -143h-234z" />
    <glyph glyph-name="asterisk" unicode="*" horiz-adv-x="819" 
d="M55 1120l49 148l228 -74v240h155v-240l228 74l49 -148l-229 -73l139 -195l-123 -88l-141 192l-140 -192l-125 88l140 195z" />
    <glyph glyph-name="plus" unicode="+" horiz-adv-x="1212" 
d="M102 616v179h404v411h201v-411h403v-179h-403v-419h-201v419h-404z" />
    <glyph glyph-name="comma" unicode="," horiz-adv-x="530" 
d="M129 -188q55 16 94 57t39 98q0 16 -8 24.5t-29 8.5h-88v268h256v-258q0 -143 -71.5 -222t-190.5 -105z" />
    <glyph glyph-name="hyphen" unicode="-" horiz-adv-x="927" 
d="M117 469v203h694v-203h-694z" />
    <glyph glyph-name="period" unicode="." horiz-adv-x="530" 
d="M137 0v268h256v-268h-256z" />
    <glyph glyph-name="slash" unicode="/" horiz-adv-x="983" 
d="M-27 -137l799 1593h217l-799 -1593h-217z" />
    <glyph glyph-name="zero" unicode="0" horiz-adv-x="1376" 
d="M106 725q0 346 157 541.5t425 195.5q266 0 424 -195.5t158 -541.5q0 -172 -41 -310.5t-116 -234.5t-183.5 -148t-241.5 -52q-268 0 -425 199.5t-157 545.5zM348 725q0 -117 19.5 -216t61.5 -171t106.5 -113t152.5 -41t151.5 41t105.5 113t62.5 171t20.5 216t-20.5 216
t-62.5 169t-105.5 108.5t-151.5 38.5t-152.5 -38.5t-105.5 -108.5t-61.5 -169t-20.5 -216z" />
    <glyph glyph-name="one" unicode="1" horiz-adv-x="862" 
d="M82 913v232l401 289h181v-1434h-230v1153z" />
    <glyph glyph-name="two" unicode="2" horiz-adv-x="1212" 
d="M74 0l16 96q23 139 122 263t318 266q166 104 250 186t84 199q0 100 -65.5 173.5t-188.5 73.5q-119 0 -191.5 -71.5t-80.5 -177.5h-234q6 102 46 186t107 143.5t158 92t197 32.5t196.5 -32.5t155 -92t101.5 -144.5t37 -187q0 -166 -106.5 -286t-338.5 -257
q-133 -82 -204.5 -142.5t-94.5 -123.5h750v-197h-1034z" />
    <glyph glyph-name="three" unicode="3" horiz-adv-x="1232" 
d="M51 420h232q12 -104 87.5 -177t215.5 -73q141 0 223 65.5t82 170.5q0 121 -88 181t-232 60q-37 0 -72.5 -1t-72.5 -3v199q27 -2 68 -3t77 -1q121 0 210 55t89 170q0 94 -75.5 151.5t-202.5 57.5q-131 0 -205 -64.5t-84 -156.5h-229q20 190 160.5 300.5t357.5 110.5
q106 0 201.5 -26.5t164 -76.5t109.5 -124t41 -170q0 -137 -84 -217t-201 -98v-5q129 -14 218 -104t89 -240q0 -102 -44 -181t-117.5 -132t-172.5 -80.5t-210 -27.5q-221 0 -368.5 116.5t-166.5 323.5z" />
    <glyph glyph-name="four" unicode="4" horiz-adv-x="1212" 
d="M41 352v176l635 906h280v-891h207v-191h-207v-352h-217v352h-698zM283 543h456v649z" />
    <glyph glyph-name="five" unicode="5" horiz-adv-x="1218" 
d="M80 389h233q10 -86 84 -147.5t195 -61.5q131 0 212 89t81 206q0 121 -83 207t-212 86q-106 0 -175 -42t-98 -85h-180l62 793h862v-197h-686l-29 -356q51 39 122 62.5t157 23.5q104 0 195 -34t160 -97.5t107.5 -153.5t38.5 -201t-41 -204t-112.5 -158.5t-169.5 -102
t-211 -36.5q-100 0 -190.5 28.5t-159 80.5t-111.5 129t-51 171z" />
    <glyph glyph-name="six" unicode="6" horiz-adv-x="1267" 
d="M111 647q0 225 44 382t119.5 252t180 138t225.5 43q94 0 178 -22.5t148.5 -67.5t105.5 -113.5t49 -162.5h-231q-16 82 -81 129t-171 47q-139 0 -232.5 -121t-101.5 -420q41 86 128 144.5t212 58.5q94 0 181 -31t153.5 -91t106.5 -150t40 -209q0 -104 -40 -191.5
t-109.5 -150t-165.5 -97t-207 -34.5q-113 0 -211 37.5t-168.5 117.5t-111.5 207t-41 305zM371 442q0 -111 75.5 -191.5t200.5 -80.5t201 78t76 194q0 145 -83 223t-198 78q-117 0 -194.5 -81t-77.5 -220z" />
    <glyph glyph-name="seven" unicode="7" horiz-adv-x="1081" 
d="M47 1237v197h1012v-166l-35 -43q-231 -283 -346 -588t-123 -637h-242q20 385 154.5 688t325.5 549h-746z" />
    <glyph glyph-name="eight" unicode="8" horiz-adv-x="1263" 
d="M100 389q0 70 25 130.5t65.5 106.5t93 75.5t109.5 37.5v4q-49 12 -95 39t-83 69t-59.5 98.5t-22.5 125.5q0 90 41 163t108.5 122t158.5 75.5t190 26.5q100 0 191 -25.5t159 -74.5t108.5 -122t40.5 -165q0 -137 -78.5 -221t-179.5 -111v-4q117 -16 204 -112.5t87 -237.5
q0 -94 -40 -171t-110.5 -130t-168.5 -83t-213 -30q-117 0 -214.5 29t-168 83t-109.5 131t-39 171zM338 401q0 -104 81 -169.5t212 -65.5q135 0 215 65.5t80 169.5t-83 173t-212 69t-211 -68.5t-82 -173.5zM365 1059q0 -100 76.5 -164t189.5 -64q115 0 191.5 61.5t76.5 166.5
q0 100 -78.5 156.5t-189.5 56.5t-188.5 -56.5t-77.5 -156.5z" />
    <glyph glyph-name="nine" unicode="9" horiz-adv-x="1267" 
d="M102 989q0 104 40 192.5t110 150t166 96t207 34.5q113 0 210 -38t167.5 -118.5t111.5 -208.5t41 -306q0 -225 -43 -381t-118.5 -251.5t-180 -137t-225.5 -41.5q-94 0 -178 22.5t-148.5 67.5t-105.5 113.5t-52 162.5h234q16 -84 80.5 -130t171.5 -46q139 0 232 122
t102 423q-41 -88 -128 -147.5t-214 -59.5q-94 0 -180.5 30.5t-153 90t-106.5 150.5t-40 210zM344 999q0 -145 83 -223t198 -78q117 0 193.5 81t76.5 220q0 111 -75 192t-199 81q-125 0 -201 -78t-76 -195z" />
    <glyph glyph-name="colon" unicode=":" horiz-adv-x="565" 
d="M153 0v268h256v-268h-256zM153 793v268h256v-268h-256z" />
    <glyph glyph-name="semicolon" unicode=";" horiz-adv-x="565" 
d="M145 -188q55 16 94 57t39 98q0 16 -8 24.5t-29 8.5h-88v268h256v-258q0 -143 -71.5 -222t-190.5 -105zM153 793v268h256v-268h-256z" />
    <glyph glyph-name="less" unicode="&#x3c;" horiz-adv-x="1005" 
d="M92 590v190l793 379v-198l-578 -269l578 -270v-211z" />
    <glyph glyph-name="equal" unicode="=" horiz-adv-x="1245" 
d="M121 360v179h1003v-179h-1003zM121 815v178h1003v-178h-1003z" />
    <glyph glyph-name="greater" unicode="&#x3e;" horiz-adv-x="1005" 
d="M121 211v199l577 270l-577 268v211l792 -379v-190z" />
    <glyph glyph-name="question" unicode="?" horiz-adv-x="1169" 
d="M80 1008q8 104 50 189t110.5 143.5t156.5 90t189 31.5q96 0 185 -25.5t154.5 -75.5t105.5 -125t40 -173q0 -135 -70.5 -217t-212.5 -152q-100 -49 -128.5 -95t-28.5 -120v-33h-197v43q0 45 3 78t12 60q16 47 49.5 89t109.5 87q104 63 168 117.5t64 140.5q0 94 -71 156.5
t-185 62.5q-123 0 -197 -75t-82 -197h-225zM414 0v242h233v-242h-233z" />
    <glyph glyph-name="at" unicode="@" horiz-adv-x="1818" 
d="M90 518q0 184 70.5 339t186.5 264.5t267.5 170t311.5 60.5q168 0 315.5 -56.5t256 -155t171 -235.5t62.5 -297q0 -133 -42 -227t-105.5 -153.5t-139.5 -87t-141 -27.5q-76 0 -142.5 33.5t-93.5 91.5q-47 -59 -109.5 -88t-134.5 -29q-59 0 -119.5 22.5t-106.5 68.5
t-75.5 115.5t-29.5 164.5q0 102 32.5 184t85 137t121 85t139.5 30q76 0 139.5 -29t102.5 -82l12 90h197l-72 -499q-8 -63 16.5 -92t69.5 -29q29 0 65 15t66.5 51t52 96.5t21.5 150.5q0 121 -48 225.5t-130 180t-194.5 119.5t-241.5 44q-125 0 -242 -47t-207 -132
t-144 -205.5t-54 -266.5q0 -154 55 -272.5t144 -198.5t203 -121t228 -41q111 0 213.5 31t167.5 80l105 -152q-80 -57 -209 -98t-277 -41q-160 0 -308 54.5t-261 157.5t-181.5 256t-68.5 345zM713 504q0 -88 47 -143.5t117 -55.5q76 0 124 48t64 126q6 27 8 44.5t2 37.5
q0 82 -42 136.5t-124 54.5q-88 0 -142 -68t-54 -180z" />
    <glyph glyph-name="A" unicode="A" 
d="M10 0l574 1434h258l571 -1434h-250l-137 356h-639l-137 -356h-240zM465 561h483l-241 633z" />
    <glyph glyph-name="B" unicode="B" horiz-adv-x="1359" 
d="M164 0v1434h612q240 0 352.5 -107.5t112.5 -267.5q0 -119 -63.5 -199t-155.5 -106v-4q104 -27 177 -118t73 -229q0 -190 -136.5 -296.5t-377.5 -106.5h-594zM395 195h346q143 0 217 58t74 163q0 106 -75 165.5t-216 59.5h-346v-446zM395 836h361q123 0 185.5 53t62.5 147
q0 92 -63.5 147.5t-184.5 55.5h-361v-403z" />
    <glyph glyph-name="C" unicode="C" horiz-adv-x="1507" 
d="M86 725q0 172 57.5 310.5t153.5 232.5t223 145t264 51q125 0 235.5 -34.5t197 -99t142.5 -159t73 -208.5h-236q-33 135 -145.5 212.5t-266.5 77.5q-94 0 -176 -37.5t-142 -106.5t-95 -166t-35 -218q0 -119 35 -218t95 -171t142 -111t176 -39q154 0 261.5 85t152.5 225
h236q-20 -117 -78 -214.5t-143 -165t-194.5 -104.5t-234.5 -37q-139 0 -267 52.5t-223 148.5t-151.5 236.5t-56.5 312.5z" />
    <glyph glyph-name="D" unicode="D" horiz-adv-x="1492" 
d="M164 0v1434h489q172 0 311.5 -43t237.5 -130t151.5 -221.5t53.5 -314.5q0 -174 -54.5 -309t-151.5 -227.5t-237.5 -140.5t-312.5 -48h-487zM401 203h226q272 0 403 141t131 381t-131 373t-403 133h-226v-1028z" />
    <glyph glyph-name="E" unicode="E" horiz-adv-x="1265" 
d="M164 0v1434h1005v-203h-770v-383h715v-203h-715v-442h785v-203h-1020z" />
    <glyph glyph-name="F" unicode="F" horiz-adv-x="1140" 
d="M164 0v1434h936v-203h-699v-408h637v-202h-637v-621h-237z" />
    <glyph glyph-name="G" unicode="G" horiz-adv-x="1605" 
d="M84 725q0 168 57.5 306t154.5 233.5t231.5 147.5t285.5 52q117 0 225.5 -31.5t193.5 -91t142.5 -145.5t73.5 -190h-231q-33 111 -141.5 182.5t-262.5 71.5q-217 0 -352 -144.5t-135 -390.5t132 -393.5t343 -147.5q78 0 155.5 26t139 76t99.5 125.5t38 172.5h-447v196h666
v-780h-209l-2 219q-55 -100 -176 -169.5t-293 -69.5q-141 0 -267 53t-219 150.5t-147.5 235.5t-54.5 306z" />
    <glyph glyph-name="H" unicode="H" horiz-adv-x="1546" 
d="M164 0v1434h237v-586h744v586h237v-1434h-237v645h-744v-645h-237z" />
    <glyph glyph-name="I" unicode="I" horiz-adv-x="565" 
d="M164 0v1434h237v-1434h-237z" />
    <glyph glyph-name="J" unicode="J" horiz-adv-x="1116" 
d="M20 424h238q10 -104 72.5 -172t171.5 -68q102 0 165.5 69t63.5 183v998h238v-1002q0 -115 -38 -201t-101.5 -142t-148.5 -85t-179 -29q-190 0 -323.5 112t-158.5 337z" />
    <glyph glyph-name="K" unicode="K" horiz-adv-x="1400" 
d="M164 0v1434h235v-689l668 689h301l-528 -537l544 -897h-280l-434 725l-271 -274v-451h-235z" />
    <glyph glyph-name="L" unicode="L" horiz-adv-x="1103" 
d="M164 0v1434h237v-1231h678v-203h-915z" />
    <glyph glyph-name="M" unicode="M" horiz-adv-x="1882" 
d="M164 0v1434h395l383 -1160l383 1160h391v-1434h-233v1266l-426 -1266h-240l-426 1270v-1270h-227z" />
    <glyph glyph-name="N" unicode="N" horiz-adv-x="1550" 
d="M164 0v1434h305l684 -1137v1137h231v-1434h-301l-688 1141v-1141h-231z" />
    <glyph glyph-name="O" unicode="O" horiz-adv-x="1607" 
d="M86 725q0 172 58.5 310.5t155.5 232.5t228 145t277 51q145 0 275 -50t228.5 -145t156 -232.5t57.5 -311.5q0 -172 -57.5 -311.5t-155 -235.5t-228.5 -149.5t-276 -53.5q-147 0 -279.5 52.5t-229.5 149.5t-153.5 236.5t-56.5 311.5zM336 725q0 -121 36 -220t98 -170
t148.5 -110t186.5 -39t186 39t148.5 108.5t98.5 170t36 221.5t-36 219t-99.5 167t-149.5 105.5t-184 36.5q-100 0 -186.5 -36.5t-148.5 -105.5t-98 -167t-36 -219z" />
    <glyph glyph-name="P" unicode="P" horiz-adv-x="1271" 
d="M164 0v1434h547q256 0 388 -123t132 -326q0 -207 -135 -330t-387 -123h-308v-532h-237zM401 735h293q147 0 221 67.5t74 180.5q0 111 -74.5 179.5t-220.5 68.5h-293v-496z" />
    <glyph glyph-name="Q" unicode="Q" horiz-adv-x="1607" 
d="M86 725q0 172 58.5 310.5t155.5 232.5t228 145t277 51q145 0 275 -50t228.5 -145t156 -232.5t57.5 -311.5q0 -172 -57.5 -311.5t-157.5 -237.5l147 -166l-158 -141l-161 182q-76 -37 -159 -56.5t-171 -19.5q-147 0 -279.5 52.5t-229.5 149.5t-153.5 236.5t-56.5 311.5z
M336 725q0 -121 36 -220t98 -170t148.5 -110t186.5 -39q47 0 93 9.5t85 25.5l-219 248l158 143l231 -262q57 70 89 165t32 210q0 121 -36 219t-99.5 167t-149.5 105.5t-184 36.5q-100 0 -186.5 -36.5t-148.5 -105.5t-98 -167t-36 -219z" />
    <glyph glyph-name="R" unicode="R" horiz-adv-x="1378" 
d="M164 0v1434h616q127 0 219.5 -32t150.5 -86t87 -128t29 -156q0 -145 -74 -233t-176 -115v-4q76 -20 125 -84t84 -211l88 -385h-244l-84 373q-27 121 -83 166t-173 45h-332v-584h-233zM397 788h357q139 0 204.5 68t65.5 162q0 92 -66.5 152.5t-197.5 60.5h-363v-443z" />
    <glyph glyph-name="S" unicode="S" horiz-adv-x="1282" 
d="M63 453h230q14 -137 114.5 -206t233.5 -69q63 0 121.5 14.5t101.5 42t70 65.5t27 87q0 92 -74 142.5t-207 82.5l-154 35q-205 47 -304 140.5t-99 246.5q0 94 42 174t112.5 136.5t167 88t202.5 31.5q111 0 206 -28.5t166 -84t114 -136t51 -183.5h-226q-14 104 -98 169
t-213 65q-117 0 -204 -61.5t-87 -149.5q0 -76 57.5 -120t176.5 -71l174 -41q197 -45 316.5 -141t119.5 -268q0 -109 -48 -191t-127 -136t-179.5 -80.5t-204.5 -26.5q-117 0 -218 28.5t-178 88t-125 148.5t-57 208z" />
    <glyph glyph-name="T" unicode="T" horiz-adv-x="1226" 
d="M20 1231v203h1188v-203h-475v-1231h-237v1231h-476z" />
    <glyph glyph-name="U" unicode="U" horiz-adv-x="1439" 
d="M137 571v863h236v-850q0 -188 97 -293t251 -105t249 103.5t95 290.5v854h238v-861q0 -141 -44.5 -253.5t-121 -188.5t-185 -116t-235.5 -40t-234.5 40t-183.5 115t-119 186.5t-43 254.5z" />
    <glyph glyph-name="V" unicode="V" horiz-adv-x="1343" 
d="M10 1434h256l414 -1155l412 1155h241l-528 -1434h-266z" />
    <glyph glyph-name="W" unicode="W" horiz-adv-x="1968" 
d="M25 1434h235l309 -1129l299 1129h242l299 -1127l311 1127h222l-410 -1434h-248l-299 1122l-301 -1122h-248z" />
    <glyph glyph-name="X" unicode="X" horiz-adv-x="1351" 
d="M10 0l522 721l-497 713h284l363 -531l367 531h268l-496 -693l520 -741h-284l-385 557l-391 -557h-271z" />
    <glyph glyph-name="Y" unicode="Y" horiz-adv-x="1249" 
d="M-12 1434h272l373 -656l373 656h258l-521 -893v-541h-235v539z" />
    <glyph glyph-name="Z" unicode="Z" horiz-adv-x="1300" 
d="M78 0v217l858 1014h-830v203h1108v-215l-858 -1016h869v-203h-1147z" />
    <glyph glyph-name="bracketleft" unicode="[" horiz-adv-x="704" 
d="M164 -272v1781h487v-176h-266v-1427h266v-178h-487z" />
    <glyph glyph-name="backslash" unicode="\" horiz-adv-x="956" 
d="M-27 1456h228l800 -1593h-227z" />
    <glyph glyph-name="bracketright" unicode="]" horiz-adv-x="706" 
d="M70 -94h266v1427h-266v178h487v-1781h-487v176z" />
    <glyph glyph-name="asciicircum" unicode="^" horiz-adv-x="1044" 
d="M74 901l362 533h174l359 -533h-226l-223 334l-225 -334h-221z" />
    <glyph glyph-name="underscore" unicode="_" horiz-adv-x="901" 
d="M16 -68h869v-139h-869v139z" />
    <glyph glyph-name="grave" unicode="`" horiz-adv-x="440" 
d="M20 1473h238l113 -265h-203z" />
    <glyph glyph-name="a" unicode="a" horiz-adv-x="1142" 
d="M80 303q0 86 37 145.5t100.5 99.5t150.5 64.5t185 42.5l238 45q-2 111 -61.5 159t-164.5 48q-102 0 -163.5 -47t-77.5 -135h-218q20 166 150.5 263t314.5 97q92 0 172 -21.5t139.5 -69.5t92.5 -125.5t33 -188.5l-4 -467q0 -25 3 -72t7 -141h-205l-4 141
q-51 -76 -136 -118.5t-204 -42.5q-74 0 -143.5 20t-123 61t-86 101.5t-32.5 140.5zM299 313q0 -74 58.5 -113.5t148.5 -39.5q117 0 201 71.5t84 212.5v80q-258 -39 -375 -81t-117 -130z" />
    <glyph glyph-name="b" unicode="b" horiz-adv-x="1275" 
d="M147 0v1475h222v-549q41 66 129 112.5t213 46.5q100 0 189 -35.5t153.5 -104t102.5 -171t38 -235.5q0 -135 -38 -240.5t-103.5 -176.5t-154.5 -108t-189 -37q-123 0 -210 48.5t-130 119.5v-145h-222zM365 539q0 -174 90 -273.5t213 -99.5t210 97t87 276q0 174 -87 266
t-210 92q-131 0 -217 -95t-86 -263z" />
    <glyph glyph-name="c" unicode="c" horiz-adv-x="1159" 
d="M78 539q0 119 42 220t113.5 173t169 112.5t205.5 40.5q90 0 175 -28.5t150.5 -80.5t108.5 -126t52 -162h-217q-25 94 -101 148.5t-170 54.5q-133 0 -217 -100.5t-84 -251.5q0 -158 86 -262.5t215 -104.5q92 0 165 54.5t106 156.5h217q-14 -94 -60.5 -170t-113 -128
t-148.5 -80t-168 -28q-111 0 -207 40t-166.5 113t-111.5 177.5t-41 231.5z" />
    <glyph glyph-name="d" unicode="d" horiz-adv-x="1275" 
d="M82 539q0 131 39 233t105.5 171t154.5 105.5t184 36.5q123 0 210 -47t130 -110v547h221v-1475h-221v143q-45 -72 -131 -119t-207 -47q-100 0 -189 36t-154.5 106.5t-103.5 176t-38 243.5zM311 539q0 -174 85 -273.5t214 -99.5q121 0 210 99.5t89 273.5q0 168 -85 263
t-214 95t-214 -96t-85 -262z" />
    <glyph glyph-name="e" unicode="e" horiz-adv-x="1196" 
d="M76 539q0 125 44 226t116.5 173t168 109.5t197.5 37.5t196.5 -35.5t165 -106.5t113.5 -179.5t43 -249.5v-47h-817q14 -139 105.5 -220t214.5 -81q80 0 153.5 30.5t112.5 106.5h221q-25 -84 -76 -146.5t-117.5 -101.5t-144.5 -58.5t-156 -19.5q-111 0 -209 39t-171.5 111
t-116.5 176.5t-43 235.5zM301 647h588q-8 111 -90 181.5t-201 70.5q-111 0 -196 -67.5t-101 -184.5z" />
    <glyph glyph-name="f" unicode="f" horiz-adv-x="729" 
d="M31 883v178h186v119q0 178 85 238.5t237 60.5q43 0 79.5 -1t71.5 -3v-181q-25 2 -55.5 3t-59.5 1q-66 0 -103.5 -23.5t-37.5 -105.5v-108h256v-178h-256v-883h-217v883h-186z" />
    <glyph glyph-name="g" unicode="g" horiz-adv-x="1251" 
d="M82 563q0 123 39 220.5t103.5 164t150.5 102t182 35.5q113 0 198 -46t130 -119v141h219v-1028q0 -109 -39 -192t-104.5 -138t-154.5 -84t-190 -29q-219 0 -351 99.5t-156 257.5h219q23 -84 95.5 -129t192.5 -45q121 0 195 64.5t74 193.5v164q-41 -70 -126 -116t-202 -46
q-98 0 -185 34.5t-151.5 102.5t-101.5 167t-37 226zM311 563q0 -160 83 -252t206 -92q119 0 204 93.5t85 250.5q0 158 -86 246t-203 88q-123 0 -206 -90t-83 -244z" />
    <glyph glyph-name="h" unicode="h" horiz-adv-x="1200" 
d="M147 0v1475h222v-521v-15v-15q51 76 131 118.5t190 42.5q178 0 277.5 -109.5t99.5 -313.5v-662h-221v614q0 143 -58.5 211t-166.5 68q-98 0 -175 -86t-77 -264v-543h-222z" />
    <glyph glyph-name="i" unicode="i" horiz-adv-x="518" 
d="M145 1237v238h226v-238h-226zM147 0v1061h222v-1061h-222z" />
    <glyph glyph-name="j" unicode="j" horiz-adv-x="518" 
d="M-70 -205h109q63 0 85.5 23.5t22.5 97.5v1145h222v-1167q0 -164 -74 -223.5t-197 -59.5q-45 0 -79.5 1t-88.5 3v180zM145 1237v238h226v-238h-226z" />
    <glyph glyph-name="k" unicode="k" horiz-adv-x="1134" 
d="M147 0v1475h220v-873l448 459h289l-381 -379l391 -682h-256l-295 522l-196 -196v-326h-220z" />
    <glyph glyph-name="l" unicode="l" horiz-adv-x="518" 
d="M147 0v1475h222v-1475h-222z" />
    <glyph glyph-name="m" unicode="m" horiz-adv-x="1853" 
d="M147 0v1061h218v-135q47 78 127.5 118.5t187.5 40.5q94 0 180 -44t135 -138q53 94 145.5 138t198.5 44q78 0 147.5 -22.5t121 -70.5t82 -127t30.5 -189v-676h-221v629q0 135 -61.5 199.5t-155.5 64.5q-92 0 -165 -81t-73 -247v-565h-221v629q0 135 -61.5 199.5
t-155.5 64.5q-92 0 -164.5 -81t-72.5 -249v-563h-222z" />
    <glyph glyph-name="n" unicode="n" horiz-adv-x="1200" 
d="M147 0v1061h220v-139q51 78 132 120.5t191 42.5q178 0 277.5 -109.5t99.5 -313.5v-662h-221v614q0 143 -58.5 211t-166.5 68q-98 0 -175 -86t-77 -264v-543h-222z" />
    <glyph glyph-name="o" unicode="o" horiz-adv-x="1243" 
d="M78 539q0 123 43 224t115.5 172t172 110.5t212.5 39.5q115 0 215 -38.5t172.5 -109.5t114.5 -172t42 -226t-43 -229.5t-116.5 -177.5t-173.5 -114t-211 -41q-113 0 -212.5 40t-172 113t-115.5 177.5t-43 231.5zM305 539q0 -160 88.5 -263.5t227.5 -103.5q139 2 228 104.5
t89 262.5q0 154 -89 253t-228 99q-141 0 -228.5 -99.5t-87.5 -252.5z" />
    <glyph glyph-name="p" unicode="p" horiz-adv-x="1275" 
d="M147 -387v1448h222v-146q41 72 129 121t213 49q100 0 189 -35.5t153.5 -104t102.5 -171t38 -235.5q0 -135 -38 -240.5t-103.5 -176.5t-154.5 -108t-189 -37q-119 0 -206 43t-134 113v-520h-222zM365 539q0 -178 91 -275.5t212 -97.5q123 0 210 96t87 277q0 174 -87 266
t-210 92t-213 -95t-90 -263z" />
    <glyph glyph-name="q" unicode="q" horiz-adv-x="1275" 
d="M82 539q0 131 39 232t105.5 171t154.5 105.5t184 35.5q131 0 214 -50t126 -122v150h219v-1448h-219v532q-47 -76 -133 -122t-205 -46q-100 0 -189 36t-154.5 106.5t-103.5 176t-38 243.5zM313 539q0 -174 84 -273.5t213 -99.5q123 0 211 100.5t88 272.5q0 168 -88 262
t-211 94q-129 0 -213 -93t-84 -263z" />
    <glyph glyph-name="r" unicode="r" horiz-adv-x="759" 
d="M147 0v1061h220v-176q14 29 36.5 58.5t55.5 57.5q45 39 99 53.5t112 14.5q18 0 38.5 -3t30.5 -5v-219q-29 2 -53 4t-47 2q-43 0 -90 -9.5t-87 -36t-66.5 -75.5t-26.5 -129v-598h-222z" />
    <glyph glyph-name="s" unicode="s" horiz-adv-x="1044" 
d="M61 340h218q14 -96 83.5 -139t163.5 -43q84 0 157 32.5t73 106.5q0 57 -53.5 88t-165.5 51l-111 19q-147 27 -238.5 99.5t-91.5 195.5q0 78 34 140t91.5 106t135 67.5t163.5 23.5q82 0 157 -22.5t133 -64.5t96 -105.5t44 -142.5h-217q-8 76 -69.5 115.5t-143.5 39.5
q-90 0 -149.5 -35.5t-59.5 -99.5q0 -53 45 -81.5t140 -43.5l112 -20q172 -29 269.5 -105t97.5 -211q0 -86 -38 -149.5t-100.5 -104.5t-143.5 -61.5t-167 -20.5t-166.5 21.5t-144 67t-104.5 114t-50 162.5z" />
    <glyph glyph-name="t" unicode="t" horiz-adv-x="739" 
d="M31 883v178h186v225l217 92v-317h256v-178h-256v-570q0 -86 30 -110.5t91 -24.5h135v-176q-59 -2 -95 -3t-95 -1q-127 0 -205 55.5t-78 229.5v600h-186z" />
    <glyph glyph-name="u" unicode="u" horiz-adv-x="1187" 
d="M135 395v666h219v-625q0 -133 59.5 -199.5t157.5 -66.5q96 0 171 79t75 251v561h221v-1061h-215v143q-51 -82 -132 -122.5t-191 -40.5q-164 0 -264.5 106.5t-100.5 308.5z" />
    <glyph glyph-name="v" unicode="v" horiz-adv-x="1030" 
d="M4 1061h229l287 -817l287 817h219l-391 -1061h-238z" />
    <glyph glyph-name="w" unicode="w" horiz-adv-x="1568" 
d="M16 1061h224l225 -791l223 791h205l221 -791l225 791h213l-327 -1061h-224l-219 766l-215 -766h-221z" />
    <glyph glyph-name="x" unicode="x" horiz-adv-x="1052" 
d="M14 0l377 537l-371 524h261l251 -375l250 375h248l-366 -518l374 -543h-258l-258 389l-260 -389h-248z" />
    <glyph glyph-name="y" unicode="y" horiz-adv-x="1021" 
d="M4 1061h238l284 -694l269 694h223l-582 -1450h-223l207 498z" />
    <glyph glyph-name="z" unicode="z" horiz-adv-x="1019" 
d="M74 0v205l608 667h-594v189h848v-205l-606 -668h614v-188h-870z" />
    <glyph glyph-name="braceleft" unicode="{" horiz-adv-x="704" 
d="M53 520v178h29q76 0 104.5 44t28.5 178v239q0 109 24.5 175.5t77 102.5t135.5 47t199 9v-178q-141 0 -180 -34t-39 -144v-209q0 -135 -33.5 -213t-130.5 -103v-4q96 -23 130 -98.5t34 -210.5v-219q0 -111 39 -143.5t180 -34.5v-176q-117 -2 -199.5 9t-135 46t-77 102.5
t-24.5 175.5v242q0 129 -28.5 174t-104.5 45h-29z" />
    <glyph glyph-name="bar" unicode="|" horiz-adv-x="536" 
d="M166 -205v1639h205v-1639h-205z" />
    <glyph glyph-name="braceright" unicode="}" horiz-adv-x="704" 
d="M53 -98q141 2 180 34.5t39 143.5v219q0 135 34 211t130 98v4q-96 25 -130 103t-34 213v209q0 111 -38.5 144.5t-180.5 33.5v178q117 2 200 -9t135 -47t76.5 -102.5t24.5 -175.5v-239q0 -133 29 -177.5t105 -44.5h28v-178h-28q-76 0 -105 -45t-29 -174v-242
q0 -109 -24.5 -176t-76.5 -102t-135 -46t-200 -9v176z" />
    <glyph glyph-name="asciitilde" unicode="~" horiz-adv-x="1114" 
d="M20 727q72 143 160 196.5t180 53.5q70 0 127.5 -26.5t102.5 -59.5q43 -33 87 -65.5t93 -32.5q57 0 97 37.5t73 103.5l166 -82q-72 -145 -160 -197.5t-182 -52.5q-70 0 -126 26.5t-101 59.5q-43 31 -87 63.5t-94 32.5q-57 0 -97 -37.5t-73 -103.5z" />
    <glyph glyph-name="uni00A0" unicode="&#xa0;" horiz-adv-x="534" 
 />
    <glyph glyph-name="exclamdown" unicode="&#xa1;" horiz-adv-x="585" 
d="M164 793v268h258v-268h-258zM174 70l53 522v4h131v-4l54 -522v-459h-238v459z" />
    <glyph glyph-name="cent" unicode="&#xa2;" horiz-adv-x="1206" 
d="M88 539q0 106 34 199t93 163t141 117t176 61v178h164v-178q158 -20 274.5 -126.5t133.5 -264.5h-217q-18 74 -70.5 124t-120.5 69v-699q63 20 114.5 70.5t76.5 130.5h217q-27 -166 -143.5 -271.5t-264.5 -127.5v-168h-164v168q-94 14 -176 59t-141 116.5t-93 168
t-34 211.5zM315 539q0 -131 60.5 -226.5t156.5 -128.5v695q-98 -29 -157.5 -121t-59.5 -219z" />
    <glyph glyph-name="sterling" unicode="&#xa3;" horiz-adv-x="1304" 
d="M100 653v189h174v135q0 219 127 337t332 118q82 0 158 -26t135 -75t100 -122.5t52 -170.5h-222q-8 76 -65 138.5t-158 62.5q-119 0 -174 -69.5t-55 -178.5v-149h393v-189h-393v-178q0 -119 -26.5 -183.5t-76.5 -101.5l2 -6q33 4 67 6.5t79 2.5h649v-193h-1089v160
q88 33 126.5 96t38.5 152v245h-174z" />
    <glyph glyph-name="yen" unicode="&#xa5;" horiz-adv-x="1312" 
d="M27 1434h272l373 -656l372 656h259l-443 -760h277v-178h-355v-103h355v-178h-355v-215h-235v215h-367v178h367v103h-367v178h287z" />
    <glyph glyph-name="brokenbar" unicode="&#xa6;" horiz-adv-x="536" 
d="M166 -205v666h205v-666h-205zM166 778v656h205v-656h-205z" />
    <glyph glyph-name="section" unicode="&#xa7;" horiz-adv-x="1134" 
d="M106 600q0 113 68 183.5t141 109.5q-51 37 -89 93t-38 136q0 70 32 129.5t84 101.5t123 65.5t146 23.5q152 0 258.5 -89t120.5 -251h-215q-6 76 -50 121t-114 45q-72 0 -121 -44t-49 -102q0 -57 44.5 -91t107.5 -54l158 -55q139 -47 221 -122t82 -204
q0 -113 -67.5 -183.5t-139.5 -109.5q51 -37 89 -93t38 -136q0 -70 -32 -129.5t-85 -101.5t-123.5 -65.5t-146.5 -23.5q-150 0 -257.5 89t-121.5 251h215q8 -76 52 -121t112 -45q72 0 121 44t49 102q0 57 -44 91t-108 54l-155 55q-141 47 -223.5 122t-82.5 204zM311 612
q0 -72 59.5 -118.5t170.5 -81.5l82 -27q66 25 128 74t62 125q0 72 -60.5 119t-170.5 81l-82 27q-63 -25 -126 -74t-63 -125z" />
    <glyph glyph-name="dieresis" unicode="&#xa8;" horiz-adv-x="784" 
d="M78 1251v222h221v-222h-221zM485 1251v222h222v-222h-222z" />
    <glyph glyph-name="copyright" unicode="&#xa9;" horiz-adv-x="1677" 
d="M47 723q0 166 62.5 311.5t169 252t252 169t309.5 62.5q162 0 307 -62.5t252.5 -169t170 -252t62.5 -311.5q0 -164 -62.5 -310.5t-170 -255t-252.5 -172t-307 -63.5q-164 0 -309.5 63.5t-252 172t-169 255t-62.5 310.5zM231 723q0 -127 47.5 -240.5t129 -198.5
t193.5 -135.5t239 -50.5t238.5 50.5t192.5 135.5t128 198.5t47 240.5q0 123 -47 235.5t-128 196.5t-192.5 135t-238.5 51t-239 -51t-193.5 -135t-129 -196.5t-47.5 -235.5zM444 733q0 90 31 165t85 128t128 83t160 30q70 0 133 -21.5t112.5 -62.5t83 -98.5t42.5 -127.5h-185
q-16 57 -62 99.5t-124 42.5q-98 0 -154.5 -66.5t-56.5 -171.5q0 -104 61.5 -176t149.5 -72q82 0 125 40t61 98h185q-25 -141 -130.5 -226.5t-240.5 -85.5q-88 0 -163 33t-128 89t-83 133t-30 167z" />
    <glyph glyph-name="ordfeminine" unicode="&#xaa;" horiz-adv-x="798" 
d="M80 864q0 129 101.5 183.5t254.5 82.5l178 31q-2 82 -44 114t-115 32q-74 0 -117 -33t-53 -96h-185q14 129 115.5 201.5t243.5 72.5q147 0 243.5 -69.5t94.5 -237.5l-2 -346q0 -18 3 -55t5 -109h-174l-2 104q-39 -57 -103.5 -89t-152.5 -32q-55 0 -108.5 16.5t-93.5 47.5
t-64.5 77t-24.5 105zM266 874q0 -51 41 -79.5t105 -28.5q84 0 143 49t59 150v59q-184 -29 -266 -58t-82 -92z" />
    <glyph glyph-name="guillemotleft" unicode="&#xab;" horiz-adv-x="1042" 
d="M76 545v4l250 383h202l-215 -383l215 -381h-202zM496 545v4l250 383h202l-215 -383l215 -381h-202z" />
    <glyph glyph-name="uni00AD" unicode="&#xad;" horiz-adv-x="927" 
d="M117 469v203h694v-203h-694z" />
    <glyph glyph-name="registered" unicode="&#xae;" horiz-adv-x="991" 
d="M78 1061q0 88 32.5 163.5t89 131t133.5 88.5t163 33t161.5 -32t133 -87t90 -131t32.5 -166q0 -88 -33.5 -165t-90 -133t-133 -89t-160.5 -33q-88 0 -164 33t-132.5 89t-89 133t-32.5 165zM180 1061q0 -66 24.5 -125t67.5 -104.5t100.5 -72t123.5 -26.5t123 26.5t100 72
t67.5 104.5t24.5 125q0 61 -24.5 119.5t-67.5 103.5t-100.5 71.5t-122.5 26.5q-66 0 -124.5 -26.5t-100.5 -71.5t-66.5 -103.5t-24.5 -119.5zM334 854v416h209q61 0 98 -32t37 -83q0 -45 -27.5 -73.5t-68.5 -32.5v-2q33 -8 50 -24.5t27 -55.5l29 -113h-108l-27 100
q-8 37 -22.5 49.5t-45.5 12.5h-47v-162h-104zM438 1100h72q31 0 46 11t15 36q0 23 -15 34t-44 11h-74v-92z" />
    <glyph glyph-name="macron" unicode="&#xaf;" horiz-adv-x="708" 
d="M92 1276v151h524v-151h-524z" />
    <glyph glyph-name="degree" unicode="&#xb0;" horiz-adv-x="698" 
d="M53 1167q0 121 89 206t208 85q117 0 206 -84t89 -207q0 -61 -24.5 -114.5t-64.5 -92t-94.5 -61t-111.5 -22.5q-121 0 -209 83.5t-88 206.5zM211 1167q0 -57 41 -99t98 -42t98 41t41 100q0 57 -40.5 100.5t-98.5 43.5q-59 0 -99 -42t-40 -102z" />
    <glyph glyph-name="plusminus" unicode="&#xb1;" horiz-adv-x="1302" 
d="M141 70v178h1020v-178h-1020zM141 725v178h414v350h193v-350h413v-178h-413v-363h-193v363h-414z" />
    <glyph glyph-name="uni00B2" unicode="&#xb2;" horiz-adv-x="686" 
d="M27 666l6 49q12 84 69.5 149.5t167.5 133.5q100 63 146.5 118.5t46.5 127.5q0 63 -32 104t-95 41t-98 -49t-37 -131h-154q8 106 84 174.5t205 68.5q131 0 215 -62t84 -165q0 -104 -69.5 -165.5t-217.5 -127.5q-92 -41 -137 -74.5t-57 -60.5h475v-131h-602z" />
    <glyph glyph-name="uni00B3" unicode="&#xb3;" horiz-adv-x="708" 
d="M35 875h153q6 -68 41 -113t113 -45q70 0 106.5 41t36.5 115q0 78 -42 118t-117 40q-20 0 -38 -1.5t-38 -3.5v74q20 -2 37.5 -3t38.5 -1q68 0 109.5 38t41.5 114q0 68 -34.5 104.5t-98.5 36.5q-70 0 -105.5 -46t-41.5 -110h-152q12 100 91 159.5t208 59.5q123 0 213 -53
t90 -149q0 -82 -57.5 -127t-143.5 -58v-4q92 -8 151.5 -57t59.5 -133q0 -104 -92 -160.5t-223 -56.5q-135 0 -216 58t-91 163z" />
    <glyph glyph-name="acute" unicode="&#xb4;" horiz-adv-x="440" 
d="M70 1208l112 265h236l-146 -265h-202z" />
    <glyph glyph-name="mu" unicode="&#xb5;" horiz-adv-x="1210" 
d="M150 -389v1012h2v438h219v-625q0 -133 59 -199.5t158 -66.5q96 0 171 79t75 251v561h221v-1061h-215v143q-51 -82 -132 -122.5t-192 -40.5q-39 0 -76 6t-69 18v-393h-221z" />
    <glyph glyph-name="paragraph" unicode="&#xb6;" horiz-adv-x="1226" 
d="M92 1106q0 156 100.5 242t247.5 86h693v-164h-183v-1270h-184v1270h-131v-1270h-182v768h-13q-147 0 -247.5 90t-100.5 248z" />
    <glyph glyph-name="periodcentered" unicode="&#xb7;" horiz-adv-x="555" 
d="M137 475v268h256v-268h-256z" />
    <glyph glyph-name="cedilla" unicode="&#xb8;" horiz-adv-x="471" 
d="M53 -258q29 -8 70 -15.5t67 -7.5q39 0 66 12.5t27 45.5q0 27 -29 39t-66 12q-20 0 -44.5 -5t-47.5 -13h-14l72 239h141l-53 -127q4 2 16 3t23 1q43 0 94 -29.5t51 -111.5q0 -88 -58.5 -134t-162.5 -46q-43 0 -84 7t-68 15v115z" />
    <glyph glyph-name="uni00B9" unicode="&#xb9;" horiz-adv-x="477" 
d="M43 1213v78l207 143h129v-768h-162v657z" />
    <glyph glyph-name="ordmasculine" unicode="&#xba;" horiz-adv-x="733" 
d="M78 1040q0 92 32.5 169t89 130.5t132.5 83t162 29.5q88 0 163.5 -28.5t132 -82t89 -130t32.5 -171.5q0 -94 -32.5 -173t-90 -133t-133 -85t-161.5 -31t-163 30t-132.5 84t-88 133t-32.5 175zM270 1040q0 -115 63 -188.5t161 -73.5q100 0 161.5 73t61.5 189
q0 111 -61.5 181.5t-161.5 70.5t-162 -70.5t-62 -181.5z" />
    <glyph glyph-name="guillemotright" unicode="&#xbb;" horiz-adv-x="1042" 
d="M111 168l215 383l-215 381h202l250 -377v-4l-250 -383h-202zM530 168l215 383l-215 381h203l250 -377v-4l-250 -383h-203z" />
    <glyph glyph-name="onequarter" unicode="&#xbc;" horiz-adv-x="1525" 
d="M100 1213v78l207 143h129v-768h-162v657zM139 0l1016 1434h223l-1015 -1434h-224zM808 205v90l359 473h160v-453h112v-110h-112v-205h-156v205h-363zM911 315h260v340z" />
    <glyph glyph-name="onehalf" unicode="&#xbd;" horiz-adv-x="1611" 
d="M100 1213v78l207 143h129v-768h-162v657zM139 0l1016 1434h223l-1015 -1434h-224zM906 0l6 49q12 84 69.5 149.5t167.5 133.5q100 63 146.5 118.5t46.5 127.5q0 63 -32 104t-95 41t-98 -49t-37 -131h-154q8 106 84 174.5t205 68.5q131 0 215 -62t84 -165
q0 -104 -69.5 -165.5t-217.5 -127.5q-92 -41 -137 -74.5t-57 -60.5h475v-131h-602z" />
    <glyph glyph-name="threequarters" unicode="&#xbe;" horiz-adv-x="1722" 
d="M90 875h153q6 -68 41 -113t113 -45q70 0 106.5 41t36.5 115q0 78 -42 118t-117 40q-20 0 -38 -1.5t-38 -3.5v74q20 -2 37.5 -3t38.5 -1q68 0 109.5 38t41.5 114q0 68 -34.5 104.5t-98.5 36.5q-70 0 -105.5 -46t-41.5 -110h-152q12 100 91 159.5t208 59.5q123 0 213 -53
t90 -149q0 -82 -57.5 -127t-143.5 -58v-4q92 -8 151.5 -57t59.5 -133q0 -104 -92 -160.5t-223 -56.5q-135 0 -216 58t-91 163zM335 0l1016 1434h223l-1015 -1434h-224zM1005 205v90l359 473h160v-453h112v-110h-112v-205h-156v205h-363zM1108 315h260v340z" />
    <glyph glyph-name="questiondown" unicode="&#xbf;" horiz-adv-x="1169" 
d="M82 -12q0 135 69.5 217t213.5 151q100 49 128.5 96.5t28.5 118.5v52h197v-62q0 -45 -3 -77.5t-11 -59.5q-18 -47 -51 -89t-109 -87q-104 -63 -169 -117.5t-65 -140.5q0 -94 71 -156.5t187 -62.5q123 0 197 74.5t82 197.5h225q-8 -104 -50 -189t-110.5 -143.5
t-156.5 -90.5t-189 -32q-96 0 -185 26t-154.5 76t-105.5 124.5t-40 173.5zM506 827v242h233v-242h-233z" />
    <glyph glyph-name="Agrave" unicode="&#xc0;" 
d="M10 0l574 1434h258l571 -1434h-250l-137 356h-639l-137 -356h-240zM460 1817h238l113 -265h-203zM465 561h483l-241 633z" />
    <glyph glyph-name="Aacute" unicode="&#xc1;" 
d="M10 0l574 1434h258l571 -1434h-250l-137 356h-639l-137 -356h-240zM465 561h483l-241 633zM648 1552l112 265h236l-146 -265h-202z" />
    <glyph glyph-name="Acircumflex" unicode="&#xc2;" 
d="M10 0l574 1434h258l571 -1434h-250l-137 356h-639l-137 -356h-240zM385 1552l231 265h211l229 -265h-202l-138 146l-129 -146h-202zM465 561h483l-241 633z" />
    <glyph glyph-name="Atilde" unicode="&#xc3;" 
d="M10 0l574 1434h258l571 -1434h-250l-137 356h-639l-137 -356h-240zM346 1636q41 90 104.5 135.5t136.5 45.5q45 0 82 -14.5t78 -45.5q29 -20 55.5 -34.5t51.5 -14.5q31 0 57.5 20.5t50.5 71.5l131 -74q-43 -88 -106 -134t-135 -46q-47 0 -84 14.5t-76 45.5
q-29 20 -55.5 34.5t-51.5 14.5q-33 0 -59.5 -20.5t-50.5 -71.5zM465 561h483l-241 633z" />
    <glyph glyph-name="Adieresis" unicode="&#xc4;" 
d="M10 0l574 1434h258l571 -1434h-250l-137 356h-639l-137 -356h-240zM406 1595v222h221v-222h-221zM465 561h483l-241 633zM813 1595v222h222v-222h-222z" />
    <glyph glyph-name="Aring" unicode="&#xc5;" 
d="M10 0l574 1434h258l571 -1434h-250l-137 356h-639l-137 -356h-240zM465 561h483l-241 633zM543 1673q0 70 54 121t124 51q72 0 125 -51t53 -121q0 -72 -53 -122t-125 -50q-70 0 -124 50t-54 122zM651 1673q0 -29 21.5 -50.5t48.5 -21.5q29 0 48 21.5t19 50.5
q0 27 -19.5 48.5t-47.5 21.5q-27 0 -48.5 -21.5t-21.5 -48.5z" />
    <glyph glyph-name="AE" unicode="&#xc6;" horiz-adv-x="2084" 
d="M2 0l883 1434h1110v-203h-770v-383h712v-201h-712v-444h784v-203h-1018v395h-497l-234 -395h-258zM612 596h379v641z" />
    <glyph glyph-name="Ccedilla" unicode="&#xc7;" horiz-adv-x="1507" 
d="M86 725q0 172 57.5 310.5t153.5 232.5t223 145t264 51q125 0 235.5 -34.5t197 -99t142.5 -159t73 -208.5h-236q-33 135 -145.5 212.5t-266.5 77.5q-94 0 -176 -37.5t-142 -106.5t-95 -166t-35 -218q0 -119 35 -218t95 -171t142 -111t176 -39q154 0 261.5 85t152.5 225
h236q-20 -117 -78 -214.5t-143 -165t-194.5 -104.5t-234.5 -37q-139 0 -267 52.5t-223 148.5t-151.5 236.5t-56.5 312.5zM628 -258q29 -8 70 -15.5t67 -7.5q39 0 66 12.5t27 45.5q0 27 -29 39t-66 12q-20 0 -44.5 -5t-47.5 -13h-14l72 239h141l-53 -127q4 2 16 3t23 1
q43 0 94 -29.5t51 -111.5q0 -88 -58.5 -134t-162.5 -46q-43 0 -84 7t-68 15v115z" />
    <glyph glyph-name="Egrave" unicode="&#xc8;" horiz-adv-x="1265" 
d="M164 0v1434h1005v-203h-770v-383h715v-203h-715v-442h785v-203h-1020zM419 1817h238l113 -265h-203z" />
    <glyph glyph-name="Eacute" unicode="&#xc9;" horiz-adv-x="1265" 
d="M164 0v1434h1005v-203h-770v-383h715v-203h-715v-442h785v-203h-1020zM607 1552l112 265h236l-146 -265h-202z" />
    <glyph glyph-name="Ecircumflex" unicode="&#xca;" horiz-adv-x="1265" 
d="M164 0v1434h1005v-203h-770v-383h715v-203h-715v-442h785v-203h-1020zM342 1552l231 265h211l229 -265h-202l-138 146l-129 -146h-202z" />
    <glyph glyph-name="Edieresis" unicode="&#xcb;" horiz-adv-x="1265" 
d="M164 0v1434h1005v-203h-770v-383h715v-203h-715v-442h785v-203h-1020zM363 1595v222h221v-222h-221zM770 1595v222h222v-222h-222z" />
    <glyph glyph-name="Igrave" unicode="&#xcc;" horiz-adv-x="565" 
d="M24 1817h238l113 -265h-203zM164 0v1434h237v-1434h-237z" />
    <glyph glyph-name="Iacute" unicode="&#xcd;" horiz-adv-x="565" 
d="M164 0v1434h237v-1434h-237zM211 1552l112 265h236l-146 -265h-202z" />
    <glyph glyph-name="Icircumflex" unicode="&#xce;" horiz-adv-x="565" 
d="M-51 1552l231 265h211l229 -265h-202l-138 146l-129 -146h-202zM164 0v1434h237v-1434h-237z" />
    <glyph glyph-name="Idieresis" unicode="&#xcf;" horiz-adv-x="565" 
d="M-31 1595v222h221v-222h-221zM164 0v1434h237v-1434h-237zM376 1595v222h222v-222h-222z" />
    <glyph glyph-name="Eth" unicode="&#xd0;" horiz-adv-x="1587" 
d="M-2 653v178h238v603h489q172 0 311.5 -43t237.5 -130t151.5 -221.5t53.5 -314.5q0 -174 -54.5 -309t-151.5 -227.5t-237.5 -140.5t-312.5 -48h-487v653h-238zM473 203h225q272 0 403.5 141t131.5 381t-131 373t-404 133h-225v-400h291v-178h-291v-450z" />
    <glyph glyph-name="Ntilde" unicode="&#xd1;" horiz-adv-x="1550" 
d="M164 0v1434h305l684 -1137v1137h231v-1434h-301l-688 1141v-1141h-231zM422 1636q41 90 104.5 135.5t136.5 45.5q45 0 82 -14.5t78 -45.5q29 -20 55.5 -34.5t51.5 -14.5q31 0 57.5 20.5t50.5 71.5l131 -74q-43 -88 -106 -134t-135 -46q-47 0 -84 14.5t-76 45.5
q-29 20 -55.5 34.5t-51.5 14.5q-33 0 -59.5 -20.5t-50.5 -71.5z" />
    <glyph glyph-name="Ograve" unicode="&#xd2;" horiz-adv-x="1607" 
d="M86 725q0 172 58.5 310.5t155.5 232.5t228 145t277 51q145 0 275 -50t228.5 -145t156 -232.5t57.5 -311.5q0 -172 -57.5 -311.5t-155 -235.5t-228.5 -149.5t-276 -53.5q-147 0 -279.5 52.5t-229.5 149.5t-153.5 236.5t-56.5 311.5zM336 725q0 -121 36 -220t98 -170
t148.5 -110t186.5 -39t186 39t148.5 108.5t98.5 170t36 221.5t-36 219t-99.5 167t-149.5 105.5t-184 36.5q-100 0 -186.5 -36.5t-148.5 -105.5t-98 -167t-36 -219zM546 1817h238l113 -265h-203z" />
    <glyph glyph-name="Oacute" unicode="&#xd3;" horiz-adv-x="1607" 
d="M86 725q0 172 58.5 310.5t155.5 232.5t228 145t277 51q145 0 275 -50t228.5 -145t156 -232.5t57.5 -311.5q0 -172 -57.5 -311.5t-155 -235.5t-228.5 -149.5t-276 -53.5q-147 0 -279.5 52.5t-229.5 149.5t-153.5 236.5t-56.5 311.5zM336 725q0 -121 36 -220t98 -170
t148.5 -110t186.5 -39t186 39t148.5 108.5t98.5 170t36 221.5t-36 219t-99.5 167t-149.5 105.5t-184 36.5q-100 0 -186.5 -36.5t-148.5 -105.5t-98 -167t-36 -219zM732 1552l112 265h236l-146 -265h-202z" />
    <glyph glyph-name="Ocircumflex" unicode="&#xd4;" horiz-adv-x="1607" 
d="M86 725q0 172 58.5 310.5t155.5 232.5t228 145t277 51q145 0 275 -50t228.5 -145t156 -232.5t57.5 -311.5q0 -172 -57.5 -311.5t-155 -235.5t-228.5 -149.5t-276 -53.5q-147 0 -279.5 52.5t-229.5 149.5t-153.5 236.5t-56.5 311.5zM336 725q0 -121 36 -220t98 -170
t148.5 -110t186.5 -39t186 39t148.5 108.5t98.5 170t36 221.5t-36 219t-99.5 167t-149.5 105.5t-184 36.5q-100 0 -186.5 -36.5t-148.5 -105.5t-98 -167t-36 -219zM469 1552l231 265h211l229 -265h-202l-138 146l-129 -146h-202z" />
    <glyph glyph-name="Otilde" unicode="&#xd5;" horiz-adv-x="1607" 
d="M86 725q0 172 58.5 310.5t155.5 232.5t228 145t277 51q145 0 275 -50t228.5 -145t156 -232.5t57.5 -311.5q0 -172 -57.5 -311.5t-155 -235.5t-228.5 -149.5t-276 -53.5q-147 0 -279.5 52.5t-229.5 149.5t-153.5 236.5t-56.5 311.5zM336 725q0 -121 36 -220t98 -170
t148.5 -110t186.5 -39t186 39t148.5 108.5t98.5 170t36 221.5t-36 219t-99.5 167t-149.5 105.5t-184 36.5q-100 0 -186.5 -36.5t-148.5 -105.5t-98 -167t-36 -219zM430 1636q41 90 104.5 135.5t136.5 45.5q45 0 82 -14.5t78 -45.5q29 -20 55.5 -34.5t51.5 -14.5
q31 0 57.5 20.5t50.5 71.5l131 -74q-43 -88 -106 -134t-135 -46q-47 0 -84 14.5t-76 45.5q-29 20 -55.5 34.5t-51.5 14.5q-33 0 -59.5 -20.5t-50.5 -71.5z" />
    <glyph glyph-name="Odieresis" unicode="&#xd6;" horiz-adv-x="1607" 
d="M86 725q0 172 58.5 310.5t155.5 232.5t228 145t277 51q145 0 275 -50t228.5 -145t156 -232.5t57.5 -311.5q0 -172 -57.5 -311.5t-155 -235.5t-228.5 -149.5t-276 -53.5q-147 0 -279.5 52.5t-229.5 149.5t-153.5 236.5t-56.5 311.5zM336 725q0 -121 36 -220t98 -170
t148.5 -110t186.5 -39t186 39t148.5 108.5t98.5 170t36 221.5t-36 219t-99.5 167t-149.5 105.5t-184 36.5q-100 0 -186.5 -36.5t-148.5 -105.5t-98 -167t-36 -219zM490 1595v222h221v-222h-221zM897 1595v222h222v-222h-222z" />
    <glyph glyph-name="multiply" unicode="&#xd7;" horiz-adv-x="1112" 
d="M111 371l317 317l-317 318l137 139l319 -318l318 318l133 -133l-320 -318l320 -319l-139 -135l-318 317l-317 -317z" />
    <glyph glyph-name="Oslash" unicode="&#xd8;" horiz-adv-x="1603" 
d="M86 725q0 172 58.5 310.5t155.5 232.5t228 145t277 51q86 0 167 -18.5t154 -50.5l93 143h245l-176 -250q106 -94 170 -237.5t64 -325.5q0 -172 -57.5 -311.5t-155 -235.5t-228.5 -149.5t-276 -53.5q-88 0 -171 18.5t-157 55.5l-108 -153h-242l188 264
q-104 98 -166.5 241.5t-62.5 323.5zM336 725q0 -111 30.5 -205t86.5 -164l544 856q-45 20 -93 30.5t-99 10.5q-100 0 -186.5 -36.5t-148.5 -105.5t-98 -167t-36 -219zM608 229q45 -20 94.5 -31.5t102.5 -11.5q100 0 186 39t148.5 108.5t98.5 170t36 221.5q0 115 -32 208
t-89 161z" />
    <glyph glyph-name="Ugrave" unicode="&#xd9;" horiz-adv-x="1447" 
d="M137 571v863h236v-850q0 -188 97 -293t251 -105t249 103.5t95 290.5v854h238v-861q0 -141 -44.5 -253.5t-121 -188.5t-185 -116t-235.5 -40t-234.5 40t-183.5 115t-119 186.5t-43 254.5zM471 1817h238l113 -265h-203z" />
    <glyph glyph-name="Uacute" unicode="&#xda;" horiz-adv-x="1447" 
d="M137 571v863h236v-850q0 -188 97 -293t251 -105t249 103.5t95 290.5v854h238v-861q0 -141 -44.5 -253.5t-121 -188.5t-185 -116t-235.5 -40t-234.5 40t-183.5 115t-119 186.5t-43 254.5zM658 1552l112 265h236l-146 -265h-202z" />
    <glyph glyph-name="Ucircumflex" unicode="&#xdb;" horiz-adv-x="1447" 
d="M137 571v863h236v-850q0 -188 97 -293t251 -105t249 103.5t95 290.5v854h238v-861q0 -141 -44.5 -253.5t-121 -188.5t-185 -116t-235.5 -40t-234.5 40t-183.5 115t-119 186.5t-43 254.5zM396 1552l231 265h211l229 -265h-202l-138 146l-129 -146h-202z" />
    <glyph glyph-name="Udieresis" unicode="&#xdc;" horiz-adv-x="1447" 
d="M137 571v863h236v-850q0 -188 97 -293t251 -105t249 103.5t95 290.5v854h238v-861q0 -141 -44.5 -253.5t-121 -188.5t-185 -116t-235.5 -40t-234.5 40t-183.5 115t-119 186.5t-43 254.5zM414 1595v222h221v-222h-221zM821 1595v222h222v-222h-222z" />
    <glyph glyph-name="Yacute" unicode="&#xdd;" horiz-adv-x="1224" 
d="M-12 1434h272l373 -656l373 656h258l-521 -893v-541h-235v539zM543 1552l112 265h236l-146 -265h-202z" />
    <glyph glyph-name="Thorn" unicode="&#xde;" horiz-adv-x="1261" 
d="M164 0v1434h237v-242h289q244 0 390.5 -107.5t146.5 -341.5q0 -119 -39 -204.5t-109.5 -140t-170 -81t-218.5 -26.5h-289v-291h-237zM401 494h275q154 0 229.5 65.5t75.5 183.5q0 117 -76.5 181.5t-228.5 64.5h-275v-495z" />
    <glyph glyph-name="germandbls" unicode="&#xdf;" horiz-adv-x="1261" 
d="M162 0v1004q0 113 40 200.5t106.5 147t154.5 90.5t184 31q88 0 172 -24t148.5 -69t104.5 -111.5t40 -154.5q0 -158 -88 -234.5t-209 -91.5v-2q74 -6 140.5 -29.5t115.5 -68.5t79 -112.5t30 -159.5q0 -109 -44 -190t-115 -132t-160 -75.5t-177 -24.5q-45 0 -83 3t-77 7
v193q33 -6 68 -9.5t67 -3.5q135 0 216 63.5t81 180.5q0 123 -91 186.5t-244 63.5h-39v203h36q115 0 195 52t80 157q0 96 -70.5 145t-177.5 49q-111 0 -186.5 -75.5t-75.5 -207.5v-1001h-221z" />
    <glyph glyph-name="agrave" unicode="&#xe0;" horiz-adv-x="1142" 
d="M80 303q0 86 37 145.5t100.5 99.5t150.5 64.5t185 42.5l238 45q-2 111 -61.5 159t-164.5 48q-102 0 -163.5 -47t-77.5 -135h-218q20 166 150.5 263t314.5 97q92 0 172 -21.5t139.5 -69.5t92.5 -125.5t33 -188.5l-4 -467q0 -25 3 -72t7 -141h-205l-4 141
q-51 -76 -136 -118.5t-204 -42.5q-74 0 -143.5 20t-123 61t-86 101.5t-32.5 140.5zM299 313q0 -74 58.5 -113.5t148.5 -39.5q117 0 201 71.5t84 212.5v80q-258 -39 -375 -81t-117 -130zM313 1465h238l113 -265h-203z" />
    <glyph glyph-name="aacute" unicode="&#xe1;" horiz-adv-x="1142" 
d="M80 303q0 86 37 145.5t100.5 99.5t150.5 64.5t185 42.5l238 45q-2 111 -61.5 159t-164.5 48q-102 0 -163.5 -47t-77.5 -135h-218q20 166 150.5 263t314.5 97q92 0 172 -21.5t139.5 -69.5t92.5 -125.5t33 -188.5l-4 -467q0 -25 3 -72t7 -141h-205l-4 141
q-51 -76 -136 -118.5t-204 -42.5q-74 0 -143.5 20t-123 61t-86 101.5t-32.5 140.5zM299 313q0 -74 58.5 -113.5t148.5 -39.5q117 0 201 71.5t84 212.5v80q-258 -39 -375 -81t-117 -130zM500 1200l112 265h236l-146 -265h-202z" />
    <glyph glyph-name="acircumflex" unicode="&#xe2;" horiz-adv-x="1142" 
d="M80 303q0 86 37 145.5t100.5 99.5t150.5 64.5t185 42.5l238 45q-2 111 -61.5 159t-164.5 48q-102 0 -163.5 -47t-77.5 -135h-218q20 166 150.5 263t314.5 97q92 0 172 -21.5t139.5 -69.5t92.5 -125.5t33 -188.5l-4 -467q0 -25 3 -72t7 -141h-205l-4 141
q-51 -76 -136 -118.5t-204 -42.5q-74 0 -143.5 20t-123 61t-86 101.5t-32.5 140.5zM238 1200l231 265h211l229 -265h-202l-138 146l-129 -146h-202zM299 313q0 -74 58.5 -113.5t148.5 -39.5q117 0 201 71.5t84 212.5v80q-258 -39 -375 -81t-117 -130z" />
    <glyph glyph-name="atilde" unicode="&#xe3;" horiz-adv-x="1142" 
d="M80 303q0 86 37 145.5t100.5 99.5t150.5 64.5t185 42.5l238 45q-2 111 -61.5 159t-164.5 48q-102 0 -163.5 -47t-77.5 -135h-218q20 166 150.5 263t314.5 97q92 0 172 -21.5t139.5 -69.5t92.5 -125.5t33 -188.5l-4 -467q0 -25 3 -72t7 -141h-205l-4 141
q-51 -76 -136 -118.5t-204 -42.5q-74 0 -143.5 20t-123 61t-86 101.5t-32.5 140.5zM199 1284q41 90 104.5 135.5t136.5 45.5q45 0 82 -14.5t78 -45.5q29 -20 55.5 -34.5t51.5 -14.5q31 0 57.5 20.5t50.5 71.5l131 -74q-43 -88 -106 -134t-135 -46q-47 0 -84 14.5t-76 45.5
q-29 20 -55.5 34.5t-51.5 14.5q-33 0 -59.5 -20.5t-50.5 -71.5zM299 313q0 -74 58.5 -113.5t148.5 -39.5q117 0 201 71.5t84 212.5v80q-258 -39 -375 -81t-117 -130z" />
    <glyph glyph-name="adieresis" unicode="&#xe4;" horiz-adv-x="1142" 
d="M80 303q0 86 37 145.5t100.5 99.5t150.5 64.5t185 42.5l238 45q-2 111 -61.5 159t-164.5 48q-102 0 -163.5 -47t-77.5 -135h-218q20 166 150.5 263t314.5 97q92 0 172 -21.5t139.5 -69.5t92.5 -125.5t33 -188.5l-4 -467q0 -25 3 -72t7 -141h-205l-4 141
q-51 -76 -136 -118.5t-204 -42.5q-74 0 -143.5 20t-123 61t-86 101.5t-32.5 140.5zM256 1243v222h221v-222h-221zM299 313q0 -74 58.5 -113.5t148.5 -39.5q117 0 201 71.5t84 212.5v80q-258 -39 -375 -81t-117 -130zM663 1243v222h222v-222h-222z" />
    <glyph glyph-name="aring" unicode="&#xe5;" horiz-adv-x="1142" 
d="M80 303q0 86 37 145.5t100.5 99.5t150.5 64.5t185 42.5l238 45q-2 111 -61.5 159t-164.5 48q-102 0 -163.5 -47t-77.5 -135h-218q20 166 150.5 263t314.5 97q92 0 172 -21.5t139.5 -69.5t92.5 -125.5t33 -188.5l-4 -467q0 -25 3 -72t7 -141h-205l-4 141
q-51 -76 -136 -118.5t-204 -42.5q-74 0 -143.5 20t-123 61t-86 101.5t-32.5 140.5zM299 313q0 -74 58.5 -113.5t148.5 -39.5q117 0 201 71.5t84 212.5v80q-258 -39 -375 -81t-117 -130zM394 1321q0 70 54 121t124 51q72 0 125 -51t53 -121q0 -72 -53 -122t-125 -50
q-70 0 -124 50t-54 122zM502 1321q0 -29 21.5 -50.5t48.5 -21.5q29 0 48 21.5t19 50.5q0 27 -19.5 48.5t-47.5 21.5q-27 0 -48.5 -21.5t-21.5 -48.5z" />
    <glyph glyph-name="ae" unicode="&#xe6;" horiz-adv-x="1865" 
d="M80 299q0 88 38 148.5t103.5 100.5t154.5 64.5t191 40.5l203 33v6q0 115 -57.5 166t-157.5 51q-98 0 -159.5 -48t-76.5 -136h-215q8 84 47 151.5t99.5 113.5t140.5 70.5t170 24.5q104 0 199.5 -39.5t146.5 -134.5q68 84 163 129t198 45q102 0 197.5 -35.5t167 -105.5
t114.5 -175t43 -241v-61h-801q12 -139 95 -220t194 -81q88 0 163 33.5t113 115.5h228q-25 -86 -77 -149.5t-120.5 -105.5t-149.5 -62.5t-161 -20.5q-121 0 -227.5 62.5t-172.5 167.5q-57 -100 -154 -163.5t-247 -63.5q-80 0 -151.5 20t-125 60t-85 100.5t-31.5 138.5z
M299 309q0 -72 58.5 -110.5t140.5 -38.5q111 0 191.5 76.5t80.5 230.5v47q-238 -33 -354.5 -72t-116.5 -133zM987 645h559q-2 113 -82.5 183.5t-197.5 70.5q-102 0 -183.5 -68.5t-95.5 -185.5z" />
    <glyph glyph-name="ccedilla" unicode="&#xe7;" horiz-adv-x="1159" 
d="M78 539q0 119 42 220t113.5 173t169 112.5t205.5 40.5q90 0 175 -28.5t150.5 -80.5t108.5 -126t52 -162h-217q-25 94 -101 148.5t-170 54.5q-133 0 -217 -100.5t-84 -251.5q0 -158 86 -262.5t215 -104.5q92 0 165 54.5t106 156.5h217q-14 -94 -60.5 -170t-113 -128
t-148.5 -80t-168 -28q-111 0 -207 40t-166.5 113t-111.5 177.5t-41 231.5zM459 -258q29 -8 70 -15.5t67 -7.5q39 0 66 12.5t27 45.5q0 27 -29 39t-66 12q-20 0 -44.5 -5t-47.5 -13h-14l72 239h141l-53 -127q4 2 16 3t23 1q43 0 94 -29.5t51 -111.5q0 -88 -58.5 -134
t-162.5 -46q-43 0 -84 7t-68 15v115z" />
    <glyph glyph-name="egrave" unicode="&#xe8;" horiz-adv-x="1196" 
d="M76 539q0 125 44 226t116.5 173t168 109.5t197.5 37.5t196.5 -35.5t165 -106.5t113.5 -179.5t43 -249.5v-47h-817q14 -139 105.5 -220t214.5 -81q80 0 153.5 30.5t112.5 106.5h221q-25 -84 -76 -146.5t-117.5 -101.5t-144.5 -58.5t-156 -19.5q-111 0 -209 39t-171.5 111
t-116.5 176.5t-43 235.5zM301 647h588q-8 111 -90 181.5t-201 70.5q-111 0 -196 -67.5t-101 -184.5zM342 1465h238l113 -265h-203z" />
    <glyph glyph-name="eacute" unicode="&#xe9;" horiz-adv-x="1196" 
d="M76 539q0 125 44 226t116.5 173t168 109.5t197.5 37.5t196.5 -35.5t165 -106.5t113.5 -179.5t43 -249.5v-47h-817q14 -139 105.5 -220t214.5 -81q80 0 153.5 30.5t112.5 106.5h221q-25 -84 -76 -146.5t-117.5 -101.5t-144.5 -58.5t-156 -19.5q-111 0 -209 39t-171.5 111
t-116.5 176.5t-43 235.5zM301 647h588q-8 111 -90 181.5t-201 70.5q-111 0 -196 -67.5t-101 -184.5zM529 1200l112 265h236l-146 -265h-202z" />
    <glyph glyph-name="ecircumflex" unicode="&#xea;" horiz-adv-x="1196" 
d="M76 539q0 125 44 226t116.5 173t168 109.5t197.5 37.5t196.5 -35.5t165 -106.5t113.5 -179.5t43 -249.5v-47h-817q14 -139 105.5 -220t214.5 -81q80 0 153.5 30.5t112.5 106.5h221q-25 -84 -76 -146.5t-117.5 -101.5t-144.5 -58.5t-156 -19.5q-111 0 -209 39t-171.5 111
t-116.5 176.5t-43 235.5zM267 1200l231 265h211l229 -265h-202l-138 146l-129 -146h-202zM301 647h588q-8 111 -90 181.5t-201 70.5q-111 0 -196 -67.5t-101 -184.5z" />
    <glyph glyph-name="edieresis" unicode="&#xeb;" horiz-adv-x="1196" 
d="M76 539q0 125 44 226t116.5 173t168 109.5t197.5 37.5t196.5 -35.5t165 -106.5t113.5 -179.5t43 -249.5v-47h-817q14 -139 105.5 -220t214.5 -81q80 0 153.5 30.5t112.5 106.5h221q-25 -84 -76 -146.5t-117.5 -101.5t-144.5 -58.5t-156 -19.5q-111 0 -209 39t-171.5 111
t-116.5 176.5t-43 235.5zM285 1243v222h221v-222h-221zM301 647h588q-8 111 -90 181.5t-201 70.5q-111 0 -196 -67.5t-101 -184.5zM692 1243v222h222v-222h-222z" />
    <glyph glyph-name="igrave" unicode="&#xec;" horiz-adv-x="518" 
d="M0 1465h238l113 -265h-203zM147 0v1061h222v-1061h-222z" />
    <glyph glyph-name="iacute" unicode="&#xed;" horiz-adv-x="518" 
d="M147 0v1061h222v-1061h-222zM187 1200l112 265h236l-146 -265h-202z" />
    <glyph glyph-name="icircumflex" unicode="&#xee;" horiz-adv-x="518" 
d="M-75 1200l231 265h211l229 -265h-202l-138 146l-129 -146h-202zM147 0v1061h222v-1061h-222z" />
    <glyph glyph-name="idieresis" unicode="&#xef;" horiz-adv-x="522" 
d="M-31 1255v218h221v-218h-221zM147 0v1061h222v-1061h-222zM331 1255v218h224v-218h-224z" />
    <glyph glyph-name="eth" unicode="&#xf0;" horiz-adv-x="1220" 
d="M84 500q0 113 45 206t114.5 158.5t154.5 101t165 35.5q119 0 201 -39.5t127 -84.5q-33 96 -101.5 174.5t-168.5 136.5l-95 -148l-147 95l80 125q-51 16 -106.5 28t-112.5 21l43 190q76 -12 146.5 -30.5t135.5 -41.5l103 162l149 -94l-90 -141q190 -104 302 -291.5
t112 -484.5q0 -274 -135.5 -436t-393.5 -162q-113 0 -210 38.5t-167.5 108.5t-110.5 166t-40 207zM313 500q0 -141 88 -234.5t211 -93.5t209 90t86 236q0 135 -86 221t-209 86t-211 -90t-88 -215z" />
    <glyph glyph-name="ntilde" unicode="&#xf1;" horiz-adv-x="1200" 
d="M147 0v1061h220v-139q51 78 132 120.5t191 42.5q178 0 277.5 -109.5t99.5 -313.5v-662h-221v614q0 143 -58.5 211t-166.5 68q-98 0 -175 -86t-77 -264v-543h-222zM236 1284q41 90 104.5 135.5t136.5 45.5q45 0 82 -14.5t78 -45.5q29 -20 55.5 -34.5t51.5 -14.5
q31 0 57.5 20.5t50.5 71.5l131 -74q-43 -88 -106 -134t-135 -46q-47 0 -84 14.5t-76 45.5q-29 20 -55.5 34.5t-51.5 14.5q-33 0 -59.5 -20.5t-50.5 -71.5z" />
    <glyph glyph-name="ograve" unicode="&#xf2;" horiz-adv-x="1243" 
d="M78 539q0 123 43 224t115.5 172t172 110.5t212.5 39.5q115 0 215 -38.5t172.5 -109.5t114.5 -172t42 -226t-43 -229.5t-116.5 -177.5t-173.5 -114t-211 -41q-113 0 -212.5 40t-172 113t-115.5 177.5t-43 231.5zM305 539q0 -160 88.5 -263.5t227.5 -103.5q139 2 228 104.5
t89 262.5q0 154 -89 253t-228 99q-141 0 -228.5 -99.5t-87.5 -252.5zM362 1465h238l113 -265h-203z" />
    <glyph glyph-name="oacute" unicode="&#xf3;" horiz-adv-x="1243" 
d="M78 539q0 123 43 224t115.5 172t172 110.5t212.5 39.5q115 0 215 -38.5t172.5 -109.5t114.5 -172t42 -226t-43 -229.5t-116.5 -177.5t-173.5 -114t-211 -41q-113 0 -212.5 40t-172 113t-115.5 177.5t-43 231.5zM305 539q0 -160 88.5 -263.5t227.5 -103.5q139 2 228 104.5
t89 262.5q0 154 -89 253t-228 99q-141 0 -228.5 -99.5t-87.5 -252.5zM549 1200l112 265h236l-146 -265h-202z" />
    <glyph glyph-name="ocircumflex" unicode="&#xf4;" horiz-adv-x="1243" 
d="M78 539q0 123 43 224t115.5 172t172 110.5t212.5 39.5q115 0 215 -38.5t172.5 -109.5t114.5 -172t42 -226t-43 -229.5t-116.5 -177.5t-173.5 -114t-211 -41q-113 0 -212.5 40t-172 113t-115.5 177.5t-43 231.5zM287 1200l231 265h211l229 -265h-202l-138 146l-129 -146
h-202zM305 539q0 -160 88.5 -263.5t227.5 -103.5q139 2 228 104.5t89 262.5q0 154 -89 253t-228 99q-141 0 -228.5 -99.5t-87.5 -252.5z" />
    <glyph glyph-name="otilde" unicode="&#xf5;" horiz-adv-x="1243" 
d="M78 539q0 123 43 224t115.5 172t172 110.5t212.5 39.5q115 0 215 -38.5t172.5 -109.5t114.5 -172t42 -226t-43 -229.5t-116.5 -177.5t-173.5 -114t-211 -41q-113 0 -212.5 40t-172 113t-115.5 177.5t-43 231.5zM248 1284q41 90 104.5 135.5t136.5 45.5q45 0 82 -14.5
t78 -45.5q29 -20 55.5 -34.5t51.5 -14.5q31 0 57.5 20.5t50.5 71.5l131 -74q-43 -88 -106 -134t-135 -46q-47 0 -84 14.5t-76 45.5q-29 20 -55.5 34.5t-51.5 14.5q-33 0 -59.5 -20.5t-50.5 -71.5zM305 539q0 -160 88.5 -263.5t227.5 -103.5q139 2 228 104.5t89 262.5
q0 154 -89 253t-228 99q-141 0 -228.5 -99.5t-87.5 -252.5z" />
    <glyph glyph-name="odieresis" unicode="&#xf6;" horiz-adv-x="1243" 
d="M78 539q0 123 43 224t115.5 172t172 110.5t212.5 39.5q115 0 215 -38.5t172.5 -109.5t114.5 -172t42 -226t-43 -229.5t-116.5 -177.5t-173.5 -114t-211 -41q-113 0 -212.5 40t-172 113t-115.5 177.5t-43 231.5zM305 539q0 -160 88.5 -263.5t227.5 -103.5q139 2 228 104.5
t89 262.5q0 154 -89 253t-228 99q-141 0 -228.5 -99.5t-87.5 -252.5zM307 1243v222h221v-222h-221zM714 1243v222h222v-222h-222z" />
    <glyph glyph-name="divide" unicode="&#xf7;" horiz-adv-x="1226" 
d="M102 616v179h1004v-179h-1004zM498 154v247h233v-247h-233zM498 1010v247h233v-247h-233z" />
    <glyph glyph-name="oslash" unicode="&#xf8;" horiz-adv-x="1247" 
d="M47 -115l182 252q-70 72 -110.5 174.5t-40.5 227.5q0 123 43 224t115.5 172t172 110.5t212.5 39.5q74 0 141 -16t127 -45l102 145h207l-178 -243q68 -70 106.5 -169.5t38.5 -217.5q0 -125 -43 -229.5t-116.5 -177.5t-173.5 -114t-211 -41q-70 0 -136.5 15.5t-124.5 46.5
l-108 -154h-205zM305 539q0 -66 16.5 -125.5t45.5 -104.5l397 549q-33 14 -69 23.5t-74 9.5q-141 0 -228.5 -99t-87.5 -253zM485 203q31 -14 65 -22.5t71 -8.5q139 2 228 104.5t89 262.5q0 61 -14.5 114.5t-40.5 96.5z" />
    <glyph glyph-name="ugrave" unicode="&#xf9;" horiz-adv-x="1187" 
d="M135 395v666h219v-625q0 -133 59.5 -199.5t157.5 -66.5q96 0 171 79t75 251v561h221v-1061h-215v143q-51 -82 -132 -122.5t-191 -40.5q-164 0 -264.5 106.5t-100.5 308.5zM325 1465h238l113 -265h-203z" />
    <glyph glyph-name="uacute" unicode="&#xfa;" horiz-adv-x="1187" 
d="M135 395v666h219v-625q0 -133 59.5 -199.5t157.5 -66.5q96 0 171 79t75 251v561h221v-1061h-215v143q-51 -82 -132 -122.5t-191 -40.5q-164 0 -264.5 106.5t-100.5 308.5zM512 1200l112 265h236l-146 -265h-202z" />
    <glyph glyph-name="ucircumflex" unicode="&#xfb;" horiz-adv-x="1187" 
d="M135 395v666h219v-625q0 -133 59.5 -199.5t157.5 -66.5q96 0 171 79t75 251v561h221v-1061h-215v143q-51 -82 -132 -122.5t-191 -40.5q-164 0 -264.5 106.5t-100.5 308.5zM250 1200l231 265h211l229 -265h-202l-138 146l-129 -146h-202z" />
    <glyph glyph-name="udieresis" unicode="&#xfc;" horiz-adv-x="1187" 
d="M135 395v666h219v-625q0 -133 59.5 -199.5t157.5 -66.5q96 0 171 79t75 251v561h221v-1061h-215v143q-51 -82 -132 -122.5t-191 -40.5q-164 0 -264.5 106.5t-100.5 308.5zM271 1243v222h221v-222h-221zM678 1243v222h222v-222h-222z" />
    <glyph glyph-name="yacute" unicode="&#xfd;" horiz-adv-x="1021" 
d="M4 1061h238l284 -694l269 694h223l-582 -1450h-223l207 498zM441 1198l112 265h236l-146 -265h-202z" />
    <glyph glyph-name="thorn" unicode="&#xfe;" horiz-adv-x="1275" 
d="M147 -389v1862h222v-547q41 66 129 112.5t213 46.5q100 0 189 -35.5t153.5 -104t102.5 -171t38 -235.5q0 -135 -38 -240.5t-103.5 -176.5t-154.5 -108t-189 -37q-123 0 -210 50.5t-130 126.5v-543h-222zM365 539q0 -174 90 -273.5t213 -99.5t210 97t87 276q0 174 -87 266
t-210 92q-131 0 -217 -95t-86 -263z" />
    <glyph glyph-name="ydieresis" unicode="&#xff;" horiz-adv-x="1021" 
d="M4 1061h238l284 -694l269 694h223l-582 -1450h-223l207 498zM199 1241v222h221v-222h-221zM606 1241v222h222v-222h-222z" />
    <glyph glyph-name="OE" unicode="&#x152;" horiz-adv-x="2080" 
d="M84 725q0 178 61.5 311t167 221.5t251 132.5t310.5 44h1113v-203h-770v-383h714v-203h-714v-442h784v-203h-1127q-168 0 -313 45t-250.5 135t-166 227.5t-60.5 317.5zM334 725q0 -127 39 -225.5t110.5 -164t170.5 -99t218 -33.5h109v1028h-109q-119 0 -218 -31
t-170.5 -93.5t-110.5 -157.5t-39 -224z" />
    <glyph glyph-name="oe" unicode="&#x153;" horiz-adv-x="2017" 
d="M76 539q0 123 43 224t115.5 172t172 110.5t211.5 39.5q129 0 239 -56t177 -157q68 102 172.5 157.5t216.5 55.5q102 0 196.5 -35.5t167.5 -105.5t116 -175t43 -241v-61h-801q10 -139 95 -220t194 -81q90 0 163.5 33.5t112.5 115.5h227q-25 -86 -77 -149.5t-120.5 -105.5
t-149.5 -62.5t-160 -20.5q-117 0 -223.5 60.5t-174.5 165.5q-68 -104 -177.5 -165t-236.5 -61q-113 0 -212 40t-171.5 113t-115.5 177.5t-43 231.5zM303 539q0 -160 88 -264.5t227 -104.5q129 0 216.5 104.5t87.5 264.5q0 154 -87 255t-217 101q-141 0 -228 -101.5
t-87 -254.5zM1143 645h559q-2 113 -83 183.5t-198 70.5q-100 0 -181 -68.5t-97 -185.5z" />
    <glyph glyph-name="Ydieresis" unicode="&#x178;" horiz-adv-x="1224" 
d="M-12 1434h272l373 -656l373 656h258l-521 -893v-541h-235v539zM301 1595v222h221v-222h-221zM708 1595v222h222v-222h-222z" />
    <glyph glyph-name="circumflex" unicode="&#x2c6;" horiz-adv-x="716" 
d="M23 1208l231 265h211l229 -265h-202l-138 146l-129 -146h-202z" />
    <glyph glyph-name="tilde" unicode="&#x2dc;" horiz-adv-x="817" 
d="M35 1292q41 90 104.5 135.5t136.5 45.5q45 0 82 -14.5t78 -45.5q29 -20 55.5 -34.5t51.5 -14.5q31 0 57.5 20.5t50.5 71.5l131 -74q-43 -88 -106 -134t-135 -46q-47 0 -84 14.5t-76 45.5q-29 20 -55.5 34.5t-51.5 14.5q-33 0 -59.5 -20.5t-50.5 -71.5z" />
    <glyph glyph-name="uni2000" unicode="&#x2000;" horiz-adv-x="922" 
 />
    <glyph glyph-name="uni2001" unicode="&#x2001;" horiz-adv-x="1845" 
 />
    <glyph glyph-name="uni2002" unicode="&#x2002;" horiz-adv-x="922" 
 />
    <glyph glyph-name="uni2003" unicode="&#x2003;" horiz-adv-x="1845" 
 />
    <glyph glyph-name="uni2004" unicode="&#x2004;" horiz-adv-x="615" 
 />
    <glyph glyph-name="uni2005" unicode="&#x2005;" horiz-adv-x="461" 
 />
    <glyph glyph-name="uni2006" unicode="&#x2006;" horiz-adv-x="307" 
 />
    <glyph glyph-name="uni2007" unicode="&#x2007;" horiz-adv-x="307" 
 />
    <glyph glyph-name="uni2008" unicode="&#x2008;" horiz-adv-x="230" 
 />
    <glyph glyph-name="uni2009" unicode="&#x2009;" horiz-adv-x="369" 
 />
    <glyph glyph-name="uni200A" unicode="&#x200a;" horiz-adv-x="102" 
 />
    <glyph glyph-name="uni2010" unicode="&#x2010;" horiz-adv-x="927" 
d="M117 469v203h694v-203h-694z" />
    <glyph glyph-name="uni2011" unicode="&#x2011;" horiz-adv-x="927" 
d="M117 469v203h694v-203h-694z" />
    <glyph glyph-name="figuredash" unicode="&#x2012;" horiz-adv-x="927" 
d="M117 469v203h694v-203h-694z" />
    <glyph glyph-name="endash" unicode="&#x2013;" horiz-adv-x="1210" 
d="M100 504v203h1010v-203h-1010z" />
    <glyph glyph-name="emdash" unicode="&#x2014;" horiz-adv-x="1974" 
d="M100 504v203h1772v-203h-1772z" />
    <glyph glyph-name="quoteleft" unicode="&#x2018;" horiz-adv-x="530" 
d="M137 864v258q0 143 72 222t190 106l2 -129q-55 -16 -94 -57t-39 -99q0 -16 8.5 -24t28.5 -8h88v-269h-256z" />
    <glyph glyph-name="quoteright" unicode="&#x2019;" horiz-adv-x="530" 
d="M129 977q55 16 94 57t39 98q0 16 -8 24.5t-29 8.5h-88v268h256v-258q0 -143 -71.5 -222t-190.5 -105z" />
    <glyph glyph-name="quotesinglbase" unicode="&#x201a;" horiz-adv-x="530" 
d="M129 -188q55 16 94 57t39 98q0 16 -8 24.5t-29 8.5h-88v268h256v-258q0 -143 -71.5 -222t-190.5 -105z" />
    <glyph glyph-name="quotedblleft" unicode="&#x201c;" horiz-adv-x="970" 
d="M137 864v258q0 143 72 222t190 106l2 -129q-55 -16 -94 -57t-39 -99q0 -16 8.5 -24t28.5 -8h88v-269h-256zM578 864v258q0 143 71.5 222t190.5 106l2 -129q-55 -16 -94 -57t-39 -99q0 -16 8 -24t28 -8h89v-269h-256z" />
    <glyph glyph-name="quotedblright" unicode="&#x201d;" horiz-adv-x="970" 
d="M129 977q55 16 94 57t39 98q0 16 -8 24.5t-29 8.5h-88v268h256v-258q0 -143 -71.5 -222t-190.5 -105zM567 977q55 16 94 57t39 98q0 16 -8 24.5t-29 8.5h-88v268h256v-258q0 -143 -71.5 -222t-190.5 -105z" />
    <glyph glyph-name="quotedblbase" unicode="&#x201e;" horiz-adv-x="970" 
d="M129 -188q55 16 94 57t39 98q0 16 -8 24.5t-29 8.5h-88v268h256v-258q0 -143 -71.5 -222t-190.5 -105zM567 -188q55 16 94 57t39 98q0 16 -8 24.5t-29 8.5h-88v268h256v-258q0 -143 -71.5 -222t-190.5 -105z" />
    <glyph glyph-name="bullet" unicode="&#x2022;" horiz-adv-x="792" 
d="M125 635q0 111 82 189.5t192 78.5q111 0 189 -83t78 -193q0 -111 -82 -190t-193 -79t-188.5 83t-77.5 194z" />
    <glyph glyph-name="ellipsis" unicode="&#x2026;" horiz-adv-x="1585" 
d="M137 0v268h256v-268h-256zM665 0v268h256v-268h-256zM1192 0v268h256v-268h-256z" />
    <glyph glyph-name="uni202F" unicode="&#x202f;" horiz-adv-x="369" 
 />
    <glyph glyph-name="guilsinglleft" unicode="&#x2039;" horiz-adv-x="622" 
d="M76 545v4l250 383h202l-215 -383l215 -381h-202z" />
    <glyph glyph-name="guilsinglright" unicode="&#x203a;" horiz-adv-x="622" 
d="M111 168l215 383l-215 381h202l250 -377v-4l-250 -383h-202z" />
    <glyph glyph-name="uni205F" unicode="&#x205f;" horiz-adv-x="461" 
 />
    <glyph glyph-name="Euro" unicode="&#x20ac;" horiz-adv-x="1560" 
d="M115 485v138h196q-2 20 -3 44.5t-1 47.5v40.5t2 41.5h-194v139h215q53 238 209.5 368t363.5 130q102 0 194.5 -29t164 -84t121 -137t67.5 -189h-213q-31 121 -117 182.5t-217 61.5t-219 -79t-125 -224h389v-139h-411q-2 -20 -2 -41v-41q0 -25 1 -48.5t3 -43.5h409v-138
h-389q35 -145 122 -229t222 -84q129 0 215 68.5t121 185.5h213q-41 -207 -186.5 -326.5t-362.5 -119.5q-211 0 -365.5 133t-207.5 372h-215z" />
    <glyph glyph-name="trademark" unicode="&#x2122;" horiz-adv-x="1427" 
d="M53 1319v115h500v-115h-184v-422h-131v422h-185zM635 897v537h229l125 -373l121 373h221v-537h-131v455l-156 -455h-122l-158 461v-461h-129z" />
    <glyph glyph-name="uni25FC" unicode="&#x25fc;" horiz-adv-x="1064" 
d="M0 0v1065h1065v-1065h-1065z" />
    <glyph glyph-name="uniFB03" unicode="&#xfb03;" horiz-adv-x="1906" 
d="M31 883v178h186v119q0 178 85 238.5t237 60.5q43 0 79.5 -1t71.5 -3v-181q-25 2 -55.5 3t-59.5 1q-66 0 -103.5 -23.5t-37.5 -105.5v-108h256v-178h-256v-883h-217v883h-186zM684 883v178h186v119q0 178 85 238.5t237 60.5q43 0 79.5 -1t71.5 -3v-181q-25 2 -55.5 3
t-59.5 1q-66 0 -103.5 -23.5t-37.5 -105.5v-108h256v-178h-256v-883h-217v883h-186zM1529 1237v238h226v-238h-226zM1531 0v1061h222v-1061h-222z" />
    <glyph glyph-name="uniFB04" unicode="&#xfb04;" horiz-adv-x="1904" 
d="M31 883v178h186v119q0 178 85 238.5t237 60.5q43 0 79.5 -1t71.5 -3v-181q-25 2 -55.5 3t-59.5 1q-66 0 -103.5 -23.5t-37.5 -105.5v-108h256v-178h-256v-883h-217v883h-186zM684 883v178h186v119q0 178 85 238.5t237 60.5q43 0 79.5 -1t71.5 -3v-181q-25 2 -55.5 3
t-59.5 1q-66 0 -103.5 -23.5t-37.5 -105.5v-108h256v-178h-256v-883h-217v883h-186zM1529 0v1475h222v-1475h-222z" />
    </font>
</defs>
</svg>
