<svg xmlns="http://www.w3.org/2000/svg" width="399" height="399"><path d="M 0.329 199.664 C 0.329 50.163 50.163 0.329 199.664 0.329 C 349.166 0.329 399 50.163 399 199.664 C 399 349.166 349.166 399 199.664 399 C 50.163 399 0.329 349.166 0.329 199.664" fill="rgb(240,189,102)"></path><g transform="translate(97.75 97.75)"><path d="M 180.667 90.333 L 22.583 90.333 C 10.111 90.333 0 80.222 0 67.75 L 0 22.583 C 0 10.111 10.111 0 22.583 0 L 180.667 0 C 193.139 0 203.25 10.111 203.25 22.583 L 203.25 67.75 C 203.25 80.222 193.139 90.333 180.667 90.333 Z M 45.167 22.583 C 32.694 22.583 22.583 32.694 22.583 45.167 C 22.583 57.639 32.694 67.75 45.167 67.75 C 57.639 67.75 67.75 57.639 67.75 45.167 C 67.734 32.701 57.633 22.599 45.167 22.583 Z" fill="rgb(255,255,255)"></path><path d="M 180.667 203.25 L 22.583 203.25 C 10.111 203.25 0 193.139 0 180.667 L 0 135.5 C 0 123.028 10.111 112.917 22.583 112.917 L 180.667 112.917 C 193.139 112.917 203.25 123.028 203.25 135.5 L 203.25 180.667 C 203.25 193.139 193.139 203.25 180.667 203.25 Z M 158.083 135.5 C 145.611 135.5 135.5 145.611 135.5 158.083 C 135.5 170.556 145.611 180.667 158.083 180.667 C 170.556 180.667 180.667 170.556 180.667 158.083 C 180.667 145.611 170.556 135.5 158.083 135.5 Z" fill="rgb(255,255,255)" opacity="0.44"></path></g></svg>