<svg xmlns="http://www.w3.org/2000/svg" width="399" height="399"><path d="M 0.329 199.664 C 0.329 50.163 50.163 0.329 199.664 0.329 C 349.166 0.329 399 50.163 399 199.664 C 399 349.166 349.166 399 199.664 399 C 50.163 399 0.329 349.166 0.329 199.664" fill="rgb(240,189,102)"></path><path d="M 294.083 293.75 L 104.917 293.75 C 94.469 293.75 86 285.288 86 274.85 L 86 123.65 C 86 113.212 94.469 104.75 104.917 104.75 L 294.083 104.75 C 304.531 104.75 313 113.212 313 123.65 L 313 274.85 C 313 285.288 304.531 293.75 294.083 293.75 Z M 167.972 180.35 L 111.222 255.95 L 224.722 255.95 Z M 249.944 142.55 C 229.05 142.55 212.111 159.474 212.111 180.35 C 212.111 201.226 229.05 218.15 249.944 218.15 C 270.839 218.15 287.778 201.226 287.778 180.35 C 287.753 159.484 270.829 142.574 249.944 142.55 Z" fill="rgb(255,255,255)"></path></svg>