<svg xmlns="http://www.w3.org/2000/svg" width="14" height="12.257"><path d="M 12.513 0.907 C 10.939 -0.417 8.506 -0.218 7 1.316 C 5.494 -0.218 3.061 -0.419 1.487 0.907 C -0.561 2.631 -0.261 5.442 1.198 6.932 L 5.976 11.799 C 6.248 12.077 6.613 12.232 7 12.232 C 7.389 12.232 7.752 12.08 8.024 11.802 L 12.802 6.935 C 14.259 5.445 14.564 2.634 12.513 0.907 Z M 11.87 6.014 L 7.093 10.881 C 7.027 10.947 6.973 10.947 6.907 10.881 L 2.13 6.014 C 1.136 5.001 0.934 3.083 2.329 1.909 C 3.388 1.019 5.023 1.152 6.047 2.195 L 7 3.168 L 7.953 2.195 C 8.983 1.147 10.617 1.019 11.671 1.907 C 13.063 3.081 12.856 5.009 11.87 6.014 Z" fill="rgb(74,80,192)"></path></svg>