<svg xmlns="http://www.w3.org/2000/svg" width="448" height="512"><path d="M 224.1 141 C 160.5 141 109.2 192.3 109.2 255.9 C 109.2 319.5 160.5 370.8 224.1 370.8 C 287.7 370.8 339 319.5 339 255.9 C 339 192.3 287.7 141 224.1 141 Z M 224.1 330.6 C 183 330.6 149.4 297.1 149.4 255.9 C 149.4 214.7 182.9 181.2 224.1 181.2 C 265.3 181.2 298.8 214.7 298.8 255.9 C 298.8 297.1 265.2 330.6 224.1 330.6 Z M 370.5 136.3 C 370.5 151.2 358.5 163.1 343.7 163.1 C 328.8 163.1 316.9 151.1 316.9 136.3 C 316.9 121.5 328.9 109.5 343.7 109.5 C 358.5 109.5 370.5 121.5 370.5 136.3 Z M 446.6 163.5 C 444.9 127.6 436.7 95.8 410.4 69.6 C 384.2 43.4 352.4 35.2 316.5 33.4 C 279.5 31.3 168.6 31.3 131.6 33.4 C 95.8 35.1 64 43.3 37.7 69.5 C 11.4 95.7 3.3 127.5 1.5 163.4 C -0.6 200.4 -0.6 311.3 1.5 348.3 C 3.2 384.2 11.4 416 37.7 442.2 C 64 468.4 95.7 476.6 131.6 478.4 C 168.6 480.5 279.5 480.5 316.5 478.4 C 352.4 476.7 384.2 468.5 410.4 442.2 C 436.6 416 444.8 384.2 446.6 348.3 C 448.7 311.3 448.7 200.5 446.6 163.5 Z M 398.8 388 C 391 407.6 375.9 422.7 356.2 430.6 C 326.7 442.3 256.7 439.6 224.1 439.6 C 191.5 439.6 121.4 442.2 92 430.6 C 72.4 422.8 57.3 407.7 49.4 388 C 37.7 358.5 40.4 288.5 40.4 255.9 C 40.4 223.3 37.8 153.2 49.4 123.8 C 57.2 104.2 72.3 89.1 92 81.2 C 121.5 69.5 191.5 72.2 224.1 72.2 C 256.7 72.2 326.8 69.6 356.2 81.2 C 375.8 89 390.9 104.1 398.8 123.8 C 410.5 153.3 407.8 223.3 407.8 255.9 C 407.8 288.5 410.5 358.6 398.8 388 Z" fill="rgba(74, 80, 192, 1.00)"></path></svg>