<svg xmlns="http://www.w3.org/2000/svg" width="512" height="512"><path d="M 12.41 148.02 L 245.35 253.69 C 252.15 256.78 259.84 256.78 266.64 253.69 L 499.58 148.02 C 516.13 140.51 516.13 115.5 499.58 107.99 L 266.65 2.31 C 259.89 -0.78 252.12 -0.78 245.36 2.31 L 12.41 107.98 C -4.14 115.49 -4.14 140.51 12.41 148.02 Z M 499.59 236.3 L 441.5 209.97 L 279.86 283.24 C 272.3 286.67 264.27 288.41 256 288.41 C 247.73 288.41 239.71 286.67 232.14 283.24 L 70.51 209.97 L 12.41 236.3 C -4.14 243.8 -4.14 268.8 12.41 276.3 L 245.35 381.89 C 252.15 384.97 259.84 384.97 266.64 381.89 L 499.59 276.3 C 516.14 268.8 516.14 243.8 499.59 236.3 Z M 499.59 364.1 L 441.72 337.87 L 279.86 411.24 C 272.3 414.67 264.27 416.41 256 416.41 C 247.73 416.41 239.71 414.67 232.14 411.24 L 70.29 337.87 L 12.41 364.1 C -4.14 371.6 -4.14 396.6 12.41 404.1 L 245.35 509.69 C 252.15 512.77 259.84 512.77 266.64 509.69 L 499.59 404.1 C 516.14 396.6 516.14 371.6 499.59 364.1 Z" fill="#4A50C0"></path></svg>