<svg xmlns="http://www.w3.org/2000/svg" width="640" height="513"><path d="M 497.941 225.941 L 286.059 14.059 C 277.057 5.057 264.848 0 252.118 0 L 48 0 C 21.49 0 0 21.49 0 48 L 0 252.118 C 0 264.848 5.057 277.057 14.059 286.059 L 225.941 497.941 C 244.685 516.686 275.077 516.687 293.823 497.941 L 497.941 293.823 C 516.686 275.078 516.686 244.686 497.941 225.941 Z M 112 160 C 85.49 160 64 138.51 64 112 C 64 85.49 85.49 64 112 64 C 138.51 64 160 85.49 160 112 C 160 138.51 138.51 160 112 160 Z M 625.941 293.823 L 421.823 497.941 C 403.078 516.686 372.686 516.686 353.941 497.941 L 353.581 497.581 L 527.64 323.522 C 544.639 306.523 554 283.922 554 259.882 C 554 235.842 544.638 213.241 527.64 196.242 L 331.397 0 L 380.118 0 C 392.848 0 405.057 5.057 414.059 14.059 L 625.941 225.941 C 644.686 244.686 644.686 275.078 625.941 293.823 Z" fill="rgba(74, 80, 192, 1.00)"></path></svg>